<?xml version="1.0"?>
<svg width="72" height="73" xmlns="http://www.w3.org/2000/svg" xmlns:svg="http://www.w3.org/2000/svg">
 <g class="layer">
  <title>Layer 1</title>
  <circle cx="36" cy="36.5" fill="#be7072" id="svg_1" r="36"/>
  <path d="m36.44,55.74c-2.61,0 -5.05,-0.48 -7.33,-1.46c-2.28,-0.98 -4.27,-2.32 -5.98,-4.02c-1.7,-1.71 -3.04,-3.7 -4.02,-5.98c-0.98,-2.28 -1.47,-4.72 -1.47,-7.34c0,-2.6 0.49,-5.05 1.47,-7.33c0.98,-2.28 2.32,-4.27 4.02,-5.98c1.71,-1.7 3.7,-3.04 5.98,-4.02c2.28,-0.98 4.72,-1.47 7.33,-1.47c2.61,0 5.06,0.49 7.34,1.47c2.28,0.98 4.27,2.32 5.98,4.02c1.7,1.71 3.04,3.7 4.02,5.98c0.98,2.28 1.46,4.73 1.46,7.35l0,2.34c0,1.93 -0.64,3.47 -1.93,4.64c-1.29,1.17 -2.91,1.76 -4.87,1.76c-1.18,0 -2.27,-0.28 -3.26,-0.84c-0.99,-0.57 -1.73,-1.34 -2.2,-2.32c-0.71,1.1 -1.64,1.9 -2.78,2.4c-1.14,0.51 -2.39,0.76 -3.76,0.76c-2.44,0 -4.51,-0.84 -6.23,-2.53c-1.71,-1.69 -2.57,-3.77 -2.57,-6.25c0,-2.44 0.86,-4.52 2.57,-6.24c1.71,-1.72 3.79,-2.58 6.22,-2.58c2.47,0 4.56,0.85 6.26,2.56c1.7,1.7 2.55,3.8 2.55,6.28l0,2.05c0,0.85 0.32,1.58 0.94,2.17c0.62,0.6 1.38,0.9 2.26,0.9c0.86,0 1.6,-0.3 2.2,-0.9c0.61,-0.59 0.92,-1.32 0.92,-2.17l0,-2.05c0,-4.23 -1.46,-7.81 -4.38,-10.73c-2.92,-2.92 -6.51,-4.38 -10.76,-4.38c-4.19,0 -7.75,1.47 -10.69,4.4c-2.93,2.94 -4.4,6.51 -4.4,10.71c0,4.24 1.46,7.82 4.38,10.74c2.92,2.92 6.5,4.38 10.73,4.38l7.69,0c0.52,0 0.95,0.17 1.3,0.53c0.35,0.35 0.53,0.79 0.53,1.31c0,0.52 -0.18,0.96 -0.53,1.31c-0.35,0.36 -0.78,0.53 -1.3,0.53l-7.69,0zm0.01,-13.68c1.42,0 2.63,-0.5 3.64,-1.49c1.01,-1 1.51,-2.2 1.51,-3.6c0,-1.44 -0.51,-2.67 -1.52,-3.69c-1.02,-1.02 -2.23,-1.54 -3.65,-1.54c-1.41,0 -2.62,0.52 -3.63,1.54c-1.01,1.02 -1.51,2.25 -1.51,3.69c0,1.4 0.51,2.6 1.52,3.6c1.01,0.99 2.23,1.49 3.64,1.49z" fill="white" id="svg_2"/>
 </g>
</svg>