<?xml version="1.0"?>
<svg width="72" height="73" xmlns="http://www.w3.org/2000/svg" xmlns:svg="http://www.w3.org/2000/svg">
 <g class="layer">
  <title>Layer 1</title>
  <circle cx="36" cy="37" fill="#bd7072" id="svg_1" r="36"/>
  <path d="m35.54,38.15c0.93,0 1.73,-0.33 2.39,-0.99c0.67,-0.66 1,-1.45 1,-2.38c0,-0.92 -0.33,-1.72 -0.99,-2.38c-0.65,-0.67 -1.45,-1 -2.37,-1c-0.93,0 -1.73,0.33 -2.39,0.98c-0.67,0.66 -1,1.46 -1,2.38c0,0.93 0.33,1.72 0.99,2.39c0.66,0.67 1.45,1 2.37,1zm0.02,13.42c3.68,-3.38 6.4,-6.46 8.16,-9.21c1.76,-2.76 2.64,-5.17 2.64,-7.25c0,-3.26 -1.05,-5.93 -3.13,-8.01c-2.08,-2.09 -4.64,-3.13 -7.66,-3.13c-3.03,0 -5.59,1.05 -7.68,3.13c-2.09,2.08 -3.13,4.76 -3.13,8.02c0,2.08 0.9,4.49 2.7,7.23c1.8,2.75 4.5,5.82 8.1,9.22zm0.01,4.58c-0.34,0 -0.66,-0.05 -0.97,-0.15c-0.31,-0.11 -0.58,-0.26 -0.82,-0.47c-4.45,-3.97 -7.76,-7.63 -9.94,-11c-2.17,-3.36 -3.26,-6.49 -3.26,-9.4c0,-4.68 1.5,-8.4 4.51,-11.17c3.01,-2.78 6.5,-4.16 10.46,-4.16c3.96,0 7.45,1.38 10.46,4.16c3.02,2.77 4.52,6.49 4.52,11.17c0,2.9 -1.09,6.04 -3.26,9.4c-2.18,3.36 -5.49,7.03 -9.94,11c-0.23,0.21 -0.5,0.36 -0.81,0.47c-0.3,0.1 -0.62,0.15 -0.95,0.15z" fill="#F4FAFF" id="svg_2"/>
 </g>
</svg>