<svg width="2062" height="1228" viewBox="0 0 2062 1228" fill="none" xmlns="http://www.w3.org/2000/svg">
<g opacity="0.2" clip-path="url(#clip0_2502_325)">
<path d="M142.097 943.688C63.5443 943.688 0 1007.23 0 1085.78C0 1164.14 63.5443 1227.88 142.097 1227.88C220.456 1227.88 284.195 1164.34 284.195 1085.78C284 1007.23 220.456 943.688 142.097 943.688ZM142.097 1218.72C68.6122 1218.72 9.16129 1159.27 9.16129 1085.78C9.16129 1012.3 68.6122 952.849 142.097 952.849C215.583 952.849 275.034 1012.3 275.034 1085.78C275.034 1159.08 215.388 1218.72 142.097 1218.72Z" fill="white"/>
<path d="M142.099 974.29C80.6986 974.29 30.7988 1024.19 30.7988 1085.59C30.7988 1146.99 80.6986 1196.89 142.099 1196.89C203.499 1196.89 253.399 1147.19 253.399 1085.78C253.399 1024.19 203.499 974.29 142.099 974.29ZM142.099 1179.93C90.0548 1179.93 47.757 1137.63 47.757 1085.59C47.757 1033.55 90.0548 991.248 142.099 991.248C194.143 991.248 236.441 1033.55 236.441 1085.59C236.441 1137.63 194.143 1179.93 142.099 1179.93Z" fill="white"/>
<path d="M142.098 1023.21C107.597 1023.21 79.5283 1051.28 79.5283 1085.78C79.5283 1120.29 107.402 1148.35 142.098 1148.35C176.599 1148.35 204.668 1120.29 204.668 1085.78C204.473 1051.28 176.599 1023.21 142.098 1023.21ZM142.098 1119.31C123.58 1119.31 108.572 1104.3 108.572 1085.78C108.572 1067.27 123.58 1052.26 142.098 1052.26C160.616 1052.26 175.624 1067.27 175.624 1085.78C175.624 1104.3 160.616 1119.31 142.098 1119.31Z" fill="white"/>
</g>
<g opacity="0.8" clip-path="url(#clip1_2502_325)">
<path d="M1880.34 836.952C1880.34 838.471 1879.19 839.611 1877.67 839.611C1876.14 839.611 1875 838.471 1875 836.952C1875 835.433 1876.14 834.293 1877.67 834.293C1879.19 834.293 1880.34 835.559 1880.34 836.952Z" fill="white"/>
<path d="M1903.08 836.952C1903.08 838.471 1901.93 839.611 1900.41 839.611C1898.88 839.611 1897.74 838.471 1897.74 836.952C1897.74 835.433 1898.88 834.293 1900.41 834.293C1901.81 834.293 1903.08 835.559 1903.08 836.952Z" fill="white"/>
<path d="M1925.69 836.952C1925.69 838.471 1924.54 839.611 1923.02 839.611C1921.5 839.611 1920.35 838.471 1920.35 836.952C1920.35 835.433 1921.5 834.293 1923.02 834.293C1924.54 834.293 1925.69 835.559 1925.69 836.952Z" fill="white"/>
<path d="M1948.43 836.952C1948.43 838.471 1947.28 839.611 1945.76 839.611C1944.24 839.611 1943.09 838.471 1943.09 836.952C1943.09 835.433 1944.24 834.293 1945.76 834.293C1947.28 834.293 1948.43 835.559 1948.43 836.952Z" fill="white"/>
<path d="M1971.17 836.952C1971.17 838.471 1970.02 839.611 1968.5 839.611C1966.98 839.611 1965.83 838.471 1965.83 836.952C1965.83 835.433 1966.98 834.293 1968.5 834.293C1969.9 834.293 1971.17 835.559 1971.17 836.952Z" fill="white"/>
<path d="M1993.91 836.952C1993.91 838.471 1992.76 839.611 1991.24 839.611C1989.72 839.611 1988.57 838.471 1988.57 836.952C1988.57 835.433 1989.72 834.293 1991.24 834.293C1992.76 834.293 1993.91 835.559 1993.91 836.952Z" fill="white"/>
<path d="M2016.52 836.952C2016.52 838.471 2015.38 839.611 2013.85 839.611C2012.33 839.611 2011.18 838.471 2011.18 836.952C2011.18 835.433 2012.33 834.293 2013.85 834.293C2015.38 834.293 2016.52 835.559 2016.52 836.952Z" fill="white"/>
<path d="M2039.26 836.952C2039.26 838.471 2038.12 839.611 2036.59 839.611C2035.07 839.611 2033.92 838.471 2033.92 836.952C2033.92 835.433 2035.07 834.293 2036.59 834.293C2038.12 834.293 2039.26 835.559 2039.26 836.952Z" fill="white"/>
<path d="M2062 836.952C2062 838.471 2060.86 839.611 2059.33 839.611C2057.81 839.611 2056.66 838.471 2056.66 836.952C2056.66 835.433 2057.81 834.293 2059.33 834.293C2060.73 834.293 2062 835.559 2062 836.952Z" fill="white"/>
<path d="M1880.34 855.818C1880.34 857.338 1879.19 858.477 1877.67 858.477C1876.14 858.477 1875 857.338 1875 855.818C1875 854.299 1876.14 853.159 1877.67 853.159C1879.19 853.159 1880.34 854.299 1880.34 855.818Z" fill="white"/>
<path d="M1903.08 855.818C1903.08 857.338 1901.93 858.477 1900.41 858.477C1898.88 858.477 1897.74 857.338 1897.74 855.818C1897.74 854.299 1898.88 853.159 1900.41 853.159C1901.81 853.159 1903.08 854.299 1903.08 855.818Z" fill="white"/>
<path d="M1925.69 855.818C1925.69 857.338 1924.54 858.477 1923.02 858.477C1921.5 858.477 1920.35 857.338 1920.35 855.818C1920.35 854.299 1921.5 853.159 1923.02 853.159C1924.54 853.159 1925.69 854.299 1925.69 855.818Z" fill="white"/>
<path d="M1948.43 855.818C1948.43 857.338 1947.28 858.477 1945.76 858.477C1944.24 858.477 1943.09 857.338 1943.09 855.818C1943.09 854.299 1944.24 853.159 1945.76 853.159C1947.28 853.159 1948.43 854.299 1948.43 855.818Z" fill="white"/>
<path d="M1971.17 855.818C1971.17 857.338 1970.02 858.477 1968.5 858.477C1966.98 858.477 1965.83 857.338 1965.83 855.818C1965.83 854.299 1966.98 853.159 1968.5 853.159C1969.9 853.159 1971.17 854.299 1971.17 855.818Z" fill="white"/>
<path d="M1993.91 855.818C1993.91 857.338 1992.76 858.477 1991.24 858.477C1989.72 858.477 1988.57 857.338 1988.57 855.818C1988.57 854.299 1989.72 853.159 1991.24 853.159C1992.76 853.159 1993.91 854.299 1993.91 855.818Z" fill="white"/>
<path d="M2016.52 855.818C2016.52 857.338 2015.38 858.477 2013.85 858.477C2012.33 858.477 2011.18 857.338 2011.18 855.818C2011.18 854.299 2012.33 853.159 2013.85 853.159C2015.38 853.159 2016.52 854.299 2016.52 855.818Z" fill="white"/>
<path d="M2039.26 855.818C2039.26 857.338 2038.12 858.477 2036.59 858.477C2035.07 858.477 2033.92 857.338 2033.92 855.818C2033.92 854.299 2035.07 853.159 2036.59 853.159C2038.12 853.159 2039.26 854.299 2039.26 855.818Z" fill="white"/>
<path d="M2062 855.818C2062 857.338 2060.86 858.477 2059.33 858.477C2057.81 858.477 2056.66 857.338 2056.66 855.818C2056.66 854.299 2057.81 853.159 2059.33 853.159C2060.73 853.159 2062 854.299 2062 855.818Z" fill="white"/>
<path d="M1880.34 799.346C1880.34 800.866 1879.19 802.005 1877.67 802.005C1876.14 802.005 1875 800.866 1875 799.346C1875 797.827 1876.14 796.688 1877.67 796.688C1879.19 796.688 1880.34 797.827 1880.34 799.346Z" fill="white"/>
<path d="M1903.08 799.346C1903.08 800.866 1901.93 802.005 1900.41 802.005C1898.88 802.005 1897.74 800.866 1897.74 799.346C1897.74 797.827 1898.88 796.688 1900.41 796.688C1901.81 796.688 1903.08 797.827 1903.08 799.346Z" fill="white"/>
<path d="M1925.69 799.346C1925.69 800.866 1924.54 802.005 1923.02 802.005C1921.5 802.005 1920.35 800.866 1920.35 799.346C1920.35 797.827 1921.62 796.688 1923.02 796.688C1924.54 796.688 1925.69 797.827 1925.69 799.346Z" fill="white"/>
<path d="M1948.43 799.346C1948.43 800.866 1947.28 802.005 1945.76 802.005C1944.24 802.005 1943.09 800.866 1943.09 799.346C1943.09 797.827 1944.36 796.688 1945.76 796.688C1947.16 796.688 1948.43 797.827 1948.43 799.346Z" fill="white"/>
<path d="M1971.17 799.346C1971.17 800.866 1970.02 802.005 1968.5 802.005C1966.98 802.005 1965.83 800.866 1965.83 799.346C1965.83 797.827 1966.98 796.688 1968.5 796.688C1969.9 796.688 1971.17 797.827 1971.17 799.346Z" fill="white"/>
<path d="M1993.91 799.346C1993.91 800.866 1992.76 802.005 1991.24 802.005C1989.72 802.005 1988.57 800.866 1988.57 799.346C1988.57 797.827 1989.72 796.688 1991.24 796.688C1992.76 796.688 1993.91 797.827 1993.91 799.346Z" fill="white"/>
<path d="M2016.52 799.346C2016.52 800.866 2015.38 802.005 2013.85 802.005C2012.33 802.005 2011.18 800.866 2011.18 799.346C2011.18 797.827 2012.33 796.688 2013.85 796.688C2015.38 796.688 2016.52 797.827 2016.52 799.346Z" fill="white"/>
<path d="M2039.26 799.346C2039.26 800.866 2038.12 802.005 2036.59 802.005C2035.07 802.005 2033.92 800.866 2033.92 799.346C2033.92 797.827 2035.07 796.688 2036.59 796.688C2038.12 796.688 2039.26 797.827 2039.26 799.346Z" fill="white"/>
<path d="M2062 799.346C2062 800.866 2060.86 802.005 2059.33 802.005C2057.81 802.005 2056.66 800.866 2056.66 799.346C2056.66 797.827 2057.81 796.688 2059.33 796.688C2060.73 796.688 2062 797.827 2062 799.346Z" fill="white"/>
<path d="M1880.34 818.213C1880.34 819.732 1879.19 820.872 1877.67 820.872C1876.14 820.872 1875 819.605 1875 818.213C1875 816.693 1876.14 815.554 1877.67 815.554C1879.19 815.554 1880.34 816.693 1880.34 818.213Z" fill="white"/>
<path d="M1903.08 818.213C1903.08 819.732 1901.93 820.872 1900.41 820.872C1898.88 820.872 1897.74 819.732 1897.74 818.213C1897.74 816.693 1898.88 815.554 1900.41 815.554C1901.81 815.554 1903.08 816.693 1903.08 818.213Z" fill="white"/>
<path d="M1925.69 818.213C1925.69 819.732 1924.54 820.872 1923.02 820.872C1921.5 820.872 1920.35 819.732 1920.35 818.213C1920.35 816.693 1921.5 815.554 1923.02 815.554C1924.54 815.554 1925.69 816.693 1925.69 818.213Z" fill="white"/>
<path d="M1948.43 818.213C1948.43 819.732 1947.28 820.872 1945.76 820.872C1944.24 820.872 1943.09 819.732 1943.09 818.213C1943.09 816.693 1944.24 815.554 1945.76 815.554C1947.28 815.554 1948.43 816.693 1948.43 818.213Z" fill="white"/>
<path d="M1971.17 818.213C1971.17 819.732 1970.02 820.872 1968.5 820.872C1966.98 820.872 1965.83 819.732 1965.83 818.213C1965.83 816.693 1966.98 815.554 1968.5 815.554C1969.9 815.554 1971.17 816.693 1971.17 818.213Z" fill="white"/>
<path d="M1993.91 818.213C1993.91 819.732 1992.76 820.872 1991.24 820.872C1989.72 820.872 1988.57 819.732 1988.57 818.213C1988.57 816.693 1989.72 815.554 1991.24 815.554C1992.76 815.554 1993.91 816.693 1993.91 818.213Z" fill="white"/>
<path d="M2016.52 818.213C2016.52 819.732 2015.38 820.872 2013.85 820.872C2012.33 820.872 2011.18 819.732 2011.18 818.213C2011.18 816.693 2012.33 815.554 2013.85 815.554C2015.38 815.554 2016.52 816.693 2016.52 818.213Z" fill="white"/>
<path d="M2039.26 818.213C2039.26 819.732 2038.12 820.872 2036.59 820.872C2035.07 820.872 2033.92 819.732 2033.92 818.213C2033.92 816.693 2035.07 815.554 2036.59 815.554C2038.12 815.554 2039.26 816.693 2039.26 818.213Z" fill="white"/>
<path d="M2062 818.213C2062 819.732 2060.86 820.872 2059.33 820.872C2057.81 820.872 2056.66 819.732 2056.66 818.213C2056.66 816.693 2057.81 815.554 2059.33 815.554C2060.73 815.554 2062 816.693 2062 818.213Z" fill="white"/>
<path d="M1880.34 874.557C1880.34 876.077 1879.19 877.216 1877.67 877.216C1876.14 877.216 1875 876.077 1875 874.557C1875 873.038 1876.14 871.898 1877.67 871.898C1879.19 871.898 1880.34 873.165 1880.34 874.557Z" fill="white"/>
<path d="M1903.08 874.557C1903.08 876.077 1901.93 877.216 1900.41 877.216C1898.88 877.216 1897.74 876.077 1897.74 874.557C1897.74 873.038 1898.88 871.898 1900.41 871.898C1901.81 871.898 1903.08 873.165 1903.08 874.557Z" fill="white"/>
<path d="M1925.69 874.557C1925.69 876.077 1924.54 877.216 1923.02 877.216C1921.5 877.216 1920.35 876.077 1920.35 874.557C1920.35 873.038 1921.5 871.898 1923.02 871.898C1924.54 871.898 1925.69 873.165 1925.69 874.557Z" fill="white"/>
<path d="M1948.43 874.557C1948.43 876.077 1947.28 877.216 1945.76 877.216C1944.24 877.216 1943.09 876.077 1943.09 874.557C1943.09 873.038 1944.24 871.898 1945.76 871.898C1947.28 871.898 1948.43 873.165 1948.43 874.557Z" fill="white"/>
<path d="M1971.17 874.557C1971.17 876.077 1970.02 877.216 1968.5 877.216C1966.98 877.216 1965.83 876.077 1965.83 874.557C1965.83 873.038 1966.98 871.898 1968.5 871.898C1969.9 871.898 1971.17 873.165 1971.17 874.557Z" fill="white"/>
<path d="M1993.91 874.557C1993.91 876.077 1992.76 877.216 1991.24 877.216C1989.72 877.216 1988.57 876.077 1988.57 874.557C1988.57 873.038 1989.72 871.898 1991.24 871.898C1992.76 871.898 1993.91 873.165 1993.91 874.557Z" fill="white"/>
<path d="M2016.52 874.557C2016.52 876.077 2015.38 877.216 2013.85 877.216C2012.33 877.216 2011.18 876.077 2011.18 874.557C2011.18 873.038 2012.33 871.898 2013.85 871.898C2015.38 871.898 2016.52 873.165 2016.52 874.557Z" fill="white"/>
<path d="M2039.26 874.557C2039.26 876.077 2038.12 877.216 2036.59 877.216C2035.07 877.216 2033.92 876.077 2033.92 874.557C2033.92 873.038 2035.07 871.898 2036.59 871.898C2038.12 871.898 2039.26 873.165 2039.26 874.557Z" fill="white"/>
<path d="M2062 874.557C2062 876.077 2060.86 877.216 2059.33 877.216C2057.81 877.216 2056.66 876.077 2056.66 874.557C2056.66 873.038 2057.81 871.898 2059.33 871.898C2060.73 871.898 2062 873.165 2062 874.557Z" fill="white"/>
<path d="M1880.34 893.424C1880.34 894.943 1879.19 896.083 1877.67 896.083C1876.14 896.083 1875 894.943 1875 893.424C1875 891.904 1876.14 890.765 1877.67 890.765C1879.19 890.765 1880.34 891.904 1880.34 893.424Z" fill="white"/>
<path d="M1903.08 893.424C1903.08 894.943 1901.93 896.083 1900.41 896.083C1898.88 896.083 1897.74 894.943 1897.74 893.424C1897.74 891.904 1898.88 890.765 1900.41 890.765C1901.81 890.765 1903.08 891.904 1903.08 893.424Z" fill="white"/>
<path d="M1925.69 893.424C1925.69 894.943 1924.54 896.083 1923.02 896.083C1921.5 896.083 1920.35 894.943 1920.35 893.424C1920.35 891.904 1921.5 890.765 1923.02 890.765C1924.54 890.765 1925.69 891.904 1925.69 893.424Z" fill="white"/>
<path d="M1945.76 896.083C1947.23 896.083 1948.43 894.892 1948.43 893.424C1948.43 891.955 1947.23 890.765 1945.76 890.765C1944.29 890.765 1943.09 891.955 1943.09 893.424C1943.09 894.892 1944.29 896.083 1945.76 896.083Z" fill="white"/>
<path d="M1971.17 893.424C1971.17 894.943 1970.02 896.083 1968.5 896.083C1966.98 896.083 1965.83 894.943 1965.83 893.424C1965.83 891.904 1966.98 890.765 1968.5 890.765C1969.9 890.765 1971.17 891.904 1971.17 893.424Z" fill="white"/>
<path d="M1993.91 893.424C1993.91 894.943 1992.76 896.083 1991.24 896.083C1989.72 896.083 1988.57 894.943 1988.57 893.424C1988.57 891.904 1989.72 890.765 1991.24 890.765C1992.76 890.765 1993.91 891.904 1993.91 893.424Z" fill="white"/>
<path d="M2016.52 893.424C2016.52 894.943 2015.38 896.083 2013.85 896.083C2012.33 896.083 2011.18 894.943 2011.18 893.424C2011.18 891.904 2012.33 890.765 2013.85 890.765C2015.38 890.765 2016.52 891.904 2016.52 893.424Z" fill="white"/>
<path d="M2036.59 896.083C2038.07 896.083 2039.26 894.892 2039.26 893.424C2039.26 891.955 2038.07 890.765 2036.59 890.765C2035.12 890.765 2033.92 891.955 2033.92 893.424C2033.92 894.892 2035.12 896.083 2036.59 896.083Z" fill="white"/>
<path d="M2062 893.424C2062 894.943 2060.86 896.083 2059.33 896.083C2057.81 896.083 2056.66 894.943 2056.66 893.424C2056.66 891.904 2057.81 890.765 2059.33 890.765C2060.73 890.765 2062 891.904 2062 893.424Z" fill="white"/>
<path d="M1880.34 912.289C1880.34 913.808 1879.19 914.948 1877.67 914.948C1876.14 914.948 1875 913.808 1875 912.289C1875 910.769 1876.14 909.63 1877.67 909.63C1879.19 909.63 1880.34 910.769 1880.34 912.289Z" fill="white"/>
<path d="M1903.08 912.289C1903.08 913.808 1901.93 914.948 1900.41 914.948C1898.88 914.948 1897.74 913.808 1897.74 912.289C1897.74 910.769 1898.88 909.63 1900.41 909.63C1901.81 909.63 1903.08 910.769 1903.08 912.289Z" fill="white"/>
<path d="M1925.69 912.289C1925.69 913.808 1924.54 914.948 1923.02 914.948C1921.5 914.948 1920.35 913.808 1920.35 912.289C1920.35 910.769 1921.5 909.63 1923.02 909.63C1924.54 909.63 1925.69 910.769 1925.69 912.289Z" fill="white"/>
<path d="M1948.43 912.289C1948.43 913.808 1947.28 914.948 1945.76 914.948C1944.24 914.948 1943.09 913.808 1943.09 912.289C1943.09 910.769 1944.24 909.63 1945.76 909.63C1947.28 909.63 1948.43 910.769 1948.43 912.289Z" fill="white"/>
<path d="M1971.17 912.289C1971.17 913.808 1970.02 914.948 1968.5 914.948C1966.98 914.948 1965.83 913.808 1965.83 912.289C1965.83 910.769 1966.98 909.63 1968.5 909.63C1969.9 909.63 1971.17 910.769 1971.17 912.289Z" fill="white"/>
<path d="M1993.91 912.289C1993.91 913.808 1992.76 914.948 1991.24 914.948C1989.72 914.948 1988.57 913.808 1988.57 912.289C1988.57 910.769 1989.72 909.63 1991.24 909.63C1992.76 909.63 1993.91 910.769 1993.91 912.289Z" fill="white"/>
<path d="M2016.52 912.289C2016.52 913.808 2015.38 914.948 2013.85 914.948C2012.33 914.948 2011.18 913.808 2011.18 912.289C2011.18 910.769 2012.33 909.63 2013.85 909.63C2015.38 909.63 2016.52 910.769 2016.52 912.289Z" fill="white"/>
<path d="M2039.26 912.289C2039.26 913.808 2038.12 914.948 2036.59 914.948C2035.07 914.948 2033.92 913.808 2033.92 912.289C2033.92 910.769 2035.07 909.63 2036.59 909.63C2038.12 909.63 2039.26 910.769 2039.26 912.289Z" fill="white"/>
<path d="M2062 912.289C2062 913.808 2060.86 914.948 2059.33 914.948C2057.81 914.948 2056.66 913.808 2056.66 912.289C2056.66 910.769 2057.81 909.63 2059.33 909.63C2060.73 909.63 2062 910.769 2062 912.289Z" fill="white"/>
<path d="M1880.34 931.028C1880.34 932.548 1879.19 933.687 1877.67 933.687C1876.14 933.687 1875 932.548 1875 931.028C1875 929.509 1876.14 928.369 1877.67 928.369C1879.19 928.369 1880.34 929.635 1880.34 931.028Z" fill="white"/>
<path d="M1903.08 931.028C1903.08 932.548 1901.93 933.687 1900.41 933.687C1898.88 933.687 1897.74 932.548 1897.74 931.028C1897.74 929.509 1898.88 928.369 1900.41 928.369C1901.81 928.369 1903.08 929.635 1903.08 931.028Z" fill="white"/>
<path d="M1925.69 931.028C1925.69 932.548 1924.54 933.687 1923.02 933.687C1921.5 933.687 1920.35 932.548 1920.35 931.028C1920.35 929.509 1921.5 928.369 1923.02 928.369C1924.54 928.369 1925.69 929.635 1925.69 931.028Z" fill="white"/>
<path d="M1948.43 931.028C1948.43 932.548 1947.28 933.687 1945.76 933.687C1944.24 933.687 1943.09 932.548 1943.09 931.028C1943.09 929.509 1944.24 928.369 1945.76 928.369C1947.28 928.369 1948.43 929.635 1948.43 931.028Z" fill="white"/>
<path d="M1971.17 931.028C1971.17 932.548 1970.02 933.687 1968.5 933.687C1966.98 933.687 1965.83 932.548 1965.83 931.028C1965.83 929.509 1966.98 928.369 1968.5 928.369C1969.9 928.369 1971.17 929.635 1971.17 931.028Z" fill="white"/>
<path d="M1993.91 931.028C1993.91 932.548 1992.76 933.687 1991.24 933.687C1989.72 933.687 1988.57 932.548 1988.57 931.028C1988.57 929.509 1989.72 928.369 1991.24 928.369C1992.76 928.369 1993.91 929.635 1993.91 931.028Z" fill="white"/>
<path d="M2016.52 931.028C2016.52 932.548 2015.38 933.687 2013.85 933.687C2012.33 933.687 2011.18 932.548 2011.18 931.028C2011.18 929.509 2012.33 928.369 2013.85 928.369C2015.38 928.369 2016.52 929.635 2016.52 931.028Z" fill="white"/>
<path d="M2039.26 931.028C2039.26 932.548 2038.12 933.687 2036.59 933.687C2035.07 933.687 2033.92 932.548 2033.92 931.028C2033.92 929.509 2035.07 928.369 2036.59 928.369C2038.12 928.369 2039.26 929.635 2039.26 931.028Z" fill="white"/>
<path d="M2062 931.028C2062 932.548 2060.86 933.687 2059.33 933.687C2057.81 933.687 2056.66 932.548 2056.66 931.028C2056.66 929.509 2057.81 928.369 2059.33 928.369C2060.73 928.369 2062 929.635 2062 931.028Z" fill="white"/>
</g>
<g opacity="0.3">
<path d="M1873.81 122.909L1883.47 132.567L1857.78 158.251L1832.1 132.567L1841.68 122.982L1857.71 139.007L1873.81 122.909Z" fill="white"/>
<path d="M1873.81 88.2261L1883.39 97.8116L1857.71 123.495L1832.1 97.8848L1841.76 88.2261L1857.78 104.251L1873.81 88.2261Z" fill="white"/>
<path d="M1873.73 53.4691L1883.39 63.1279L1857.78 88.7381L1832.1 63.0547L1841.68 53.4691L1857.71 69.4938L1873.73 53.4691Z" fill="white"/>
<path d="M1873.81 18.7114L1883.46 28.3701L1857.78 54.0535L1832.1 28.3701L1841.76 18.7114L1857.78 34.7361L1873.81 18.7114Z" fill="white"/>
</g>
<path opacity="0.3" d="M906 856.24C892.071 870.17 869.377 870.17 855.447 856.24C841.518 842.311 841.518 819.617 855.447 805.688L906 856.24Z" fill="white"/>
<g opacity="0.3">
<path d="M960.486 577.578C971.205 577.578 979.937 568.852 979.937 558.141C979.937 547.43 971.205 538.704 960.486 538.704L960.486 577.578Z" fill="white"/>
<path d="M930.141 577.578C940.861 577.578 949.592 568.852 949.592 558.141C949.592 547.43 940.861 538.704 930.141 538.704L930.141 577.578Z" fill="white"/>
<path d="M899.797 577.578C910.516 577.578 919.248 568.852 919.248 558.141C919.248 547.43 910.516 538.704 899.797 538.704V577.578Z" fill="white"/>
</g>
<g opacity="0.3">
<path d="M258.301 192.609L258.301 180.688L290 180.688L290 212.387L278.169 212.387L278.169 192.609L258.301 192.609Z" fill="white"/>
<path d="M236.899 214.012L236.899 202.182L268.598 202.182L268.598 233.79L256.677 233.79L256.677 214.012L236.899 214.012Z" fill="white"/>
<path d="M215.495 235.506L215.495 223.585L247.104 223.585L247.104 255.284L235.273 255.284L235.273 235.506L215.495 235.506Z" fill="white"/>
<path d="M194.002 256.91L194.002 244.989L225.7 244.989L225.7 276.688L213.779 276.688L213.779 256.91L194.002 256.91Z" fill="white"/>
</g>
<defs>
<clipPath id="clip0_2502_325">
<rect width="284" height="284" fill="white" transform="translate(0 943.688)"/>
</clipPath>
<clipPath id="clip1_2502_325">
<rect width="187" height="137" fill="white" transform="translate(1875 796.688)"/>
</clipPath>
</defs>
</svg>
