<svg width="767" height="552" viewBox="0 0 767 552" fill="none" xmlns="http://www.w3.org/2000/svg">
<g clip-path="url(#clip0_2234_8802)">
<g opacity="0.8" clip-path="url(#clip1_2234_8802)">
<path d="M615.336 261.264C615.336 262.784 614.192 263.923 612.668 263.923C611.143 263.923 610 262.784 610 261.264C610 259.745 611.143 258.605 612.668 258.605C614.192 258.605 615.336 259.872 615.336 261.264Z" fill="white"/>
<path d="M638.075 261.264C638.075 262.784 636.932 263.923 635.408 263.923C633.883 263.923 632.74 262.784 632.74 261.264C632.74 259.745 633.883 258.605 635.408 258.605C636.805 258.605 638.075 259.872 638.075 261.264Z" fill="white"/>
<path d="M660.688 261.264C660.688 262.784 659.545 263.923 658.02 263.923C656.496 263.923 655.353 262.784 655.353 261.264C655.353 259.745 656.496 258.605 658.02 258.605C659.545 258.605 660.688 259.872 660.688 261.264Z" fill="white"/>
<path d="M683.428 261.264C683.428 262.784 682.285 263.923 680.76 263.923C679.236 263.923 678.092 262.784 678.092 261.264C678.092 259.745 679.236 258.605 680.76 258.605C682.285 258.605 683.428 259.872 683.428 261.264Z" fill="white"/>
<path d="M706.168 261.264C706.168 262.784 705.024 263.923 703.5 263.923C701.975 263.923 700.832 262.784 700.832 261.264C700.832 259.745 701.975 258.605 703.5 258.605C704.897 258.605 706.168 259.872 706.168 261.264Z" fill="white"/>
<path d="M728.908 261.264C728.908 262.784 727.765 263.923 726.24 263.923C724.716 263.923 723.572 262.784 723.572 261.264C723.572 259.745 724.716 258.605 726.24 258.605C727.765 258.605 728.908 259.872 728.908 261.264Z" fill="white"/>
<path d="M751.52 261.264C751.52 262.784 750.377 263.923 748.852 263.923C747.328 263.923 746.185 262.784 746.185 261.264C746.185 259.745 747.328 258.605 748.852 258.605C750.377 258.605 751.52 259.872 751.52 261.264Z" fill="white"/>
<path d="M615.336 280.131C615.336 281.65 614.192 282.79 612.668 282.79C611.143 282.79 610 281.65 610 280.131C610 278.611 611.143 277.472 612.668 277.472C614.192 277.472 615.336 278.611 615.336 280.131Z" fill="white"/>
<path d="M638.075 280.131C638.075 281.65 636.932 282.79 635.408 282.79C633.883 282.79 632.74 281.65 632.74 280.131C632.74 278.611 633.883 277.472 635.408 277.472C636.805 277.472 638.075 278.611 638.075 280.131Z" fill="white"/>
<path d="M660.688 280.131C660.688 281.65 659.545 282.79 658.02 282.79C656.496 282.79 655.353 281.65 655.353 280.131C655.353 278.611 656.496 277.472 658.02 277.472C659.545 277.472 660.688 278.611 660.688 280.131Z" fill="white"/>
<path d="M683.428 280.131C683.428 281.65 682.285 282.79 680.76 282.79C679.236 282.79 678.092 281.65 678.092 280.131C678.092 278.611 679.236 277.472 680.76 277.472C682.285 277.472 683.428 278.611 683.428 280.131Z" fill="white"/>
<path d="M706.168 280.131C706.168 281.65 705.024 282.79 703.5 282.79C701.975 282.79 700.832 281.65 700.832 280.131C700.832 278.611 701.975 277.472 703.5 277.472C704.897 277.472 706.168 278.611 706.168 280.131Z" fill="white"/>
<path d="M728.908 280.131C728.908 281.65 727.765 282.79 726.24 282.79C724.716 282.79 723.572 281.65 723.572 280.131C723.572 278.611 724.716 277.472 726.24 277.472C727.765 277.472 728.908 278.611 728.908 280.131Z" fill="white"/>
<path d="M751.52 280.131C751.52 281.65 750.377 282.79 748.852 282.79C747.328 282.79 746.185 281.65 746.185 280.131C746.185 278.611 747.328 277.472 748.852 277.472C750.377 277.472 751.52 278.611 751.52 280.131Z" fill="white"/>
<path d="M615.336 223.659C615.336 225.178 614.192 226.318 612.668 226.318C611.143 226.318 610 225.178 610 223.659C610 222.14 611.143 221 612.668 221C614.192 221 615.336 222.14 615.336 223.659Z" fill="white"/>
<path d="M638.075 223.659C638.075 225.178 636.932 226.318 635.408 226.318C633.883 226.318 632.74 225.178 632.74 223.659C632.74 222.14 633.883 221 635.408 221C636.805 221 638.075 222.14 638.075 223.659Z" fill="white"/>
<path d="M660.688 223.659C660.688 225.178 659.545 226.318 658.02 226.318C656.496 226.318 655.353 225.178 655.353 223.659C655.353 222.14 656.623 221 658.02 221C659.545 221 660.688 222.14 660.688 223.659Z" fill="white"/>
<path d="M683.428 223.659C683.428 225.178 682.285 226.318 680.76 226.318C679.236 226.318 678.092 225.178 678.092 223.659C678.092 222.14 679.363 221 680.76 221C682.158 221 683.428 222.14 683.428 223.659Z" fill="white"/>
<path d="M706.168 223.659C706.168 225.178 705.024 226.318 703.5 226.318C701.975 226.318 700.832 225.178 700.832 223.659C700.832 222.14 701.975 221 703.5 221C704.897 221 706.168 222.14 706.168 223.659Z" fill="white"/>
<path d="M728.908 223.659C728.908 225.178 727.765 226.318 726.24 226.318C724.716 226.318 723.572 225.178 723.572 223.659C723.572 222.14 724.716 221 726.24 221C727.765 221 728.908 222.14 728.908 223.659Z" fill="white"/>
<path d="M751.52 223.659C751.52 225.178 750.377 226.318 748.852 226.318C747.328 226.318 746.185 225.178 746.185 223.659C746.185 222.14 747.328 221 748.852 221C750.377 221 751.52 222.14 751.52 223.659Z" fill="white"/>
<path d="M615.336 242.525C615.336 244.045 614.192 245.184 612.668 245.184C611.143 245.184 610 243.918 610 242.525C610 241.006 611.143 239.866 612.668 239.866C614.192 239.866 615.336 241.006 615.336 242.525Z" fill="white"/>
<path d="M638.075 242.525C638.075 244.045 636.932 245.184 635.408 245.184C633.883 245.184 632.74 244.045 632.74 242.525C632.74 241.006 633.883 239.866 635.408 239.866C636.805 239.866 638.075 241.006 638.075 242.525Z" fill="white"/>
<path d="M660.688 242.525C660.688 244.045 659.545 245.184 658.02 245.184C656.496 245.184 655.353 244.045 655.353 242.525C655.353 241.006 656.496 239.866 658.02 239.866C659.545 239.866 660.688 241.006 660.688 242.525Z" fill="white"/>
<path d="M683.428 242.525C683.428 244.045 682.285 245.184 680.76 245.184C679.236 245.184 678.092 244.045 678.092 242.525C678.092 241.006 679.236 239.866 680.76 239.866C682.285 239.866 683.428 241.006 683.428 242.525Z" fill="white"/>
<path d="M706.168 242.525C706.168 244.045 705.024 245.184 703.5 245.184C701.975 245.184 700.832 244.045 700.832 242.525C700.832 241.006 701.975 239.866 703.5 239.866C704.897 239.866 706.168 241.006 706.168 242.525Z" fill="white"/>
<path d="M728.908 242.525C728.908 244.045 727.765 245.184 726.24 245.184C724.716 245.184 723.572 244.045 723.572 242.525C723.572 241.006 724.716 239.866 726.24 239.866C727.765 239.866 728.908 241.006 728.908 242.525Z" fill="white"/>
<path d="M751.52 242.525C751.52 244.045 750.377 245.184 748.852 245.184C747.328 245.184 746.185 244.045 746.185 242.525C746.185 241.006 747.328 239.866 748.852 239.866C750.377 239.866 751.52 241.006 751.52 242.525Z" fill="white"/>
<path d="M615.336 298.87C615.336 300.389 614.192 301.529 612.668 301.529C611.143 301.529 610 300.389 610 298.87C610 297.35 611.143 296.211 612.668 296.211C614.192 296.211 615.336 297.477 615.336 298.87Z" fill="white"/>
<path d="M638.075 298.87C638.075 300.389 636.932 301.529 635.408 301.529C633.883 301.529 632.74 300.389 632.74 298.87C632.74 297.35 633.883 296.211 635.408 296.211C636.805 296.211 638.075 297.477 638.075 298.87Z" fill="white"/>
<path d="M660.688 298.87C660.688 300.389 659.545 301.529 658.02 301.529C656.496 301.529 655.353 300.389 655.353 298.87C655.353 297.35 656.496 296.211 658.02 296.211C659.545 296.211 660.688 297.477 660.688 298.87Z" fill="white"/>
<path d="M683.428 298.87C683.428 300.389 682.285 301.529 680.76 301.529C679.236 301.529 678.092 300.389 678.092 298.87C678.092 297.35 679.236 296.211 680.76 296.211C682.285 296.211 683.428 297.477 683.428 298.87Z" fill="white"/>
<path d="M706.168 298.87C706.168 300.389 705.024 301.529 703.5 301.529C701.975 301.529 700.832 300.389 700.832 298.87C700.832 297.35 701.975 296.211 703.5 296.211C704.897 296.211 706.168 297.477 706.168 298.87Z" fill="white"/>
<path d="M728.908 298.87C728.908 300.389 727.765 301.529 726.24 301.529C724.716 301.529 723.572 300.389 723.572 298.87C723.572 297.35 724.716 296.211 726.24 296.211C727.765 296.211 728.908 297.477 728.908 298.87Z" fill="white"/>
<path d="M751.52 298.87C751.52 300.389 750.377 301.529 748.852 301.529C747.328 301.529 746.185 300.389 746.185 298.87C746.185 297.35 747.328 296.211 748.852 296.211C750.377 296.211 751.52 297.477 751.52 298.87Z" fill="white"/>
<path d="M615.336 317.736C615.336 319.256 614.192 320.395 612.668 320.395C611.143 320.395 610 319.256 610 317.736C610 316.217 611.143 315.077 612.668 315.077C614.192 315.077 615.336 316.217 615.336 317.736Z" fill="white"/>
<path d="M638.075 317.736C638.075 319.256 636.932 320.395 635.408 320.395C633.883 320.395 632.74 319.256 632.74 317.736C632.74 316.217 633.883 315.077 635.408 315.077C636.805 315.077 638.075 316.217 638.075 317.736Z" fill="white"/>
<path d="M660.688 317.736C660.688 319.256 659.545 320.395 658.02 320.395C656.496 320.395 655.353 319.256 655.353 317.736C655.353 316.217 656.496 315.077 658.02 315.077C659.545 315.077 660.688 316.217 660.688 317.736Z" fill="white"/>
<path d="M680.76 320.395C682.233 320.395 683.428 319.205 683.428 317.736C683.428 316.268 682.233 315.077 680.76 315.077C679.287 315.077 678.092 316.268 678.092 317.736C678.092 319.205 679.287 320.395 680.76 320.395Z" fill="white"/>
<path d="M706.168 317.736C706.168 319.256 705.024 320.395 703.5 320.395C701.975 320.395 700.832 319.256 700.832 317.736C700.832 316.217 701.975 315.077 703.5 315.077C704.897 315.077 706.168 316.217 706.168 317.736Z" fill="white"/>
<path d="M728.908 317.736C728.908 319.256 727.765 320.395 726.24 320.395C724.716 320.395 723.572 319.256 723.572 317.736C723.572 316.217 724.716 315.077 726.24 315.077C727.765 315.077 728.908 316.217 728.908 317.736Z" fill="white"/>
<path d="M751.52 317.736C751.52 319.256 750.377 320.395 748.852 320.395C747.328 320.395 746.185 319.256 746.185 317.736C746.185 316.217 747.328 315.077 748.852 315.077C750.377 315.077 751.52 316.217 751.52 317.736Z" fill="white"/>
<path d="M615.336 336.601C615.336 338.121 614.192 339.26 612.668 339.26C611.143 339.26 610 338.121 610 336.601C610 335.082 611.143 333.942 612.668 333.942C614.192 333.942 615.336 335.082 615.336 336.601Z" fill="white"/>
<path d="M638.075 336.601C638.075 338.121 636.932 339.26 635.408 339.26C633.883 339.26 632.74 338.121 632.74 336.601C632.74 335.082 633.883 333.942 635.408 333.942C636.805 333.942 638.075 335.082 638.075 336.601Z" fill="white"/>
<path d="M660.688 336.601C660.688 338.121 659.545 339.26 658.02 339.26C656.496 339.26 655.353 338.121 655.353 336.601C655.353 335.082 656.496 333.942 658.02 333.942C659.545 333.942 660.688 335.082 660.688 336.601Z" fill="white"/>
<path d="M683.428 336.601C683.428 338.121 682.285 339.26 680.76 339.26C679.236 339.26 678.092 338.121 678.092 336.601C678.092 335.082 679.236 333.942 680.76 333.942C682.285 333.942 683.428 335.082 683.428 336.601Z" fill="white"/>
<path d="M706.168 336.601C706.168 338.121 705.024 339.26 703.5 339.26C701.975 339.26 700.832 338.121 700.832 336.601C700.832 335.082 701.975 333.942 703.5 333.942C704.897 333.942 706.168 335.082 706.168 336.601Z" fill="white"/>
<path d="M728.908 336.601C728.908 338.121 727.765 339.26 726.24 339.26C724.716 339.26 723.572 338.121 723.572 336.601C723.572 335.082 724.716 333.942 726.24 333.942C727.765 333.942 728.908 335.082 728.908 336.601Z" fill="white"/>
<path d="M751.52 336.601C751.52 338.121 750.377 339.26 748.852 339.26C747.328 339.26 746.185 338.121 746.185 336.601C746.185 335.082 747.328 333.942 748.852 333.942C750.377 333.942 751.52 335.082 751.52 336.601Z" fill="white"/>
<path d="M615.336 355.341C615.336 356.86 614.192 358 612.668 358C611.143 358 610 356.86 610 355.341C610 353.821 611.143 352.682 612.668 352.682C614.192 352.682 615.336 353.948 615.336 355.341Z" fill="white"/>
<path d="M638.075 355.341C638.075 356.86 636.932 358 635.408 358C633.883 358 632.74 356.86 632.74 355.341C632.74 353.821 633.883 352.682 635.408 352.682C636.805 352.682 638.075 353.948 638.075 355.341Z" fill="white"/>
<path d="M660.688 355.341C660.688 356.86 659.545 358 658.02 358C656.496 358 655.353 356.86 655.353 355.341C655.353 353.821 656.496 352.682 658.02 352.682C659.545 352.682 660.688 353.948 660.688 355.341Z" fill="white"/>
<path d="M683.428 355.341C683.428 356.86 682.285 358 680.76 358C679.236 358 678.092 356.86 678.092 355.341C678.092 353.821 679.236 352.682 680.76 352.682C682.285 352.682 683.428 353.948 683.428 355.341Z" fill="white"/>
<path d="M706.168 355.341C706.168 356.86 705.024 358 703.5 358C701.975 358 700.832 356.86 700.832 355.341C700.832 353.821 701.975 352.682 703.5 352.682C704.897 352.682 706.168 353.948 706.168 355.341Z" fill="white"/>
<path d="M728.908 355.341C728.908 356.86 727.765 358 726.24 358C724.716 358 723.572 356.86 723.572 355.341C723.572 353.821 724.716 352.682 726.24 352.682C727.765 352.682 728.908 353.948 728.908 355.341Z" fill="white"/>
<path d="M751.52 355.341C751.52 356.86 750.377 358 748.852 358C747.328 358 746.185 356.86 746.185 355.341C746.185 353.821 747.328 352.682 748.852 352.682C750.377 352.682 751.52 353.948 751.52 355.341Z" fill="white"/>
</g>
<path opacity="0.3" d="M450 280.553C436.071 294.482 413.377 294.482 399.447 280.553C385.518 266.623 385.518 243.929 399.447 230L450 280.553Z" fill="white"/>
<g opacity="0.3">
<path d="M504.486 1.89015C515.205 1.89015 523.937 -6.83531 523.937 -17.5466C523.937 -28.2578 515.205 -36.9833 504.486 -36.9833L504.486 1.89015Z" fill="white"/>
<path d="M474.141 1.89015C484.861 1.89015 493.592 -6.83531 493.592 -17.5466C493.592 -28.2578 484.861 -36.9833 474.141 -36.9833L474.141 1.89015Z" fill="white"/>
<path d="M443.796 1.89015C454.515 1.89015 463.247 -6.83531 463.247 -17.5466C463.247 -28.2578 454.515 -36.9833 443.796 -36.9833V1.89015Z" fill="white"/>
</g>
</g>
<defs>
<clipPath id="clip0_2234_8802">
<rect width="1111" height="1080" fill="white" transform="translate(-344 -528)"/>
</clipPath>
<clipPath id="clip1_2234_8802">
<rect width="187" height="137" fill="white" transform="translate(610 221)"/>
</clipPath>
</defs>
</svg>
