<?xml version="1.0"?>
<svg width="72" height="73" xmlns="http://www.w3.org/2000/svg" xmlns:svg="http://www.w3.org/2000/svg">
 <g class="layer">
  <title>Layer 1</title>
  <circle cx="36" cy="36.5" fill="#bd6f71" id="svg_1" r="36" transform="matrix(1 0 0 1 0 0)"/>
  <path d="m27.16,57.52c-1.16,0 -2.15,-0.4 -2.96,-1.22c-0.82,-0.81 -1.22,-1.8 -1.22,-2.96l0,-32.8c0,-1.15 0.4,-2.14 1.22,-2.95c0.81,-0.82 1.8,-1.22 2.96,-1.22l18.57,0c1.16,0 2.15,0.4 2.96,1.22c0.81,0.81 1.22,1.8 1.22,2.95l0,32.8c0,1.16 -0.41,2.15 -1.22,2.96c-0.81,0.82 -1.8,1.22 -2.96,1.22l-18.57,0zm0,-8.18l18.57,0l0,-24.8l-18.57,0l0,24.8z" fill="white" id="svg_2"/>
 </g>
</svg>