<svg width="136" height="136" viewBox="0 0 136 136" fill="none" xmlns="http://www.w3.org/2000/svg">
<g filter="url(#filter0_f_130_1718)">
<rect x="12.5" y="12.5" width="111" height="111" stroke="url(#paint0_linear_130_1718)"/>
</g>
<g filter="url(#filter1_f_130_1718)">
<rect x="12.5" y="12.5" width="111" height="111" stroke="url(#paint1_linear_130_1718)"/>
</g>
<rect x="12.25" y="12.25" width="111.5" height="111.5" stroke="url(#paint2_linear_130_1718)" stroke-width="0.5"/>
<rect x="20" y="20" width="96" height="96" fill="url(#paint3_linear_130_1718)" fill-opacity="0.32"/>
<path d="M63.581 76.346L63.578 76.337L63.008 76.151C60.2971 75.1928 57.9187 73.4757 56.156 71.204C54.7307 69.3686 53.7513 67.227 53.2951 64.9483C52.8389 62.6696 52.9185 60.3161 53.5274 58.0734C54.1363 55.8307 55.258 53.7602 56.804 52.0251C58.35 50.29 60.278 48.9379 62.4359 48.0754C64.5938 47.2128 66.9226 46.8635 69.2386 47.0549C71.5547 47.2463 73.7945 47.9732 75.7816 49.1782C77.7686 50.3833 79.4485 52.0336 80.6887 53.9989C81.9289 55.9642 82.6955 58.1908 82.928 60.503C83.009 61.328 82.328 62 81.5 62C80.672 62 80.009 61.325 79.91 60.503C79.6423 58.3815 78.8125 56.3701 77.5066 54.6769C76.2006 52.9836 74.466 51.6701 72.4821 50.8722C70.4982 50.0743 68.3371 49.8211 66.2225 50.1386C64.1078 50.4561 62.1165 51.333 60.4544 52.6783C58.7924 54.0237 57.52 55.7888 56.7689 57.7909C56.0179 59.793 55.8155 61.9594 56.1827 64.066C56.5498 66.1725 57.4732 68.1428 58.8573 69.7727C60.2413 71.4027 62.0358 72.6333 64.055 73.337C64.5643 72.4081 65.3851 71.6886 66.3727 71.3053C67.3604 70.922 68.4516 70.8994 69.4543 71.2416C70.4569 71.5838 71.3067 72.2688 71.854 73.1759C72.4012 74.083 72.6109 75.1541 72.446 76.2007C72.2812 77.2472 71.7524 78.202 70.9527 78.8969C70.1531 79.5919 69.1339 79.9825 68.0746 79.9998C67.0153 80.0172 65.9839 79.6603 65.1619 78.9919C64.3399 78.3235 63.7801 77.3866 63.581 76.346ZM61.202 78.671C58.2638 77.4715 55.695 75.5164 53.756 73.004C53.2631 73.7432 53.0001 74.6116 53 75.5V77C53 82.913 58.58 89 68 89C77.42 89 83 82.913 83 77V75.5C83 74.3065 82.5259 73.162 81.682 72.318C80.8381 71.4741 79.6935 71 78.5 71H74C74.6292 71.8403 75.075 72.8034 75.3085 73.8269C75.5421 74.8504 75.5581 75.9115 75.3557 76.9416C75.1533 77.9717 74.7368 78.9478 74.1333 79.8068C73.5298 80.6658 72.7527 81.3885 71.8523 81.9282C70.9519 82.468 69.9482 82.8126 68.9061 82.9399C67.8641 83.0673 66.8069 82.9744 65.803 82.6674C64.7991 82.3604 63.8709 81.846 63.0783 81.1576C62.2857 80.4692 61.6465 79.6221 61.202 78.671ZM77 62C77 59.258 75.773 56.801 73.838 55.151C72.8932 54.3508 71.7935 53.7541 70.6076 53.3982C69.4217 53.0424 68.1751 52.935 66.9458 53.083C65.7165 53.2309 64.531 53.6308 63.4634 54.2578C62.3957 54.8848 61.4689 55.7254 60.7409 56.7269C60.013 57.7285 59.4995 58.8694 59.2326 60.0785C58.9657 61.2875 58.9511 62.5386 59.1898 63.7535C59.4285 64.9684 59.9153 66.1211 60.6198 67.1393C61.3242 68.1575 62.2312 69.0193 63.284 69.671C64.618 68.5896 66.2827 67.9986 68 67.997C69.7166 67.9969 71.3812 68.5857 72.716 69.665C74.0252 68.8596 75.1063 67.7322 75.8562 66.3904C76.6062 65.0486 76.9999 63.5371 77 62Z" fill="#F1F1F1"/>
<defs>
<filter id="filter0_f_130_1718" x="0" y="0" width="136" height="136" filterUnits="userSpaceOnUse" color-interpolation-filters="sRGB">
<feFlood flood-opacity="0" result="BackgroundImageFix"/>
<feBlend mode="normal" in="SourceGraphic" in2="BackgroundImageFix" result="shape"/>
<feGaussianBlur stdDeviation="6" result="effect1_foregroundBlur_130_1718"/>
</filter>
<filter id="filter1_f_130_1718" x="0" y="0" width="136" height="136" filterUnits="userSpaceOnUse" color-interpolation-filters="sRGB">
<feFlood flood-opacity="0" result="BackgroundImageFix"/>
<feBlend mode="normal" in="SourceGraphic" in2="BackgroundImageFix" result="shape"/>
<feGaussianBlur stdDeviation="6" result="effect1_foregroundBlur_130_1718"/>
</filter>
<linearGradient id="paint0_linear_130_1718" x1="14.5" y1="16" x2="126.533" y2="146.133" gradientUnits="userSpaceOnUse">
<stop stop-color="#FF1DFD"/>
<stop offset="0.507534" stop-color="#24A1DD"/>
<stop offset="0.641714" stop-color="#24A1DD"/>
</linearGradient>
<linearGradient id="paint1_linear_130_1718" x1="14.5" y1="16" x2="126.533" y2="146.133" gradientUnits="userSpaceOnUse">
<stop stop-color="#FF1DFD"/>
<stop offset="0.507534" stop-color="#24A1DD"/>
<stop offset="0.641714" stop-color="#24A1DD"/>
</linearGradient>
<linearGradient id="paint2_linear_130_1718" x1="14.5" y1="16" x2="126.533" y2="146.133" gradientUnits="userSpaceOnUse">
<stop stop-color="#FF1DFD"/>
<stop offset="0.507534" stop-color="#24A1DD"/>
<stop offset="0.641714" stop-color="#24A1DD"/>
</linearGradient>
<linearGradient id="paint3_linear_130_1718" x1="9" y1="20" x2="130" y2="110.5" gradientUnits="userSpaceOnUse">
<stop stop-color="#FF1DFD"/>
<stop offset="1" stop-color="#24A1DD"/>
</linearGradient>
</defs>
</svg>
