<svg width="136" height="136" viewBox="0 0 136 136" fill="none" xmlns="http://www.w3.org/2000/svg">
<g filter="url(#filter0_f_130_1828)">
<rect x="12.5" y="12.5" width="111" height="111" stroke="url(#paint0_linear_130_1828)"/>
</g>
<g filter="url(#filter1_f_130_1828)">
<rect x="12.5" y="12.5" width="111" height="111" stroke="url(#paint1_linear_130_1828)"/>
</g>
<rect x="12.25" y="12.25" width="111.5" height="111.5" stroke="url(#paint2_linear_130_1828)" stroke-width="0.5"/>
<rect x="20" y="20" width="96" height="96" fill="url(#paint3_linear_130_1828)" fill-opacity="0.32"/>
<path d="M63.128 61.46L64.158 65.186C65.128 68.696 65.612 70.452 67.038 71.25C68.464 72.05 70.274 71.578 73.894 70.638L77.734 69.638C81.354 68.698 83.164 68.228 83.988 66.846C84.812 65.462 84.328 63.706 83.356 60.196L82.328 56.472C81.358 52.96 80.872 51.204 79.448 50.406C78.02 49.606 76.21 50.078 72.59 51.02L68.75 52.016C65.13 52.956 63.32 53.428 62.498 54.812C61.674 56.194 62.158 57.95 63.128 61.46Z" fill="#F1F1F1"/>
<path d="M48.554 54.4941C48.6067 54.3041 48.6963 54.1264 48.8177 53.9711C48.9392 53.8158 49.09 53.686 49.2616 53.589C49.4332 53.4921 49.6223 53.4299 49.818 53.406C50.0137 53.3822 50.2121 53.3971 50.402 53.4501L53.808 54.3941C54.7104 54.6397 55.5339 55.1148 56.1984 55.7729C56.8629 56.4311 57.3457 57.25 57.6 58.1501L61.902 73.7221L62.218 74.8161C63.4935 75.2862 64.5684 76.1809 65.262 77.3501L65.882 77.1581L83.622 72.5481C83.8127 72.4984 84.0113 72.4868 84.2064 72.5139C84.4016 72.541 84.5895 72.6063 84.7594 72.706C84.9294 72.8058 85.078 72.938 85.1968 73.0952C85.3157 73.2523 85.4024 73.4314 85.452 73.6221C85.5017 73.8127 85.5132 74.0113 85.4861 74.2065C85.459 74.4016 85.3937 74.5896 85.294 74.7595C85.1943 74.9294 85.0621 75.078 84.9049 75.1969C84.7477 75.3157 84.5687 75.4024 84.378 75.4521L66.704 80.0441L66.044 80.2481C66.032 82.7881 64.278 85.1121 61.624 85.8001C58.444 86.6281 55.174 84.7961 54.322 81.7121C53.47 78.6281 55.358 75.4541 58.538 74.6281C58.6967 74.5881 58.8547 74.5534 59.012 74.5241L54.708 58.9481C54.5916 58.5482 54.374 58.1851 54.0762 57.8939C53.7784 57.6027 53.4104 57.3934 53.008 57.2861L49.6 56.3401C49.4101 56.2876 49.2324 56.1982 49.077 56.077C48.9217 55.9558 48.7917 55.8052 48.6946 55.6337C48.5974 55.4623 48.535 55.2734 48.5109 55.0779C48.4868 54.8823 48.5014 54.6839 48.554 54.4941Z" fill="#F1F1F1"/>
<defs>
<filter id="filter0_f_130_1828" x="0" y="0" width="136" height="136" filterUnits="userSpaceOnUse" color-interpolation-filters="sRGB">
<feFlood flood-opacity="0" result="BackgroundImageFix"/>
<feBlend mode="normal" in="SourceGraphic" in2="BackgroundImageFix" result="shape"/>
<feGaussianBlur stdDeviation="6" result="effect1_foregroundBlur_130_1828"/>
</filter>
<filter id="filter1_f_130_1828" x="0" y="0" width="136" height="136" filterUnits="userSpaceOnUse" color-interpolation-filters="sRGB">
<feFlood flood-opacity="0" result="BackgroundImageFix"/>
<feBlend mode="normal" in="SourceGraphic" in2="BackgroundImageFix" result="shape"/>
<feGaussianBlur stdDeviation="6" result="effect1_foregroundBlur_130_1828"/>
</filter>
<linearGradient id="paint0_linear_130_1828" x1="14.5" y1="16" x2="126.533" y2="146.133" gradientUnits="userSpaceOnUse">
<stop stop-color="#FF1DFD"/>
<stop offset="0.507534" stop-color="#24A1DD"/>
<stop offset="0.641714" stop-color="#24A1DD"/>
</linearGradient>
<linearGradient id="paint1_linear_130_1828" x1="14.5" y1="16" x2="126.533" y2="146.133" gradientUnits="userSpaceOnUse">
<stop stop-color="#FF1DFD"/>
<stop offset="0.507534" stop-color="#24A1DD"/>
<stop offset="0.641714" stop-color="#24A1DD"/>
</linearGradient>
<linearGradient id="paint2_linear_130_1828" x1="14.5" y1="16" x2="126.533" y2="146.133" gradientUnits="userSpaceOnUse">
<stop stop-color="#FF1DFD"/>
<stop offset="0.507534" stop-color="#24A1DD"/>
<stop offset="0.641714" stop-color="#24A1DD"/>
</linearGradient>
<linearGradient id="paint3_linear_130_1828" x1="9" y1="20" x2="130" y2="110.5" gradientUnits="userSpaceOnUse">
<stop stop-color="#FF1DFD"/>
<stop offset="1" stop-color="#24A1DD"/>
</linearGradient>
</defs>
</svg>
