<svg width="136" height="136" viewBox="0 0 136 136" fill="none" xmlns="http://www.w3.org/2000/svg">
<g filter="url(#filter0_f_130_1856)">
<rect x="12.5" y="12.5" width="111" height="111" stroke="url(#paint0_linear_130_1856)"/>
</g>
<g filter="url(#filter1_f_130_1856)">
<rect x="12.5" y="12.5" width="111" height="111" stroke="url(#paint1_linear_130_1856)"/>
</g>
<rect x="12.25" y="12.25" width="111.5" height="111.5" stroke="url(#paint2_linear_130_1856)" stroke-width="0.5"/>
<rect x="20" y="20" width="96" height="96" fill="url(#paint3_linear_130_1856)" fill-opacity="0.32"/>
<path fill-rule="evenodd" clip-rule="evenodd" d="M73.712 75.3719L73.512 75.8719C69.9345 77.0668 66.0655 77.0668 62.488 75.8719L62.288 75.3719C62.098 74.9119 62.002 74.6799 61.836 74.4679C61.672 74.2539 61.384 74.0379 60.808 73.6079C58.7912 72.098 57.3008 69.9915 56.5481 67.5871C55.7954 65.1827 55.8185 62.6024 56.6142 60.212C57.4099 57.8215 58.9379 55.7421 60.9814 54.2685C63.025 52.7949 65.4806 52.002 68 52.002C70.5194 52.002 72.975 52.7949 75.0186 54.2685C77.0621 55.7421 78.5901 57.8215 79.3858 60.212C80.1815 62.6024 80.2046 65.1827 79.4519 67.5871C78.6992 69.9915 77.2088 72.098 75.192 73.6079C74.616 74.0379 74.328 74.2539 74.164 74.4679C74 74.6819 73.904 74.9099 73.712 75.3719ZM63.7 80.3319C63.8733 81.3879 63.972 82.4533 63.996 83.5279C63.998 83.6699 64.0388 83.8087 64.1138 83.9292C64.1889 84.0498 64.2955 84.1475 64.422 84.2119C65.5329 84.7675 66.7579 85.0567 68 85.0567C69.2421 85.0567 70.4671 84.7675 71.578 84.2119C71.7045 84.1475 71.8111 84.0498 71.8862 83.9292C71.9612 83.8087 72.002 83.6699 72.004 83.5279C72.028 82.4533 72.1267 81.3879 72.3 80.3319C69.4629 80.9139 66.5371 80.9139 63.7 80.3319Z" fill="#F1F1F1"/>
<defs>
<filter id="filter0_f_130_1856" x="0" y="0" width="136" height="136" filterUnits="userSpaceOnUse" color-interpolation-filters="sRGB">
<feFlood flood-opacity="0" result="BackgroundImageFix"/>
<feBlend mode="normal" in="SourceGraphic" in2="BackgroundImageFix" result="shape"/>
<feGaussianBlur stdDeviation="6" result="effect1_foregroundBlur_130_1856"/>
</filter>
<filter id="filter1_f_130_1856" x="0" y="0" width="136" height="136" filterUnits="userSpaceOnUse" color-interpolation-filters="sRGB">
<feFlood flood-opacity="0" result="BackgroundImageFix"/>
<feBlend mode="normal" in="SourceGraphic" in2="BackgroundImageFix" result="shape"/>
<feGaussianBlur stdDeviation="6" result="effect1_foregroundBlur_130_1856"/>
</filter>
<linearGradient id="paint0_linear_130_1856" x1="14.5" y1="16" x2="126.533" y2="146.133" gradientUnits="userSpaceOnUse">
<stop stop-color="#FF1DFD"/>
<stop offset="0.507534" stop-color="#24A1DD"/>
<stop offset="0.641714" stop-color="#24A1DD"/>
</linearGradient>
<linearGradient id="paint1_linear_130_1856" x1="14.5" y1="16" x2="126.533" y2="146.133" gradientUnits="userSpaceOnUse">
<stop stop-color="#FF1DFD"/>
<stop offset="0.507534" stop-color="#24A1DD"/>
<stop offset="0.641714" stop-color="#24A1DD"/>
</linearGradient>
<linearGradient id="paint2_linear_130_1856" x1="14.5" y1="16" x2="126.533" y2="146.133" gradientUnits="userSpaceOnUse">
<stop stop-color="#FF1DFD"/>
<stop offset="0.507534" stop-color="#24A1DD"/>
<stop offset="0.641714" stop-color="#24A1DD"/>
</linearGradient>
<linearGradient id="paint3_linear_130_1856" x1="9" y1="20" x2="130" y2="110.5" gradientUnits="userSpaceOnUse">
<stop stop-color="#FF1DFD"/>
<stop offset="1" stop-color="#24A1DD"/>
</linearGradient>
</defs>
</svg>
