<svg width="136" height="136" viewBox="0 0 136 136" fill="none" xmlns="http://www.w3.org/2000/svg">
<g filter="url(#filter0_f_130_1801)">
<rect x="12.5" y="12.5" width="111" height="111" stroke="url(#paint0_linear_130_1801)"/>
</g>
<g filter="url(#filter1_f_130_1801)">
<rect x="12.5" y="12.5" width="111" height="111" stroke="url(#paint1_linear_130_1801)"/>
</g>
<rect x="12.25" y="12.25" width="111.5" height="111.5" stroke="url(#paint2_linear_130_1801)" stroke-width="0.5"/>
<rect x="20" y="20" width="96" height="96" fill="url(#paint3_linear_130_1801)" fill-opacity="0.32"/>
<g clip-path="url(#clip0_130_1801)">
<path d="M90.5 50H56V45.5C56 44.675 55.325 44 54.5 44H51.5C50.675 44 50 44.675 50 45.5V50H45.5C44.675 50 44 50.675 44 51.5V54.5C44 55.325 44.675 56 45.5 56H50V90.5C50 91.325 50.675 92 51.5 92H54.5C55.325 92 56 91.325 56 90.5V56H90.5C91.325 56 92 55.325 92 54.5V51.5C92 50.675 91.325 50 90.5 50ZM59 80H89V59H59V80Z" fill="#F1F1F1"/>
</g>
<defs>
<filter id="filter0_f_130_1801" x="0" y="0" width="136" height="136" filterUnits="userSpaceOnUse" color-interpolation-filters="sRGB">
<feFlood flood-opacity="0" result="BackgroundImageFix"/>
<feBlend mode="normal" in="SourceGraphic" in2="BackgroundImageFix" result="shape"/>
<feGaussianBlur stdDeviation="6" result="effect1_foregroundBlur_130_1801"/>
</filter>
<filter id="filter1_f_130_1801" x="0" y="0" width="136" height="136" filterUnits="userSpaceOnUse" color-interpolation-filters="sRGB">
<feFlood flood-opacity="0" result="BackgroundImageFix"/>
<feBlend mode="normal" in="SourceGraphic" in2="BackgroundImageFix" result="shape"/>
<feGaussianBlur stdDeviation="6" result="effect1_foregroundBlur_130_1801"/>
</filter>
<linearGradient id="paint0_linear_130_1801" x1="14.5" y1="16" x2="126.533" y2="146.133" gradientUnits="userSpaceOnUse">
<stop stop-color="#FF1DFD"/>
<stop offset="0.507534" stop-color="#24A1DD"/>
<stop offset="0.641714" stop-color="#24A1DD"/>
</linearGradient>
<linearGradient id="paint1_linear_130_1801" x1="14.5" y1="16" x2="126.533" y2="146.133" gradientUnits="userSpaceOnUse">
<stop stop-color="#FF1DFD"/>
<stop offset="0.507534" stop-color="#24A1DD"/>
<stop offset="0.641714" stop-color="#24A1DD"/>
</linearGradient>
<linearGradient id="paint2_linear_130_1801" x1="14.5" y1="16" x2="126.533" y2="146.133" gradientUnits="userSpaceOnUse">
<stop stop-color="#FF1DFD"/>
<stop offset="0.507534" stop-color="#24A1DD"/>
<stop offset="0.641714" stop-color="#24A1DD"/>
</linearGradient>
<linearGradient id="paint3_linear_130_1801" x1="9" y1="20" x2="130" y2="110.5" gradientUnits="userSpaceOnUse">
<stop stop-color="#FF1DFD"/>
<stop offset="1" stop-color="#24A1DD"/>
</linearGradient>
<clipPath id="clip0_130_1801">
<rect width="48" height="48" fill="white" transform="translate(44 44)"/>
</clipPath>
</defs>
</svg>
