<svg width="113" height="104" viewBox="0 0 113 104" fill="none" xmlns="http://www.w3.org/2000/svg">
<g filter="url(#filter0_d_5_419)">
<path d="M20.5077 76.1367C20.6701 76.1367 20.9544 75.9743 21.3605 75.6494C21.7666 75.3245 23.6347 73.2534 26.9647 69.4361C30.2947 65.5375 31.9597 63.4664 31.9597 63.2227C31.8785 63.2227 31.3912 63.71 30.4978 64.6847C29.6856 65.6593 28.5079 66.9588 26.9647 68.5832C23.2286 72.6442 21.1981 74.8778 20.8732 75.2839C20.5483 75.69 20.3859 75.9743 20.3859 76.1367H20.5077ZM8.56832 93.8021L9.90845 92.7056C12.5075 90.8376 14.8629 89.2132 16.9746 87.8324C20.792 85.3958 22.8225 84.1775 23.0661 84.1775C23.391 84.1775 23.5534 84.0963 23.5534 83.9339C23.5534 83.7714 23.6347 83.6902 23.7971 83.6902L24.1626 83.812C24.1626 83.4871 24.4469 83.1216 25.0154 82.7155L25.6246 82.2282L22.8225 83.3247C19.0863 85.0303 15.1878 87.3857 11.1268 90.3909C9.90845 91.2843 9.13686 91.8934 8.81198 92.2183C8.40588 92.6244 8.20283 92.9493 8.20283 93.193C8.36527 93.5991 8.4871 93.8021 8.56832 93.8021ZM36.102 55.4256C36.1832 55.4256 36.2644 55.385 36.3456 55.3037C36.4268 55.1413 36.9548 54.4915 37.9294 53.3544C37.767 53.3544 37.4015 53.6793 36.8329 54.3291C36.3456 54.9789 36.102 55.3443 36.102 55.4256ZM39.3914 51.4052C43.5336 46.4507 46.7012 42.4303 48.8941 39.344C50.5998 37.151 51.4526 35.9733 51.4526 35.8109C51.2901 35.8109 47.2697 41.009 39.3914 51.4052ZM51.4526 40.1968C51.615 40.1968 51.8587 39.9937 52.1836 39.5876C52.5897 39.1815 52.7927 38.8973 52.7927 38.7348L51.4526 40.1968ZM51.5744 35.4454C51.8181 35.2017 52.0211 34.9987 52.1836 34.8362C52.4272 34.6738 52.5491 34.5114 52.5491 34.3489C52.3054 34.3489 52.0617 34.5114 51.8181 34.8362C51.6556 35.0799 51.5744 35.283 51.5744 35.4454ZM53.0364 38.1257C53.1988 38.1257 53.4831 37.8414 53.8892 37.2729L54.011 36.9074C53.9298 36.9074 53.808 36.9886 53.6455 37.151C53.5643 37.3135 53.4425 37.4759 53.28 37.6383C53.1176 37.8008 53.0364 37.9632 53.0364 38.1257ZM47.4322 24.3588C47.5946 24.3588 48.0413 24.1152 48.7723 23.6279C49.5033 23.0593 49.8688 22.6938 49.8688 22.5314C49.7876 22.5314 49.6251 22.6126 49.3815 22.775C49.1378 22.9375 48.8535 23.1405 48.5287 23.3842C48.2038 23.5466 47.9195 23.7497 47.6758 23.9933C47.5134 24.1558 47.4322 24.2776 47.4322 24.3588ZM45.4829 25.8208C45.5641 25.8208 45.6859 25.7802 45.8484 25.699C46.0108 25.6178 46.1327 25.5365 46.2139 25.4553C46.3763 25.2929 46.4981 25.171 46.5794 25.0898C46.9855 24.8462 47.1885 24.6837 47.1885 24.6025L46.3357 25.0898L45.4829 25.8208ZM40.366 26.5518C40.4472 26.5518 40.5691 26.43 40.7315 26.1863L40.9752 25.8208L40.2442 26.43L40.366 26.5518ZM38.4167 28.3792L38.7822 28.1356C39.432 27.4858 39.7569 27.0797 39.7569 26.9173C39.5944 26.9173 39.3102 27.1609 38.9041 27.6483L38.4167 28.3792ZM36.3456 30.4504C36.4268 30.4504 36.9548 29.8006 37.9294 28.5011L36.2238 30.3285C36.305 30.3285 36.3456 30.3691 36.3456 30.4504ZM24.5281 49.9432L25.1372 49.5777L29.0358 46.532C28.5485 46.7756 27.8987 47.1817 27.0865 47.7503C25.2997 48.9686 24.4063 49.6589 24.4063 49.8214C24.4063 49.9026 24.4469 49.9432 24.5281 49.9432ZM6.25354 96.3605L6.13171 96.2387L6.25354 95.8732C6.41598 95.5483 6.70025 95.1828 7.10635 94.7767C7.43123 94.4519 7.59367 94.1676 7.59367 93.9239C7.59367 93.7615 7.51245 93.6803 7.35001 93.6803C7.02513 93.6803 6.70025 93.8427 6.37537 94.1676C5.96927 94.5737 5.64439 94.7767 5.40073 94.7767C5.07585 94.7767 4.75097 94.3706 4.42609 93.5584C4.42609 93.396 4.14182 92.7462 3.57328 91.6092C3.24839 91.1218 3.08595 90.7157 3.08595 90.3909L3.20778 90.269V90.1472C3.12656 90.1472 3.00473 90.1066 2.84229 90.0254C2.67985 89.9441 2.59863 89.6599 2.59863 89.1726C2.59863 88.8477 2.67985 88.4822 2.84229 88.0761C2.92351 87.67 3.00473 87.2639 3.08595 86.8578C3.08595 85.8019 3.45145 84.7867 4.18243 83.812C5.40073 82.0252 9.13686 77.8829 15.3908 71.3853C27.7363 58.2277 38.2137 46.1258 46.823 35.0799C48.6099 32.8057 50.3561 30.4504 52.0617 28.0137C56.1227 22.2471 58.1532 19.1201 58.1532 18.6328C57.7471 18.6328 56.2446 19.445 53.6455 21.0694C46.4981 25.5365 39.432 31.6687 32.4471 39.4658C29.9292 42.1461 28.6703 43.6892 28.6703 44.0953C28.6703 44.1766 28.7921 44.2172 29.0358 44.2172L29.5231 44.0953C29.6043 44.0953 29.645 44.136 29.645 44.2172C29.7262 44.2172 29.7262 44.3796 29.645 44.7045C29.5637 44.9482 29.5231 45.1512 29.5231 45.3136C29.5231 45.3949 29.4825 45.7604 29.4013 46.4101H29.8886C30.1323 46.4101 30.2541 46.5726 30.2541 46.8974C30.2541 47.466 29.9698 47.8721 29.4013 48.1157L28.0612 48.9686C25.2997 50.9178 23.7159 51.8925 23.3098 51.8925C23.0661 51.8925 22.9443 51.7707 22.9443 51.527L23.0661 51.0397C23.0661 50.796 22.9037 50.6742 22.5788 50.6742C22.2539 50.6742 21.9696 50.4711 21.726 50.065C21.5635 49.6589 21.4417 49.4153 21.3605 49.334C21.2793 49.2528 21.0762 48.8873 20.7513 48.2376C19.8579 46.4507 19.4112 45.1512 19.4112 44.339C19.7361 42.4709 21.7666 39.2221 25.5027 34.5926C29.2389 29.963 33.4623 25.5365 38.1731 21.3131C42.2341 17.6582 46.4169 14.5718 50.7216 12.054C55.1075 9.45494 58.3157 8.15541 60.3462 8.15541C60.996 8.15541 61.5239 8.27724 61.93 8.5209C62.3361 8.76456 62.7422 9.25188 63.1483 9.98287C63.6356 10.6326 64.1229 11.7291 64.6103 13.2723C65.0976 14.7342 65.4225 15.9932 65.5849 17.049C65.5849 17.2115 65.6255 17.3333 65.7067 17.4145L65.8286 18.511L65.7067 19.7293C64.6509 23.0593 62.0518 27.7295 57.9096 33.7398C55.2293 37.4759 51.5744 42.2679 46.9449 48.1157C42.3153 53.8824 37.7264 59.3647 33.178 64.5628C27.5738 70.9792 24.7717 74.2687 24.7717 74.4311C25.0966 74.4311 26.5586 73.9032 29.1576 72.8473C38.8228 69.5173 47.351 67.8522 54.742 67.8522C56.7725 67.8522 58.1532 68.0147 58.8842 68.3396C59.6152 68.5832 60.4274 69.6391 61.3208 71.5072C62.7016 74.2687 63.3919 76.3804 63.3919 77.8423C63.3919 78.6545 63.1077 79.3449 62.5391 79.9135C62.2955 80.1571 62.133 80.2789 62.0518 80.2789C61.8894 80.2789 61.8082 80.0759 61.8082 79.6698C61.8894 79.5886 61.93 79.4667 61.93 79.3043C62.0112 79.1419 62.0518 78.8982 62.0518 78.5733L61.4427 79.0606C61.3614 79.0606 61.199 78.8982 60.9553 78.5733C60.7929 78.1672 60.7117 77.8423 60.7117 77.5987V77.4768C60.7117 76.9083 59.6964 76.624 57.6659 76.624C55.0669 76.624 51.2901 77.0301 46.3357 77.8423C32.2034 80.2789 19.5737 85.9238 8.44649 94.7767C7.22818 95.8326 6.4972 96.3605 6.25354 96.3605Z" fill="url(#paint0_linear_5_419)"/>
<path d="M89.2561 20.0948C89.4186 20.0948 89.8247 19.8917 90.4744 19.4856C91.2054 18.9983 91.5709 18.5922 91.5709 18.2673L89.2561 20.0948ZM95.5913 30.694L96.2005 29.5975C96.2005 29.5163 96.1599 29.4757 96.0786 29.4757C95.835 29.8818 95.6725 30.1255 95.5913 30.2067C95.5913 30.2879 95.5913 30.4504 95.5913 30.694ZM96.3223 29.232C96.4847 29.232 98.6777 25.4147 102.901 17.78C103.957 15.8307 104.485 14.7749 104.485 14.6124L104.363 14.4906C104.282 14.4906 103.064 16.6023 100.708 20.8258C98.434 24.968 97.0533 27.5264 96.5659 28.5011L96.3223 29.232ZM77.0731 89.4162C77.5604 88.8477 78.7787 87.0202 80.728 83.9339C83.0834 80.3602 84.2611 78.4109 84.2611 78.086C84.1799 78.086 83.3677 79.3043 81.8245 81.7409C80.6874 83.6902 79.5097 85.5176 78.2914 87.2233C77.4792 88.3604 77.0731 89.0913 77.0731 89.4162ZM87.0632 78.3297C87.1444 78.3297 87.2256 78.2484 87.3069 78.086C87.3881 77.9236 87.4287 77.8423 87.4287 77.8423C87.5099 77.7611 87.5911 77.5174 87.6723 77.1114C87.5099 77.1114 87.3475 77.2738 87.185 77.5987C87.1038 77.8423 87.0632 78.086 87.0632 78.3297ZM87.7942 76.9895C87.9566 76.7459 88.1191 76.4616 88.2815 76.1367C88.5252 75.8118 88.8094 75.2839 89.1343 74.5529C88.9719 74.7966 88.7688 75.0808 88.5252 75.4057C88.3627 75.7306 88.1191 76.2585 87.7942 76.9895ZM89.4998 73.8219C89.581 73.8219 89.6622 73.7407 89.7435 73.5783C89.8247 73.3346 89.9465 73.0503 90.1089 72.7255C90.3526 72.4006 90.4744 72.1975 90.4744 72.1163L90.3526 71.9945C90.1089 71.9945 89.8247 72.6036 89.4998 73.8219ZM69.0323 99.5281C67.1642 99.5281 65.1337 97.5788 62.9408 93.6803C61.9661 91.9746 61.3164 90.4721 60.9915 89.1726C60.5854 87.5481 60.3824 84.9085 60.3824 81.2536C60.3824 73.5377 61.8443 64.441 64.7682 53.9636C69.9663 36.3388 76.464 23.2624 84.2611 14.7342C85.7231 13.2723 87.1444 12.0946 88.5252 11.2012C89.9871 10.2265 91.1648 9.7392 92.0582 9.7392C93.6014 9.7392 94.9822 11.1606 96.2005 14.0033L97.2969 16.1962L99.6117 12.2976C101.48 9.04883 102.414 7.22138 102.414 6.81528C102.414 6.32796 103.023 5.15026 104.241 3.2822C105.541 1.41413 106.312 0.480103 106.556 0.480103C107.043 0.480103 107.653 1.17047 108.383 2.55122C109.277 4.33806 109.724 5.47514 109.724 5.96247L109.967 6.9371C110.049 7.01833 110.13 7.14016 110.211 7.3026C110.292 7.38382 110.333 7.58687 110.333 7.91175C110.333 8.23663 110.252 8.56151 110.089 8.88639C109.439 10.2671 106.84 14.9373 102.292 22.8969C97.8249 30.8565 95.3883 35.0799 94.9822 35.5672L94.6167 35.8109C94.6167 35.8921 94.6573 35.9327 94.7385 35.9327L94.9822 35.8109C94.9822 36.0545 94.9416 36.217 94.8603 36.2982C94.7791 36.3794 94.6979 36.5013 94.6167 36.6637C94.5354 36.8261 94.4542 36.9074 94.373 36.9074L94.2512 36.7855C94.3324 36.7043 94.373 36.6637 94.373 36.6637C94.4542 36.5825 94.4948 36.5013 94.4948 36.42C94.3324 36.5013 94.2106 36.5825 94.1293 36.6637C94.1293 36.7449 94.1293 36.9886 94.1293 37.3947C93.7232 37.3947 92.6674 38.8973 90.9618 41.9024C89.3374 44.9075 88.5252 46.735 88.5252 47.3848C88.6876 47.6284 88.7688 47.9127 88.7688 48.2376C88.7688 49.0498 88.2815 50.3087 87.3069 52.0143C86.3322 53.7199 85.6418 54.5728 85.2357 54.5728C84.9921 54.5728 84.8296 54.4103 84.7484 54.0854C84.6672 53.7605 84.5048 53.5981 84.2611 53.5981C84.0987 53.5981 83.8144 53.1514 83.4083 52.258C83.0022 51.2833 82.5961 50.5524 82.19 50.065C81.8651 49.5777 81.7027 48.8061 81.7027 47.7503C81.7027 45.801 84.2611 40.1562 89.378 30.8158C92.1395 25.5365 93.5202 22.775 93.5202 22.5314C93.5202 22.3689 93.3578 21.9628 93.0329 21.3131C92.7892 20.6633 92.4643 20.0948 92.0582 19.6075C91.4085 19.6075 89.7029 21.1506 86.9414 24.237C82.9616 28.6229 79.1442 35.0799 75.4893 43.608C72.8903 49.6183 70.7379 55.6692 69.0323 61.7607C66.2708 72.1569 64.8901 80.7256 64.8901 87.4669V91.2437H65.9865C68.6668 90.9188 71.9968 87.9543 75.9766 82.3501C80.8498 75.4463 85.0733 68.0147 88.647 60.0551C90.5963 55.9941 91.5709 53.1108 91.5709 51.4052L91.3273 49.4559C91.3273 49.0498 91.4491 48.8467 91.6927 48.8467C92.3425 48.8467 93.0735 49.6995 93.8857 51.4052C95.1852 54.2479 95.9162 56.4814 96.0786 58.1058C96.0786 60.2988 94.5761 64.4816 91.5709 70.6544C88.647 76.7459 85.317 82.6749 81.5808 88.4416C80.0376 90.5533 78.4132 92.5432 76.7076 94.4113C75.002 96.3605 73.6212 97.7007 72.5654 98.4317C71.1846 99.1626 70.007 99.5281 69.0323 99.5281Z" fill="url(#paint1_linear_5_419)"/>
</g>
<defs>
<filter id="filter0_d_5_419" x="0.55352" y="0.480103" width="111.825" height="103.138" filterUnits="userSpaceOnUse" color-interpolation-filters="sRGB">
<feFlood flood-opacity="0" result="BackgroundImageFix"/>
<feColorMatrix in="SourceAlpha" type="matrix" values="0 0 0 0 0 0 0 0 0 0 0 0 0 0 0 0 0 0 127 0" result="hardAlpha"/>
<feOffset dy="2.04511"/>
<feGaussianBlur stdDeviation="1.02256"/>
<feComposite in2="hardAlpha" operator="out"/>
<feColorMatrix type="matrix" values="0 0 0 0 0 0 0 0 0 0 0 0 0 0 0 0 0 0 0.25 0"/>
<feBlend mode="normal" in2="BackgroundImageFix" result="effect1_dropShadow_5_419"/>
<feBlend mode="normal" in="SourceGraphic" in2="effect1_dropShadow_5_419" result="shape"/>
</filter>
<linearGradient id="paint0_linear_5_419" x1="1.09248" y1="54.4724" x2="110.362" y2="55.4424" gradientUnits="userSpaceOnUse">
<stop stop-color="white"/>
<stop offset="0.265625" stop-color="#5F5F5F"/>
<stop offset="0.489583" stop-color="#A4A4A4"/>
<stop offset="0.770833" stop-color="#D7D7D7"/>
<stop offset="1" stop-color="#F6F6F6"/>
</linearGradient>
<linearGradient id="paint1_linear_5_419" x1="1.09248" y1="54.4724" x2="110.362" y2="55.4424" gradientUnits="userSpaceOnUse">
<stop stop-color="white"/>
<stop offset="0.265625" stop-color="#5F5F5F"/>
<stop offset="0.489583" stop-color="#A4A4A4"/>
<stop offset="0.770833" stop-color="#D7D7D7"/>
<stop offset="1" stop-color="#F6F6F6"/>
</linearGradient>
</defs>
</svg>
