<svg width="648" height="203" viewBox="0 0 648 203" fill="none" xmlns="http://www.w3.org/2000/svg">
<g filter="url(#filter0_d_5_611)">
<path d="M39.8166 148.929C40.1343 148.929 40.6903 148.611 41.4846 147.976C42.2789 147.341 45.9326 143.29 52.4457 135.823C58.9589 128.198 62.2154 124.147 62.2154 123.671C62.0566 123.671 61.1034 124.624 59.356 126.53C57.7674 128.437 55.464 130.978 52.4457 134.155C45.1383 142.098 41.1669 146.467 40.5314 147.261C39.896 148.055 39.5783 148.611 39.5783 148.929H39.8166ZM16.4646 183.481L19.0857 181.336C24.1691 177.682 28.776 174.505 32.9063 171.805C40.3726 167.039 44.344 164.656 44.8206 164.656C45.456 164.656 45.7737 164.497 45.7737 164.179C45.7737 163.862 45.9326 163.703 46.2503 163.703L46.9651 163.941C46.9651 163.306 47.5211 162.591 48.6331 161.797L49.8246 160.843L44.344 162.988C37.0366 166.324 29.4114 170.931 21.4686 176.809C19.0857 178.556 17.5766 179.747 16.9411 180.383C16.1469 181.177 15.7497 181.813 15.7497 182.289C16.0674 183.083 16.3057 183.481 16.4646 183.481ZM70.3172 108.421C70.476 108.421 70.6349 108.341 70.7937 108.182C70.9526 107.865 71.9851 106.594 73.8914 104.37C73.5737 104.37 72.8589 105.005 71.7469 106.276C70.7937 107.547 70.3172 108.262 70.3172 108.421ZM76.7509 100.557C84.8526 90.8669 91.048 83.0034 95.3372 76.9669C98.6731 72.6777 100.341 70.3743 100.341 70.0566C100.023 70.0566 92.16 80.2234 76.7509 100.557ZM100.341 78.6348C100.659 78.6348 101.135 78.2377 101.771 77.4434C102.565 76.6491 102.962 76.0931 102.962 75.7754L100.341 78.6348ZM100.579 69.3417C101.056 68.8651 101.453 68.468 101.771 68.1503C102.247 67.8326 102.486 67.5149 102.486 67.1971C102.009 67.1971 101.533 67.5148 101.056 68.1503C100.738 68.6268 100.579 69.024 100.579 69.3417ZM103.439 74.584C103.757 74.584 104.313 74.028 105.107 72.916L105.345 72.2011C105.186 72.2011 104.948 72.36 104.63 72.6777C104.471 72.9954 104.233 73.3131 103.915 73.6309C103.598 73.9486 103.439 74.2663 103.439 74.584ZM92.4777 47.6577C92.7954 47.6577 93.6692 47.1811 95.0989 46.228C96.5286 45.116 97.2434 44.4011 97.2434 44.0834C97.0846 44.0834 96.7669 44.2423 96.2903 44.56C95.8137 44.8777 95.2577 45.2749 94.6223 45.7514C93.9869 46.0691 93.4309 46.4663 92.9543 46.9429C92.6366 47.2606 92.4777 47.4988 92.4777 47.6577ZM88.6652 50.5171C88.824 50.5171 89.0623 50.4377 89.38 50.2789C89.6977 50.12 89.936 49.9611 90.0949 49.8023C90.4126 49.4846 90.6509 49.2463 90.8097 49.0874C91.604 48.6109 92.0012 48.2931 92.0012 48.1343L90.3332 49.0874L88.6652 50.5171ZM78.6572 51.9468C78.816 51.9468 79.0543 51.7086 79.372 51.232L79.8486 50.5171L78.4189 51.7086L78.6572 51.9468ZM74.8446 55.5211L75.5594 55.0446C76.8303 53.7737 77.4657 52.9794 77.4657 52.6617C77.148 52.6617 76.592 53.1383 75.7977 54.0914L74.8446 55.5211ZM70.7937 59.572C70.9526 59.572 71.9851 58.3011 73.8914 55.7594L70.5554 59.3337C70.7143 59.3337 70.7937 59.4131 70.7937 59.572ZM47.68 97.6977L48.8714 96.9829L56.4966 91.0257C55.5434 91.5023 54.2726 92.2966 52.684 93.4086C49.1891 95.7914 47.4417 97.1417 47.4417 97.4594C47.4417 97.6183 47.5211 97.6977 47.68 97.6977ZM11.9371 188.485L11.6989 188.246L11.9371 187.531C12.2549 186.896 12.8109 186.181 13.6051 185.387C14.2406 184.751 14.5583 184.195 14.5583 183.719C14.5583 183.401 14.3994 183.242 14.0817 183.242C13.4463 183.242 12.8109 183.56 12.1754 184.195C11.3811 184.99 10.7457 185.387 10.2691 185.387C9.63372 185.387 8.99829 184.593 8.36286 183.004C8.36286 182.686 7.80686 181.415 6.69486 179.191C6.05943 178.238 5.74172 177.444 5.74172 176.809L5.98 176.57V176.332C5.82115 176.332 5.58286 176.253 5.26515 176.094C4.94743 175.935 4.78857 175.379 4.78857 174.426C4.78857 173.79 4.94743 173.075 5.26515 172.281C5.424 171.487 5.58286 170.693 5.74172 169.898C5.74172 167.833 6.45657 165.847 7.88629 163.941C10.2691 160.446 17.5766 152.345 29.8086 139.636C53.9549 113.901 74.4474 90.2314 91.2863 68.6269C94.7812 64.1789 98.1966 59.572 101.533 54.8063C109.475 43.5274 113.447 37.4114 113.447 36.4583C112.653 36.4583 109.714 38.0468 104.63 41.224C90.6509 49.9611 76.8303 61.9548 63.1686 77.2051C58.244 82.4474 55.7817 85.4657 55.7817 86.26C55.7817 86.4189 56.02 86.4983 56.4966 86.4983L57.4497 86.26C57.6086 86.26 57.688 86.3394 57.688 86.4983C57.8469 86.4983 57.8469 86.816 57.688 87.4514C57.5292 87.928 57.4497 88.3251 57.4497 88.6429C57.4497 88.8017 57.3703 89.5166 57.2114 90.7874H58.1646C58.6411 90.7874 58.8794 91.1051 58.8794 91.7406C58.8794 92.8526 58.3234 93.6469 57.2114 94.1234L54.5903 95.7914C49.1892 99.604 46.0914 101.51 45.2971 101.51C44.8206 101.51 44.5823 101.272 44.5823 100.795L44.8206 99.8423C44.8206 99.3657 44.5029 99.1274 43.8674 99.1274C43.232 99.1274 42.676 98.7303 42.1994 97.936C41.8817 97.1417 41.6434 96.6651 41.4846 96.5063C41.3257 96.3474 40.9286 95.6326 40.2931 94.3617C38.5457 90.8669 37.672 88.3251 37.672 86.7366C38.3074 83.0828 42.2789 76.7286 49.5863 67.6737C56.8937 58.6188 65.1543 49.9611 74.368 41.7006C82.3109 34.552 90.492 28.5154 98.9114 23.5909C107.49 18.5074 113.765 15.9657 117.736 15.9657C119.007 15.9657 120.039 16.204 120.834 16.6806C121.628 17.1571 122.422 18.1103 123.217 19.54C124.17 20.8109 125.123 22.9554 126.076 25.9737C127.029 28.8331 127.665 31.2954 127.982 33.3606C127.982 33.6783 128.062 33.9166 128.221 34.0754L128.459 36.22L128.221 38.6028C126.155 45.116 121.072 54.2503 112.97 66.0057C107.728 73.3131 100.579 82.6857 91.5246 94.1234C82.4697 105.402 73.4943 116.125 64.5983 126.292C53.6371 138.842 48.1566 145.275 48.1566 145.593C48.792 145.593 51.6514 144.561 56.7349 142.495C75.6389 135.982 92.3189 132.726 106.775 132.726C110.746 132.726 113.447 133.043 114.877 133.679C116.306 134.155 117.895 136.221 119.642 139.874C122.343 145.275 123.693 149.406 123.693 152.265C123.693 153.854 123.137 155.204 122.025 156.316C121.549 156.793 121.231 157.031 121.072 157.031C120.754 157.031 120.595 156.634 120.595 155.839C120.754 155.681 120.834 155.442 120.834 155.125C120.993 154.807 121.072 154.33 121.072 153.695L119.881 154.648C119.722 154.648 119.404 154.33 118.927 153.695C118.61 152.901 118.451 152.265 118.451 151.789V151.55C118.451 150.438 116.465 149.882 112.494 149.882C107.41 149.882 100.023 150.677 90.3332 152.265C62.692 157.031 37.9897 168.071 16.2263 185.387C13.8434 187.452 12.4137 188.485 11.9371 188.485Z" fill="url(#paint0_linear_5_611)"/>
<path d="M133.772 123.433C133.931 123.433 134.566 123.115 135.678 122.479C136.79 121.685 137.982 120.811 139.252 119.858C140.682 118.905 142.191 117.873 143.78 116.761C146.322 115.013 148.546 113.345 150.452 111.757C152.517 110.009 154.9 107.944 157.6 105.561C160.301 103.178 162.684 100.954 164.749 98.8891C166.973 96.824 168.403 95.3943 169.038 94.6C169.674 93.8057 169.991 93.1703 169.991 92.6937C169.991 92.376 169.753 91.8994 169.276 91.264C168.8 90.6286 168.562 89.596 168.562 88.1663C168.562 87.2131 168.8 86.3394 169.276 85.5451C169.753 84.7509 171.183 82.7651 173.566 79.588C178.172 72.7571 180.476 68.7857 180.476 67.6737C180.476 67.5149 180.396 67.4354 180.238 67.4354C179.92 67.4354 178.649 67.912 176.425 68.8651C166.735 74.4251 156.727 84.6714 146.401 99.604C144.495 102.463 143.383 103.893 143.065 103.893C142.906 103.893 141.397 106.276 138.538 111.042C135.678 115.649 134.248 118.27 134.248 118.905C134.725 118.905 136.155 116.522 138.538 111.757L142.827 104.37C142.827 105.164 141.397 107.944 138.538 112.71C135.837 117.475 134.407 119.858 134.248 119.858C134.09 119.858 133.931 119.938 133.772 120.097L134.01 120.811C134.01 121.288 133.931 121.685 133.772 122.003C133.613 122.162 133.534 122.479 133.534 122.956C133.534 123.274 133.613 123.433 133.772 123.433ZM160.936 110.089L166.894 104.37C170.706 100.875 172.612 98.8097 172.612 98.1743C172.136 98.1743 171.739 98.3331 171.421 98.6509C171.103 98.9686 170.15 99.9217 168.562 101.51L160.936 110.089ZM136.393 171.09C135.281 171.09 133.931 170.851 132.342 170.375L130.198 169.422C127.656 168.31 124.638 164.179 121.143 157.031C118.919 152.265 117.807 147.658 117.807 143.21L118.045 137.491C118.68 133.361 119.078 130.184 119.236 127.96C119.236 125.736 119.634 124.306 120.428 123.671C121.063 122.877 122.016 120.811 123.287 117.475C127.576 105.879 134.01 93.8057 142.588 81.256C152.755 67.4354 162.525 58.2217 171.898 53.6149C174.28 52.5028 176.425 51.9468 178.331 51.9468C180.714 51.9468 182.7 52.9794 184.288 55.0446C184.924 56.1566 185.798 57.9834 186.91 60.5251C188.816 65.2908 189.769 68.8651 189.769 71.248C189.769 75.696 188.022 80.7 184.527 86.26C185.639 90.0726 186.195 92.4554 186.195 93.4086C186.195 94.8383 185.639 96.0297 184.527 96.9829C183.891 97.3006 182.541 99.1274 180.476 102.463C178.093 105.641 174.519 109.612 169.753 114.378C165.146 118.985 160.619 123.035 156.171 126.53C144.574 136.062 135.996 140.827 130.436 140.827L126.862 141.304C126.067 144.799 125.591 147.102 125.432 148.214C125.273 149.167 125.194 151.312 125.194 154.648C127.735 155.601 129.8 156.078 131.389 156.078C140.603 156.078 154.423 148.055 172.851 132.011C181.429 124.545 189.451 116.681 196.918 108.421C199.459 105.561 200.73 103.734 200.73 102.94L200.254 100.081C200.254 98.3331 201.127 97.4594 202.875 97.4594C203.987 97.6183 205.019 98.6508 205.972 100.557C206.926 102.305 207.402 103.655 207.402 104.608C207.402 105.402 207.561 105.799 207.879 105.799C208.355 105.799 208.673 106.038 208.832 106.514C209.15 106.991 209.547 108.262 210.023 110.327C210.023 110.645 210.103 110.962 210.262 111.28C210.42 111.598 210.5 111.995 210.5 112.471C210.5 114.219 207.084 118.667 200.254 125.815C195.329 131.058 189.769 136.538 183.574 142.257C167.052 157.666 153.152 166.959 141.874 170.137C139.65 170.772 137.823 171.09 136.393 171.09Z" fill="url(#paint1_linear_5_611)"/>
<path d="M258.559 169.422C257.924 169.422 257.129 169.025 256.176 168.23C253.793 166.165 252.443 164.656 252.125 163.703C251.967 162.591 251.411 161.638 250.457 160.843C246.963 158.619 245.215 155.522 245.215 151.55L245.453 149.644C245.612 147.579 245.93 145.514 246.407 143.449C247.677 136.3 249.187 129.231 250.934 122.241C254.27 110.327 255.938 102.146 255.938 97.6977C255.938 96.7446 255.779 96.1886 255.461 96.0297C255.144 95.712 254.747 95.5531 254.27 95.5531C253.952 95.5531 253.635 95.5531 253.317 95.5531C249.504 95.5531 244.024 99.8423 236.875 108.421C229.727 116.84 223.134 125.498 217.097 134.394C211.061 143.29 207.407 149.167 206.136 152.027L204.468 156.793C202.562 163.465 200.576 166.801 198.511 166.801C197.399 166.801 196.446 166.245 195.652 165.133L195.413 165.609L193.507 162.273C191.76 159.255 190.807 157.19 190.648 156.078C190.489 154.966 190.409 153.139 190.409 150.597C190.409 143.449 193.189 132.964 198.749 119.143C204.945 102.94 211.379 88.484 218.051 75.7754C224.881 63.0669 229.488 56.7126 231.871 56.7126C232.507 56.7126 232.983 57.1097 233.301 57.904C233.777 58.5394 234.016 59.2543 234.016 60.0486C234.016 60.8428 234.254 61.24 234.731 61.24C235.207 61.24 235.684 61.6371 236.16 62.4314C237.59 64.4966 238.384 66.3234 238.543 67.912C238.543 68.7063 238.702 69.1034 239.02 69.1034C239.496 69.1034 239.735 69.6594 239.735 70.7714C239.735 72.0423 239.258 72.8366 238.305 73.1543C234.175 75.5371 227.423 87.0543 218.051 107.706C217.256 109.771 216.383 111.757 215.429 113.663L217.812 110.803C223.372 103.337 230.521 95.5531 239.258 87.4514C246.248 81.0971 253.079 75.9343 259.751 71.9629L260.942 71.248C262.372 69.9771 263.722 69.3417 264.993 69.3417C265.787 69.3417 266.502 69.9771 267.137 71.248C267.773 72.36 268.17 73.3926 268.329 74.3457C268.647 75.14 269.759 76.4903 271.665 78.3966C274.048 80.7794 275.239 83.3211 275.239 86.0217C275.239 87.4514 275.001 89.04 274.524 90.7874L274.286 92.4554C271.427 105.799 268.249 119.223 264.755 132.726C261.101 147.182 259.274 155.283 259.274 157.031C259.274 157.666 259.433 158.222 259.751 158.699C260.227 159.017 260.465 159.652 260.465 160.605C260.465 161.558 260.624 162.035 260.942 162.035C261.26 162.035 261.577 162.432 261.895 163.226C262.213 163.862 262.372 164.338 262.372 164.656C262.372 165.291 261.975 166.086 261.18 167.039C260.386 168.627 259.512 169.422 258.559 169.422ZM196.367 149.406L197.558 146.07L198.988 142.972L200.894 137.253C201.529 134.87 202.165 132.964 202.8 131.534C206.295 122.003 210.108 112.471 214.238 102.94C218.368 93.2497 221.943 85.704 224.961 80.3028C225.279 79.9851 225.437 79.588 225.437 79.1114C224.484 80.0646 222.657 83.0829 219.957 88.1663C217.415 93.0909 214.953 98.4126 212.57 104.131C208.122 113.981 204.468 122.956 201.609 131.058C198.114 140.43 196.367 146.546 196.367 149.406ZM257.129 103.178C257.288 103.178 257.447 103.019 257.606 102.702C257.765 102.384 257.844 102.146 257.844 101.987C258.003 101.669 258.083 101.351 258.083 101.034C258.241 100.716 258.321 100.398 258.321 100.081C258.321 99.604 258.162 99.3657 257.844 99.3657L257.368 100.081C256.891 100.398 256.653 101.113 256.653 102.225L257.129 103.178ZM254.508 116.761L255.7 114.378C255.541 114.378 255.144 115.172 254.508 116.761ZM252.125 150.835L253.317 147.023C253.476 146.07 253.635 145.037 253.793 143.925C253.952 142.654 254.111 141.622 254.27 140.827C254.588 140.033 254.747 139.398 254.747 138.921C254.905 138.445 254.985 138.127 254.985 137.968L254.747 137.491L254.27 139.159C252.84 144.561 252.125 148.453 252.125 150.835Z" fill="url(#paint2_linear_5_611)"/>
<path d="M395.346 39.3177C395.664 39.3177 396.458 38.9206 397.729 38.1263C399.159 37.1731 399.874 36.3788 399.874 35.7434L395.346 39.3177ZM407.737 60.0486L408.929 57.904C408.929 57.7451 408.849 57.6657 408.69 57.6657C408.214 58.46 407.896 58.9366 407.737 59.0954C407.737 59.2543 407.737 59.572 407.737 60.0486ZM409.167 57.1891C409.485 57.1891 413.774 49.7229 422.034 34.7903C424.099 30.9777 425.132 28.9126 425.132 28.5948L424.894 28.3566C424.735 28.3566 422.352 32.4868 417.745 40.7474C413.297 48.8491 410.597 53.8531 409.643 55.7594L409.167 57.1891ZM371.518 174.902C372.471 173.79 374.854 170.216 378.666 164.179C383.273 157.19 385.577 153.377 385.577 152.742C385.418 152.742 383.829 155.125 380.811 159.89C378.587 163.703 376.283 167.277 373.901 170.613C372.312 172.837 371.518 174.267 371.518 174.902ZM391.057 153.218C391.216 153.218 391.375 153.059 391.534 152.742C391.693 152.424 391.772 152.265 391.772 152.265C391.931 152.106 392.09 151.63 392.249 150.835C391.931 150.835 391.613 151.153 391.295 151.789C391.137 152.265 391.057 152.742 391.057 153.218ZM392.487 150.597C392.805 150.121 393.122 149.565 393.44 148.929C393.917 148.294 394.473 147.261 395.108 145.831C394.79 146.308 394.393 146.864 393.917 147.499C393.599 148.135 393.122 149.167 392.487 150.597ZM395.823 144.402C395.982 144.402 396.141 144.243 396.299 143.925C396.458 143.449 396.697 142.893 397.014 142.257C397.491 141.622 397.729 141.225 397.729 141.066L397.491 140.827C397.014 140.827 396.458 142.019 395.823 144.402ZM355.791 194.68C352.137 194.68 348.166 190.867 343.877 183.242C341.97 179.906 340.699 176.967 340.064 174.426C339.27 171.249 338.873 166.086 338.873 158.937C338.873 143.846 341.732 126.054 347.451 105.561C357.618 71.0891 370.326 45.5131 385.577 28.8331C388.436 25.9737 391.216 23.6703 393.917 21.9228C396.776 20.0166 399.079 19.0634 400.827 19.0634C403.845 19.0634 406.546 21.8434 408.929 27.4034L411.073 31.6926L415.601 24.0674C419.254 17.7131 421.081 14.1388 421.081 13.3446C421.081 12.3914 422.273 10.088 424.655 6.43428C427.197 2.78056 428.706 0.953705 429.183 0.953705C430.136 0.953705 431.327 2.30399 432.757 5.00457C434.505 8.49942 435.378 10.7234 435.378 11.6766L435.855 13.5828C436.014 13.7417 436.173 13.98 436.331 14.2977C436.49 14.4566 436.57 14.8537 436.57 15.4891C436.57 16.1246 436.411 16.76 436.093 17.3954C434.822 20.096 429.739 29.2303 420.843 44.7983C412.106 60.3663 407.34 68.6268 406.546 69.58L405.831 70.0566C405.831 70.2154 405.91 70.2949 406.069 70.2949L406.546 70.0566C406.546 70.5331 406.466 70.8509 406.307 71.0097C406.149 71.1686 405.99 71.4069 405.831 71.7246C405.672 72.0423 405.513 72.2011 405.354 72.2011L405.116 71.9629C405.275 71.804 405.354 71.7246 405.354 71.7246C405.513 71.5657 405.593 71.4068 405.593 71.248C405.275 71.4068 405.037 71.5657 404.878 71.7246C404.878 71.8834 404.878 72.36 404.878 73.1543C404.083 73.1543 402.018 76.0931 398.682 81.9708C395.505 87.8486 393.917 91.4229 393.917 92.6937C394.234 93.1703 394.393 93.7263 394.393 94.3617C394.393 95.9503 393.44 98.4126 391.534 101.749C389.627 105.085 388.277 106.753 387.483 106.753C387.006 106.753 386.689 106.435 386.53 105.799C386.371 105.164 386.053 104.846 385.577 104.846C385.259 104.846 384.703 103.973 383.909 102.225C383.114 100.319 382.32 98.8891 381.526 97.936C380.89 96.9829 380.573 95.4737 380.573 93.4086C380.573 89.596 385.577 78.5554 395.585 60.2869C400.986 49.9611 403.686 44.56 403.686 44.0834C403.686 43.7657 403.369 42.9714 402.733 41.7006C402.257 40.4297 401.621 39.3177 400.827 38.3646C399.556 38.3646 396.22 41.3829 390.819 47.4194C383.035 55.9977 375.569 68.6269 368.42 85.3069C363.337 97.0623 359.127 108.897 355.791 120.811C350.39 141.145 347.689 157.905 347.689 171.09V178.477H349.834C355.076 177.841 361.589 172.043 369.373 161.082C378.905 147.579 387.165 133.043 394.155 117.475C397.967 109.533 399.874 103.893 399.874 100.557L399.397 96.7446C399.397 95.9503 399.635 95.5531 400.112 95.5531C401.383 95.5531 402.813 97.2211 404.401 100.557C406.943 106.117 408.373 110.486 408.69 113.663C408.69 117.952 405.751 126.133 399.874 138.206C394.155 150.121 387.642 161.717 380.334 172.996C377.316 177.126 374.139 181.018 370.803 184.672C367.467 188.485 364.766 191.106 362.701 192.535C360.001 193.965 357.697 194.68 355.791 194.68Z" fill="url(#paint3_linear_5_611)"/>
<path d="M462.807 78.1583C462.966 78.1583 463.681 73.7103 464.952 64.8143C465.746 59.572 466.143 55.68 466.143 53.1383C466.143 52.6617 466.064 52.4234 465.905 52.4234C465.428 53.0589 464.952 55.0446 464.475 58.3806C463.999 61.5577 463.522 65.0526 463.046 68.8651C462.728 72.6777 462.569 75.4577 462.569 77.2051L462.807 78.1583ZM473.054 102.225C473.848 101.113 474.245 100.16 474.245 99.3657L474.007 99.1274L473.054 102.225ZM442.076 90.0726C442.235 90.0726 444.38 86.26 448.51 78.6348C452.64 71.0097 454.706 66.5617 454.706 65.2909C453.911 65.2909 450.337 72.2011 443.983 86.0217C442.712 88.4046 442.076 89.7549 442.076 90.0726ZM414.912 179.191L413.244 178C412.291 177.206 411.814 176.332 411.814 175.379V173.234L410.861 176.332L409.67 174.187C409.67 174.029 409.59 173.949 409.431 173.949C408.796 172.519 408.081 171.487 407.287 170.851C406.333 170.216 405.777 169.581 405.619 168.945C405.142 167.039 404.904 165.53 404.904 164.418C404.904 160.287 405.46 157.666 406.572 156.554L406.81 156.078L406.572 154.886C406.572 153.457 406.889 152.583 407.525 152.265L407.287 151.074L408.002 150.835L407.763 149.882L408.002 148.453C408.16 147.341 408.399 146.785 408.716 146.785V146.07L408.478 145.593H408.716L409.193 145.355L409.431 143.449C410.226 139.159 413.562 126.292 419.439 104.846C426.906 77.2051 431.274 62.908 432.545 61.9549C433.339 61.9549 435.404 64.0994 438.74 68.3886C444.3 57.2686 449.543 47.896 454.467 40.2709C456.691 36.9348 458.042 35.108 458.518 34.7903C458.836 34.7903 459.392 35.1874 460.186 35.9817C462.092 38.2057 463.204 39.7943 463.522 40.7474C463.999 41.5417 464.396 42.0183 464.714 42.1771C465.19 42.1771 465.508 42.336 465.667 42.6537C465.826 42.9714 465.905 44.6394 465.905 47.6577C465.746 47.8166 465.667 48.0549 465.667 48.3726C465.826 48.3726 465.984 48.3726 466.143 48.3726C466.302 48.2137 466.461 48.0549 466.62 47.896C466.938 47.5783 467.255 47.4194 467.573 47.4194C468.049 47.4194 468.288 48.2931 468.288 50.0406C468.288 52.1057 467.97 55.7594 467.335 61.0017C466.064 70.692 465.428 78.1583 465.428 83.4006C465.428 88.484 465.746 91.0257 466.382 91.0257C466.699 91.0257 466.858 90.0726 466.858 88.1663C466.858 86.26 466.938 85.148 467.096 84.8303C467.414 84.8303 467.891 85.0686 468.526 85.5451C470.115 86.9749 471.147 88.1663 471.624 89.1194C471.624 89.596 472.021 90.2314 472.815 91.0257C473.768 91.82 474.245 92.932 474.245 94.3617C474.245 95.6326 474.404 96.268 474.722 96.268H475.436C476.072 96.268 476.628 97.0623 477.104 98.6509L477.343 101.749C477.343 104.767 476.151 106.514 473.768 106.991C471.703 106.991 468.367 103.973 463.76 97.936C461.06 94.6 459.233 91.8994 458.28 89.8343C457.327 87.6103 456.294 83.5594 455.182 77.6817C454.864 74.5046 454.547 72.916 454.229 72.916L449.94 81.0177C434.69 110.406 423.887 139.08 417.533 167.039L414.912 179.191Z" fill="url(#paint4_linear_5_611)"/>
<path d="M481.427 123.433C481.586 123.433 482.221 123.115 483.333 122.479C484.445 121.685 485.637 120.811 486.908 119.858C488.337 118.905 489.846 117.873 491.435 116.761C493.977 115.013 496.201 113.345 498.107 111.757C500.172 110.009 502.555 107.944 505.256 105.561C507.956 103.178 510.339 100.954 512.404 98.8891C514.628 96.824 516.058 95.3943 516.693 94.6C517.329 93.8057 517.646 93.1703 517.646 92.6937C517.646 92.376 517.408 91.8994 516.932 91.264C516.455 90.6286 516.217 89.596 516.217 88.1663C516.217 87.2131 516.455 86.3394 516.932 85.5451C517.408 84.7509 518.838 82.7651 521.221 79.588C525.828 72.7571 528.131 68.7857 528.131 67.6737C528.131 67.5149 528.052 67.4354 527.893 67.4354C527.575 67.4354 526.304 67.912 524.08 68.8651C514.39 74.4251 504.382 84.6714 494.056 99.604C492.15 102.463 491.038 103.893 490.72 103.893C490.561 103.893 489.052 106.276 486.193 111.042C483.333 115.649 481.904 118.27 481.904 118.905C482.38 118.905 483.81 116.522 486.193 111.757L490.482 104.37C490.482 105.164 489.052 107.944 486.193 112.71C483.492 117.475 482.062 119.858 481.904 119.858C481.745 119.858 481.586 119.938 481.427 120.097L481.665 120.811C481.665 121.288 481.586 121.685 481.427 122.003C481.268 122.162 481.189 122.479 481.189 122.956C481.189 123.274 481.268 123.433 481.427 123.433ZM508.592 110.089L514.549 104.37C518.361 100.875 520.268 98.8097 520.268 98.1743C519.791 98.1743 519.394 98.3331 519.076 98.6509C518.758 98.9686 517.805 99.9217 516.217 101.51L508.592 110.089ZM484.048 171.09C482.936 171.09 481.586 170.851 479.997 170.375L477.853 169.422C475.311 168.31 472.293 164.179 468.798 157.031C466.574 152.265 465.462 147.658 465.462 143.21L465.7 137.491C466.336 133.361 466.733 130.184 466.892 127.96C466.892 125.736 467.289 124.306 468.083 123.671C468.718 122.877 469.672 120.811 470.942 117.475C475.232 105.879 481.665 93.8057 490.244 81.256C500.41 67.4354 510.18 58.2217 519.553 53.6149C521.936 52.5028 524.08 51.9468 525.986 51.9468C528.369 51.9468 530.355 52.9794 531.944 55.0446C532.579 56.1566 533.453 57.9834 534.565 60.5251C536.471 65.2908 537.424 68.8651 537.424 71.248C537.424 75.696 535.677 80.7 532.182 86.26C533.294 90.0726 533.85 92.4554 533.85 93.4086C533.85 94.8383 533.294 96.0297 532.182 96.9829C531.546 97.3006 530.196 99.1274 528.131 102.463C525.748 105.641 522.174 109.612 517.408 114.378C512.801 118.985 508.274 123.035 503.826 126.53C492.229 136.062 483.651 140.827 478.091 140.827L474.517 141.304C473.722 144.799 473.246 147.102 473.087 148.214C472.928 149.167 472.849 151.312 472.849 154.648C475.39 155.601 477.456 156.078 479.044 156.078C488.258 156.078 502.078 148.055 520.506 132.011C529.084 124.545 537.106 116.681 544.573 108.421C547.114 105.561 548.385 103.734 548.385 102.94L547.909 100.081C547.909 98.3331 548.782 97.4594 550.53 97.4594C551.642 97.6183 552.674 98.6508 553.628 100.557C554.581 102.305 555.057 103.655 555.057 104.608C555.057 105.402 555.216 105.799 555.534 105.799C556.01 105.799 556.328 106.038 556.487 106.514C556.805 106.991 557.202 108.262 557.678 110.327C557.678 110.645 557.758 110.962 557.917 111.28C558.076 111.598 558.155 111.995 558.155 112.471C558.155 114.219 554.74 118.667 547.909 125.815C542.984 131.058 537.424 136.538 531.229 142.257C514.708 157.666 500.808 166.959 489.529 170.137C487.305 170.772 485.478 171.09 484.048 171.09Z" fill="url(#paint5_linear_5_611)"/>
<path d="M549.264 172.281C548.629 172.281 547.755 171.646 546.643 170.375L541.639 162.988C539.733 159.97 538.7 157.666 538.541 156.078C538.223 154.33 538.065 152.106 538.065 149.406C538.065 135.744 543.704 111.836 554.983 77.6817L558.081 68.3886C559.351 64.4171 560.384 61.1606 561.178 58.6188C562.131 56.0771 562.767 54.8063 563.085 54.8063C564.038 54.8063 565.07 55.6006 566.182 57.1891C567.453 58.7777 568.247 60.4457 568.565 62.1931C569.042 63.7817 569.439 64.576 569.757 64.576C570.233 64.576 570.471 64.7348 570.471 65.0526C570.471 65.2114 570.471 65.3703 570.471 65.5291C570.63 65.5291 570.948 66.1646 571.425 67.4354C571.901 68.5474 572.139 69.7388 572.139 71.0097C572.139 72.4394 571.901 74.7429 571.425 77.92C570.63 83.1623 570.154 85.8629 569.995 86.0217C569.359 86.0217 568.962 85.7834 568.803 85.3069C568.803 84.8303 568.724 84.4331 568.565 84.1154C568.565 83.7977 568.486 83.6388 568.327 83.6388C567.533 85.2274 565.309 91.5023 561.655 102.463C556.889 117.555 553.633 129.31 551.885 137.73L550.932 141.304L552.838 138.445C557.127 131.931 567.135 114.139 582.862 85.0686C590.805 70.6126 595.015 63.1463 595.491 62.6697L596.445 62.1931L596.683 62.4314C597.636 63.0668 598.43 64.0994 599.066 65.5291C599.86 66.8 600.257 68.0708 600.257 69.3417C600.257 69.9771 600.337 70.4537 600.495 70.7714C600.654 70.9303 600.972 71.0097 601.449 71.0097L601.925 70.7714C602.878 70.7714 603.752 72.6777 604.546 76.4903C604.546 76.808 604.626 77.2846 604.785 77.92C604.943 78.3966 605.023 79.1908 605.023 80.3028C605.023 82.6857 604.308 88.0074 602.878 96.268C600.019 113.901 598.589 125.577 598.589 131.296C598.589 133.202 598.748 134.155 599.066 134.155C599.383 133.997 600.019 133.441 600.972 132.487C602.084 131.375 603.275 130.025 604.546 128.437C605.817 126.848 606.929 125.339 607.882 123.909C619.002 105.799 627.183 84.1154 632.426 58.8571C633.538 53.2971 634.411 50.5171 635.047 50.5171C635.365 50.5171 635.523 50.9143 635.523 51.7086C635.523 52.344 635.841 52.6617 636.477 52.6617C637.271 52.6617 637.668 53.1383 637.668 54.0914C637.668 57.4274 636.159 64.7349 633.141 76.0137C629.487 89.5166 624.324 103.655 617.652 118.429C617.017 119.699 616.699 120.494 616.699 120.811C617.652 119.858 619.797 115.49 623.133 107.706C630.44 90.0726 635.126 75.7754 637.191 64.8143C638.145 60.0486 638.939 57.6657 639.574 57.6657C640.051 57.6657 640.289 58.1423 640.289 59.0954L641.004 60.0486C641.481 60.0486 641.878 60.3663 642.195 61.0017C642.831 63.2257 643.149 65.3703 643.149 67.4354C643.149 68.8651 642.831 71.1686 642.195 74.3457C638.859 90.8668 633.697 106.832 626.707 122.241C619.717 137.65 613.283 147.42 607.406 151.55C606.294 152.186 605.261 152.503 604.308 152.503C602.878 152.503 601.449 151.789 600.019 150.359C598.589 148.929 596.762 146.229 594.538 142.257C592.473 139.08 591.043 136.379 590.249 134.155C589.773 132.885 589.375 130.819 589.058 127.96C588.581 123.035 588.343 118.667 588.343 114.854L588.819 109.135L588.581 108.421L580.479 122.956C563.164 154.41 552.997 170.772 549.979 172.043L549.264 172.281Z" fill="url(#paint6_linear_5_611)"/>
</g>
<defs>
<filter id="filter0_d_5_611" x="0.788574" y="0.953705" width="646.36" height="201.726" filterUnits="userSpaceOnUse" color-interpolation-filters="sRGB">
<feFlood flood-opacity="0" result="BackgroundImageFix"/>
<feColorMatrix in="SourceAlpha" type="matrix" values="0 0 0 0 0 0 0 0 0 0 0 0 0 0 0 0 0 0 127 0" result="hardAlpha"/>
<feOffset dy="4"/>
<feGaussianBlur stdDeviation="2"/>
<feComposite in2="hardAlpha" operator="out"/>
<feColorMatrix type="matrix" values="0 0 0 0 0 0 0 0 0 0 0 0 0 0 0 0 0 0 0.25 0"/>
<feBlend mode="normal" in2="BackgroundImageFix" result="effect1_dropShadow_5_611"/>
<feBlend mode="normal" in="SourceGraphic" in2="effect1_dropShadow_5_611" result="shape"/>
</filter>
<linearGradient id="paint0_linear_5_611" x1="-4.13587" y1="106.556" x2="642.906" y2="123.956" gradientUnits="userSpaceOnUse">
<stop stop-color="white"/>
<stop offset="0.265625" stop-color="#5F5F5F"/>
<stop offset="0.489583" stop-color="#A4A4A4"/>
<stop offset="0.770833" stop-color="#D7D7D7"/>
<stop offset="1" stop-color="#F6F6F6"/>
</linearGradient>
<linearGradient id="paint1_linear_5_611" x1="-4.13587" y1="106.556" x2="642.906" y2="123.956" gradientUnits="userSpaceOnUse">
<stop stop-color="white"/>
<stop offset="0.265625" stop-color="#5F5F5F"/>
<stop offset="0.489583" stop-color="#A4A4A4"/>
<stop offset="0.770833" stop-color="#D7D7D7"/>
<stop offset="1" stop-color="#F6F6F6"/>
</linearGradient>
<linearGradient id="paint2_linear_5_611" x1="-4.13587" y1="106.556" x2="642.906" y2="123.956" gradientUnits="userSpaceOnUse">
<stop stop-color="white"/>
<stop offset="0.265625" stop-color="#5F5F5F"/>
<stop offset="0.489583" stop-color="#A4A4A4"/>
<stop offset="0.770833" stop-color="#D7D7D7"/>
<stop offset="1" stop-color="#F6F6F6"/>
</linearGradient>
<linearGradient id="paint3_linear_5_611" x1="-4.13587" y1="106.556" x2="642.906" y2="123.956" gradientUnits="userSpaceOnUse">
<stop stop-color="white"/>
<stop offset="0.265625" stop-color="#5F5F5F"/>
<stop offset="0.489583" stop-color="#A4A4A4"/>
<stop offset="0.770833" stop-color="#D7D7D7"/>
<stop offset="1" stop-color="#F6F6F6"/>
</linearGradient>
<linearGradient id="paint4_linear_5_611" x1="-4.13587" y1="106.556" x2="642.906" y2="123.956" gradientUnits="userSpaceOnUse">
<stop stop-color="white"/>
<stop offset="0.265625" stop-color="#5F5F5F"/>
<stop offset="0.489583" stop-color="#A4A4A4"/>
<stop offset="0.770833" stop-color="#D7D7D7"/>
<stop offset="1" stop-color="#F6F6F6"/>
</linearGradient>
<linearGradient id="paint5_linear_5_611" x1="-4.13587" y1="106.556" x2="642.906" y2="123.956" gradientUnits="userSpaceOnUse">
<stop stop-color="white"/>
<stop offset="0.265625" stop-color="#5F5F5F"/>
<stop offset="0.489583" stop-color="#A4A4A4"/>
<stop offset="0.770833" stop-color="#D7D7D7"/>
<stop offset="1" stop-color="#F6F6F6"/>
</linearGradient>
<linearGradient id="paint6_linear_5_611" x1="-4.13587" y1="106.556" x2="642.906" y2="123.956" gradientUnits="userSpaceOnUse">
<stop stop-color="white"/>
<stop offset="0.265625" stop-color="#5F5F5F"/>
<stop offset="0.489583" stop-color="#A4A4A4"/>
<stop offset="0.770833" stop-color="#D7D7D7"/>
<stop offset="1" stop-color="#F6F6F6"/>
</linearGradient>
</defs>
</svg>
