<svg width="231" height="48" viewBox="0 0 231 48" fill="none" xmlns="http://www.w3.org/2000/svg">
<g clip-path="url(#clip0_130_1938)">
<path d="M33.8994 42.367C33.9076 43.0218 33.9186 43.6739 33.9213 44.3287C33.9241 45.5506 33.9213 46.7725 33.9213 47.9917H0.527588V0.00537109H33.9213C33.9213 4.92866 33.9213 9.85195 33.9213 14.7752C33.7264 14.767 33.677 14.5889 33.6139 14.4684C32.815 12.9643 31.9502 11.4958 31.1102 10.0163C30.2372 8.47934 29.3944 6.92592 28.5131 5.39167C28.299 5.01633 28.0052 4.67934 27.6017 4.47112C26.9648 4.1451 26.3032 4.13688 25.6223 4.304C25.2764 4.38893 24.9442 4.5314 24.5681 4.39989C23.8324 4.13962 23.0857 4.10674 22.3252 4.3177C22.1303 4.37249 21.9052 4.39167 21.6801 4.34784C21.2106 4.25743 20.7357 4.18345 20.2498 4.20263C19.4591 4.23277 18.8716 4.56701 18.5038 5.26838C18.0837 6.07112 17.7351 6.90674 17.3672 7.73414C16.9499 8.67386 16.4585 9.57797 16.0467 10.5177C15.2259 12.3862 14.3007 14.2081 13.4716 16.0739C13.1752 16.7424 12.7908 17.3752 12.4971 18.0437C11.5033 20.3122 10.4271 22.5451 9.36469 24.7835C8.79367 25.9862 8.22814 27.1889 7.67908 28.3999C6.75666 30.4273 5.73266 32.4081 4.84593 34.4519C4.48905 35.2739 4.06902 36.0656 3.70115 36.8821C3.30582 37.7561 2.8858 38.6191 2.47126 39.4876C2.19947 40.0547 1.87278 40.5999 1.74375 41.2328C1.61747 41.8437 1.58453 42.4273 2.09515 42.8958C2.63323 43.3889 3.27288 43.4328 3.93724 43.241C4.4314 43.0985 4.90633 43.0711 5.40597 43.2328C5.91385 43.3972 6.44644 43.3944 6.95157 43.2163C7.4622 43.0382 7.94537 43.0437 8.456 43.2163C9.30155 43.4985 10.2953 43.2081 10.8087 42.5698C11.1574 42.1341 11.4401 41.6492 11.6488 41.1396C12.3406 39.4492 13.2356 37.8547 13.9685 36.1862C14.3858 35.2382 14.8635 34.3177 15.3028 33.378C16.2197 31.4081 17.1037 29.4218 18.0535 27.4684C18.6273 26.2903 19.1324 25.0821 19.7172 23.9095C20.3651 22.6109 20.9526 21.2793 21.5758 19.9698C21.8887 19.3095 22.2209 18.6574 22.5146 17.9862C22.7782 17.378 23.0335 16.7615 23.3739 16.1862C23.5798 15.8382 23.7885 15.8081 24.0685 16.0958C24.1426 16.1725 24.2195 16.2574 24.2661 16.3533C24.9278 17.7835 25.7678 19.1177 26.509 20.504C27.0142 21.4519 27.4232 22.4958 28.3237 23.1889C28.1288 23.4163 28.0684 23.6054 28.3484 23.8465C29.0924 24.4903 29.9187 24.9013 30.9262 24.8958C31.8267 24.8903 32.7271 24.9013 33.6276 24.8903C33.8555 24.8876 33.946 24.9561 33.9268 25.1889C33.9104 25.4054 33.9104 25.6273 33.9268 25.8437C33.9433 26.0684 33.8692 26.1506 33.6331 26.1478C32.6118 26.1369 31.5906 26.1643 30.5721 26.1341C29.9709 26.115 29.3971 25.9314 28.8508 25.6602C28.2935 25.3835 27.8048 25.0245 27.3821 24.5752C27.2805 24.4656 27.1734 24.3862 27.0663 24.5533C26.8906 24.8246 26.6436 25.0273 26.4185 25.2492C26.2839 25.3807 26.2867 25.4711 26.4212 25.5944C26.6628 25.8163 26.8879 26.0519 27.1487 26.2547C28.1974 27.0684 29.3779 27.5369 30.7093 27.5807C31.467 27.6054 32.2247 27.5862 32.9824 27.5862C34.0064 27.5862 34.0037 27.5862 33.9268 28.6136C33.9159 28.7588 33.8774 28.8382 33.7182 28.8328C32.535 28.7972 31.349 28.9259 30.1713 28.7561C29.312 28.6328 28.5021 28.3478 27.7362 27.9232C26.9895 27.5095 26.3471 26.978 25.7623 26.3698C25.6196 26.2218 25.518 26.1862 25.367 26.3588C25.1693 26.5917 24.936 26.7889 24.7466 27.0355C24.6368 27.178 24.656 27.2547 24.7713 27.3588C25.1007 27.6629 25.4027 27.9944 25.7513 28.2766C27.2969 29.5314 29.0512 30.2191 31.047 30.2711C31.8926 30.293 32.7381 30.2848 33.5837 30.2711C33.8637 30.2656 33.9323 30.3588 33.9296 30.6245C33.9186 32.1889 33.9131 33.7533 33.9323 35.3177C33.9378 35.6547 33.8417 35.7341 33.5123 35.7314C28.848 35.7204 24.181 35.7232 19.5168 35.7232C19.4289 35.7232 19.3411 35.7287 19.2532 35.7232C19.0995 35.715 19.0364 35.7807 19.0391 35.9341C19.0446 36.2081 19.0638 36.4821 19.0336 36.7533C19.0007 37.0848 19.1077 37.1752 19.4482 37.1725C23.9916 37.1615 28.5378 37.1643 33.0813 37.1643C33.645 37.1643 33.9259 37.441 33.9241 37.9944C33.9241 38.272 33.7786 38.4108 33.4876 38.4108C29.8858 38.4108 26.2867 38.4108 22.6849 38.4108C21.5977 38.4108 20.5106 38.4191 19.4234 38.4054C19.1379 38.4026 18.9924 38.4547 19.0309 38.778C19.0583 39.0054 19.0556 39.2382 19.0309 39.4656C18.9952 39.7889 19.1242 39.8629 19.4344 39.8602C23.9779 39.8492 28.5241 39.8547 33.0676 39.8547C33.9213 39.8547 33.9076 39.8547 33.9268 40.7095C33.9351 41.0245 33.8445 41.1095 33.526 41.1095C30.0999 41.0985 26.6765 41.1013 23.2504 41.1013C21.9766 41.1013 20.7028 41.1013 19.4317 41.1013C19.0885 41.1013 19.0446 41.178 19.1819 41.4848C19.1901 41.5862 19.2011 41.6903 19.2093 41.7917C19.0364 41.7369 19.0391 41.8629 19.0364 41.9698C19.0309 42.1177 19.0364 42.2656 19.0364 42.4163C19.0528 42.4492 19.0638 42.5067 19.0858 42.5122C19.1544 42.5287 19.1572 42.4629 19.1681 42.4163C19.2093 42.4109 19.2532 42.4081 19.2944 42.4026C19.3466 42.6437 19.5415 42.5396 19.6705 42.5396C24.2167 42.5451 28.7657 42.5451 33.3119 42.5451C33.3888 42.5451 33.4656 42.5424 33.5425 42.5451C33.6633 42.5478 33.7209 42.4848 33.7347 42.3698C33.7868 42.3698 33.8417 42.3698 33.8939 42.3698L33.8994 42.367Z" fill="#F1F1F1"/>
<path d="M230.994 23.6382C230.813 23.9944 230.854 24.3889 230.805 24.7642C230.517 27.0081 229.913 29.1396 228.589 31.0163C228.103 31.704 227.5 32.293 226.81 32.7834C226.525 32.9861 226.489 33.1478 226.629 33.4711C227.84 36.2327 229.029 39.0026 230.223 41.7724C230.253 41.8409 230.272 41.9149 230.311 42.0218C229.517 42.0218 228.746 42.0218 227.974 42.0218C227.769 42.0218 227.76 41.8135 227.714 41.704C227.305 40.7204 226.874 39.7478 226.445 38.7724C225.918 37.5752 225.413 36.3697 224.894 35.1697C224.721 34.7724 224.526 34.3861 224.362 33.9861C224.299 33.8355 224.213 33.8026 224.065 33.8026C222.352 33.8053 220.642 33.8108 218.929 33.7998C218.676 33.7998 218.682 33.9177 218.682 34.0985C218.684 36.6245 218.679 39.1533 218.69 41.6793C218.69 41.9615 218.632 42.0519 218.336 42.0355C217.789 42.0081 217.238 42.0108 216.691 42.0355C216.42 42.0464 216.373 41.9533 216.373 41.7067C216.381 37.967 216.378 34.2245 216.378 30.4848C216.378 24.1834 216.378 17.8848 216.37 11.5834C216.37 11.2793 216.425 11.1807 216.754 11.1807C218.962 11.1971 221.166 11.1861 223.373 11.1889C225.213 11.1889 226.761 11.8683 227.991 13.2272C229.001 14.345 229.663 15.6683 230.127 17.0903C230.517 18.2848 230.777 19.5094 230.868 20.767C230.882 20.9587 230.86 21.1724 230.992 21.3478V21.4135C230.942 21.4272 230.923 21.4629 230.923 21.5094C230.923 22.082 230.923 22.6519 230.923 23.2245C230.923 23.2711 230.942 23.3067 230.992 23.3204V23.6492L230.994 23.6382ZM218.684 22.504C218.684 25.4574 218.684 28.4108 218.684 31.3642C218.684 31.5478 218.684 31.6601 218.934 31.6601C220.45 31.6464 221.962 31.6601 223.478 31.6492C224.266 31.6437 224.988 31.419 225.633 30.9587C226.789 30.1341 227.456 28.9642 227.898 27.6601C228.867 24.7944 228.955 21.8738 228.32 18.9286C227.999 17.4382 227.456 16.0409 226.426 14.8766C225.649 13.9998 224.699 13.419 223.497 13.3944C222.006 13.3642 220.513 13.3807 219.019 13.3615C218.739 13.3587 218.682 13.4437 218.682 13.7094C218.693 16.6409 218.687 19.5724 218.687 22.504H218.684Z" fill="#F1F1F1"/>
<path d="M0.526027 0.00488281V47.9939C0.175342 47.9939 0 47.8186 0 47.4679C0 31.8213 0 16.1775 0 0.53091C0 0.180225 0.175342 0.00488281 0.526027 0.00488281Z" fill="#F1F1F1"/>
<path d="M230.994 23.3097C230.944 23.296 230.925 23.2604 230.925 23.2138C230.925 22.6412 230.925 22.0713 230.925 21.4987C230.925 21.4521 230.944 21.4165 230.994 21.4028V23.3069V23.3097Z" fill="#B959C4"/>
<path d="M90.5448 42.0192C89.7377 42.0192 88.9828 42.0192 88.2278 42.0192C88.1235 42.0192 88.0439 41.9891 87.9972 41.8795C87.4756 40.6548 86.9567 39.4302 86.4269 38.211C85.9108 37.0219 85.3754 35.8384 84.8593 34.6466C84.7715 34.4411 84.6699 34.2384 84.6013 34.0329C84.5299 33.8274 84.4311 33.7946 84.2499 33.7973C82.5588 33.8 80.8704 33.8055 79.1793 33.7946C78.9405 33.7946 78.8938 33.863 78.8938 34.0877C78.9021 36.6247 78.8938 39.1644 78.9048 41.7014C78.9048 41.948 78.8581 42.0384 78.5891 42.0302C77.9961 42.0083 77.4031 42.0165 76.8101 42.0274C76.6344 42.0302 76.5685 41.9781 76.5933 41.8055C76.6015 41.7507 76.5933 41.6959 76.5933 41.6411C76.5933 31.6192 76.5933 21.6 76.585 11.5781C76.585 11.2384 76.6784 11.1726 76.9996 11.1754C79.1738 11.1891 81.3454 11.1809 83.5196 11.1836C84.9774 11.1836 86.3116 11.5672 87.4454 12.5096C88.5051 13.3891 89.2491 14.5041 89.8146 15.7425C90.3664 16.9562 90.7288 18.2302 90.9347 19.5398C91.1927 21.2028 91.2421 22.8713 91.039 24.5562C90.877 25.8932 90.5943 27.1946 90.1413 28.4548C89.4906 30.263 88.4392 31.7946 86.8524 32.9206C86.6877 33.0356 86.685 33.1151 86.7563 33.2795C87.8792 35.8767 88.9992 38.4795 90.1193 41.0795C90.2511 41.3836 90.3911 41.685 90.5448 42.0247V42.0192ZM78.9021 22.4987C78.9021 25.4521 78.9021 28.4055 78.8966 31.3589C78.8966 31.5672 78.9185 31.663 79.1711 31.6603C80.6536 31.6466 82.1333 31.6548 83.6157 31.6521C84.6864 31.6521 85.6006 31.263 86.372 30.5233C87.2148 29.7151 87.7529 28.7206 88.118 27.6329C89.0541 24.8302 89.1585 21.9726 88.5682 19.0904C88.2498 17.5343 87.7007 16.0658 86.6136 14.8548C85.8394 13.9918 84.9005 13.4165 83.7091 13.3918C82.2184 13.3617 80.7249 13.3809 79.2315 13.3562C78.9515 13.3507 78.8938 13.4329 78.8966 13.6987C78.9075 16.6302 78.9021 19.5617 78.9021 22.4932V22.4987Z" fill="#F1F1F1"/>
<path d="M178.603 35.7754C178.867 35.411 178.96 34.9726 179.141 34.5699C179.556 33.6411 179.926 32.6932 180.316 31.7535C180.657 30.9343 180.997 30.1124 181.337 29.2932C181.689 28.4494 182.038 27.6055 182.389 26.7644C182.784 25.811 183.18 24.8603 183.575 23.9069C183.97 22.9535 184.371 22.0028 184.764 21.0494C185.162 20.0877 185.552 19.1206 185.95 18.1589C186.35 17.1946 186.759 16.2357 187.16 15.274C187.503 14.4494 187.844 13.6192 188.187 12.7946C188.393 12.2987 188.604 11.8083 188.807 11.3124C188.851 11.2083 188.906 11.1754 189.022 11.1781C189.757 11.1863 190.493 11.1836 191.229 11.1781C191.399 11.1781 191.437 11.211 191.361 11.3836C190.754 12.7781 190.161 14.1781 189.56 15.5754C188.665 17.6521 187.764 19.7261 186.866 21.8C186.018 23.7672 185.178 25.737 184.313 27.6959C184.157 28.0494 184.165 28.3151 184.346 28.6658C185.692 31.2658 187.009 33.8795 188.338 36.485C189.233 38.2384 190.133 39.9891 191.031 41.7398C191.07 41.8165 191.105 41.8932 191.166 42.0137C190.315 42.0137 189.499 42.0137 188.684 42.0137C188.522 42.0137 188.503 41.8658 188.459 41.7699C187.731 40.2083 186.919 38.6905 186.147 37.1535C185.274 35.4165 184.401 33.6795 183.504 31.9535C183.278 31.5206 183.051 31.085 182.803 30.6357C182.628 30.8 182.567 31.0192 182.471 31.211C181.291 33.5781 180.121 35.9535 178.938 38.3178C178.71 38.7754 178.567 39.2274 178.595 39.748C178.631 40.4137 178.595 41.0822 178.606 41.7507C178.611 41.9699 178.543 42.0247 178.331 42.0192C177.727 42.0055 177.123 42.0083 176.519 42.0192C176.349 42.0192 176.275 41.9754 176.3 41.8C176.308 41.7343 176.3 41.6685 176.3 41.6028C176.3 31.6028 176.3 21.6028 176.3 11.6028C176.3 11.1178 176.248 11.1809 176.714 11.1781C177.252 11.1781 177.791 11.1891 178.329 11.1726C178.551 11.1672 178.631 11.2411 178.6 11.4521C178.589 11.5261 178.6 11.6055 178.6 11.6822C178.6 19.5699 178.6 27.4603 178.6 35.348C178.6 35.4905 178.606 35.6329 178.609 35.7754C178.6 35.7946 178.584 35.8137 178.587 35.8302C178.595 35.8658 178.614 35.8631 178.622 35.8302C178.625 35.8137 178.611 35.7918 178.606 35.7754H178.603Z" fill="#F1F1F1"/>
<path d="M62.4995 11.1808C62.8289 11.1808 63.1611 11.2027 63.4878 11.1753C63.7705 11.1534 63.8886 11.252 63.9517 11.526C64.3388 13.1479 64.7424 14.7698 65.1377 16.389C65.7828 19.0246 66.4225 21.663 67.0704 24.2986C67.8226 27.3616 68.5858 30.4219 69.338 33.4876C70.0161 36.2465 70.6804 39.0109 71.3667 41.7671C71.4217 41.9917 71.375 42.0274 71.1691 42.0246C70.609 42.0164 70.049 42.0219 69.489 42.0219C69.0113 42.0219 68.9783 42 68.9042 41.5507C68.7395 40.5671 68.4293 39.6191 68.2426 38.6438C68.2042 38.4438 68.1108 38.3644 67.8775 38.3671C66.2962 38.3808 64.7149 38.3753 63.1364 38.3726C61.1268 38.3726 59.1172 38.3753 57.1104 38.3698C56.8743 38.3698 56.7508 38.3972 56.6904 38.6767C56.4598 39.726 56.1798 40.7671 55.9355 41.8137C55.897 41.9835 55.8421 42.0246 55.6829 42.0246C55.0679 42.0191 54.453 42.0137 53.838 42.0246C53.6267 42.0301 53.6047 41.9397 53.6459 41.7726C53.9836 40.4246 54.3267 39.0767 54.6561 37.726C54.9334 36.589 55.1887 35.4493 55.466 34.3123C55.93 32.4164 56.4104 30.526 56.8798 28.6301C57.1599 27.4959 57.4316 26.3589 57.7089 25.2219C57.934 24.2986 58.1701 23.3781 58.3952 22.4575C58.6725 21.3205 58.947 20.1835 59.2243 19.0493C59.4275 18.2191 59.6361 17.389 59.8393 16.5589C60.1412 15.3315 60.4377 14.1041 60.737 12.8767C60.855 12.3918 60.9813 11.9096 61.0966 11.4246C61.1378 11.2465 61.2092 11.1644 61.4151 11.1753C61.7747 11.1972 62.1398 11.1808 62.5022 11.1808H62.4995ZM62.5077 13.4712C62.4693 13.5287 62.4528 13.5397 62.45 13.5561C60.7974 20.9917 59.1502 28.4301 57.4865 35.863C57.4179 36.1753 57.5058 36.1917 57.7666 36.189C60.9374 36.1808 64.1082 36.1808 67.279 36.189C67.5673 36.189 67.6222 36.1287 67.559 35.8465C65.9997 28.9479 64.4486 22.0493 62.8948 15.1507C62.7712 14.6 62.6422 14.052 62.5077 13.4657V13.4712Z" fill="#F1F1F1"/>
<path d="M197.661 26.5917C197.661 21.5808 197.664 16.5698 197.653 11.5616C197.653 11.2383 197.738 11.1753 198.051 11.1753C201.979 11.1863 205.911 11.1863 209.839 11.1753C210.116 11.1753 210.226 11.2219 210.21 11.526C210.182 12.0383 210.188 12.5534 210.21 13.0684C210.221 13.326 210.13 13.3726 209.894 13.3698C206.734 13.3616 203.572 13.3643 200.412 13.3643C200.117 13.3643 199.97 13.5059 199.97 13.789C199.97 17.5534 199.975 21.315 199.962 25.0794C199.962 25.389 200.052 25.4465 200.34 25.4465C202.471 25.4356 204.598 25.4465 206.729 25.4356C206.979 25.4356 207.08 25.4849 207.066 25.7589C207.042 26.2602 207.042 26.7671 207.066 27.2684C207.08 27.5424 206.976 27.5835 206.732 27.5835C204.579 27.5753 202.43 27.5835 200.277 27.5726C200.008 27.5726 199.962 27.652 199.962 27.8986C199.97 31.7835 199.973 35.6657 199.959 39.5506C199.959 39.863 200.063 39.8958 200.329 39.8931C203.5 39.8849 206.674 39.8931 209.845 39.8821C210.125 39.8821 210.226 39.9369 210.21 40.2356C210.182 40.7369 210.182 41.2438 210.21 41.7452C210.226 42.0328 210.084 42.0246 209.88 42.0246C206.589 42.0219 203.294 42.0246 200.003 42.0246C199.322 42.0246 198.641 42.0109 197.96 42.0301C197.71 42.0383 197.656 41.9671 197.658 41.726C197.667 37.2082 197.664 32.6904 197.664 28.1726V26.5972L197.661 26.5917Z" fill="#F1F1F1"/>
<path d="M134.564 42.4109C133.153 42.4684 131.893 41.9999 130.682 41.3862C129.737 40.9068 128.84 40.3479 128.06 39.6191C128.033 39.5917 127.978 39.5917 127.945 39.5698C127.566 39.3287 127.56 39.1999 127.865 38.8848C128.217 38.5205 128.554 38.1396 128.884 37.7561C128.999 37.6218 129.065 37.6355 129.194 37.7451C129.899 38.3396 130.63 38.8985 131.445 39.3451C132.609 39.9807 133.842 40.3807 135.176 40.241C136.494 40.1013 137.507 39.3999 138.278 38.3369C138.866 37.5314 139.184 36.6109 139.316 35.6438C139.478 34.4465 139.349 33.2794 138.877 32.1342C138.407 30.9944 137.625 30.1342 136.713 29.3451C135.519 28.3095 134.141 27.5561 132.809 26.7259C132.019 26.2301 131.25 25.704 130.506 25.1369C129.672 24.5013 128.966 23.7643 128.4 22.8958C127.901 22.1342 127.58 21.2958 127.396 20.3944C127.316 20.0109 127.226 19.6109 127.217 19.2383C127.206 18.6273 127.168 18.0109 127.242 17.3917C127.313 16.8109 127.429 16.2438 127.596 15.6876C127.964 14.4684 128.584 13.3917 129.51 12.5095C130.501 11.5643 131.695 11.0246 133.054 10.8438C135.006 10.5835 136.771 11.1561 138.454 12.0766C139.044 12.3999 139.596 12.7835 140.148 13.167C140.345 13.3068 140.4 13.4054 140.197 13.6109C139.813 13.9972 139.459 14.4136 139.107 14.8301C138.973 14.989 138.882 15.0081 138.709 14.8739C137.671 14.0711 136.543 13.4081 135.261 13.0903C133.015 12.5342 131.072 13.3013 130.034 15.6191C129.641 16.4985 129.488 17.4438 129.504 18.4027C129.543 20.4931 130.44 22.1533 132.041 23.4903C133.6 24.7917 135.42 25.6876 137.087 26.8136C138.355 27.6712 139.552 28.6109 140.389 29.9287C141.051 30.9698 141.421 32.0985 141.561 33.3205C141.712 34.6301 141.66 35.9205 141.281 37.1835C140.908 38.4246 140.282 39.5287 139.371 40.4547C138.591 41.2465 137.663 41.8109 136.595 42.1533C135.925 42.367 135.247 42.441 134.566 42.4081L134.564 42.4109Z" fill="#F1F1F1"/>
<path d="M104.34 27.7315C104.34 32.3698 104.337 37.0082 104.348 41.6465C104.348 41.9753 104.261 42.0438 103.953 42.0273C103.396 42 102.833 42.0137 102.273 42.0246C102.089 42.0274 102.007 41.978 102.034 41.789C102.045 41.715 102.034 41.6356 102.034 41.5589C102.034 32.2931 102.034 23.0273 102.042 13.7616C102.042 13.4164 101.946 13.3589 101.628 13.3616C99.7281 13.378 97.8311 13.3616 95.9314 13.378C95.6239 13.3808 95.5745 13.2876 95.5855 13.0164C95.6074 12.5041 95.602 11.989 95.5855 11.4739C95.58 11.2547 95.6212 11.1753 95.8655 11.1753C100.749 11.1835 105.633 11.1835 110.52 11.1753C110.739 11.1753 110.797 11.2383 110.789 11.452C110.775 12 110.77 12.5452 110.789 13.0931C110.797 13.3397 110.704 13.3726 110.487 13.3726C108.554 13.3643 106.624 13.3726 104.692 13.3616C104.409 13.3616 104.326 13.4191 104.326 13.7178C104.337 18.389 104.335 23.0602 104.335 27.7315H104.34Z" fill="#F1F1F1"/>
<path d="M154.272 13.4633C154.269 13.5948 154.261 13.7263 154.261 13.855C154.261 23.0961 154.261 32.34 154.261 41.5811C154.261 41.8715 154.109 42.0167 153.805 42.0167C153.267 42.0167 152.729 42.0085 152.191 42.0194C152.01 42.0222 151.928 41.9756 151.952 41.7866C151.963 41.7016 151.952 41.6112 151.952 41.5235C151.952 32.2715 151.952 23.0167 151.961 13.7646C151.961 13.4386 151.889 13.3537 151.554 13.3564C149.644 13.3756 147.736 13.3592 145.825 13.3701C145.572 13.3701 145.487 13.3126 145.498 13.0496C145.52 12.5044 145.512 11.9564 145.498 11.4085C145.495 11.2222 145.548 11.1729 145.734 11.1729C150.64 11.1783 155.546 11.1783 160.452 11.1729C160.66 11.1729 160.71 11.2386 160.707 11.4359C160.693 11.9729 160.688 12.5071 160.707 13.0441C160.718 13.3153 160.625 13.3729 160.372 13.3701C158.472 13.3619 156.575 13.3646 154.676 13.3674C154.555 13.3674 154.437 13.3811 154.316 13.3866C154.256 13.3811 154.256 13.4167 154.264 13.4605L154.272 13.4633Z" fill="#F1F1F1"/>
<path d="M28.3231 23.1835C27.4226 22.4903 27.0136 21.4465 26.5084 20.4985C25.7672 19.1095 24.9272 17.778 24.2655 16.3479C24.2216 16.252 24.1447 16.167 24.0679 16.0903C23.7879 15.8026 23.5792 15.8328 23.3733 16.1807C23.0329 16.7561 22.7776 17.3725 22.514 17.9807C22.223 18.652 21.8909 19.304 21.5752 19.9643C20.952 21.2766 20.3645 22.6054 19.7166 23.904C19.1318 25.0766 18.6267 26.2848 18.0529 27.4629C17.1031 29.4163 16.2218 31.4026 15.3022 33.3725C14.8629 34.3122 14.3852 35.2328 13.9679 36.1807C13.235 37.852 12.34 39.4465 11.6482 41.1342C11.4395 41.6437 11.1568 42.1287 10.8081 42.5643C10.2947 43.2026 9.30095 43.4931 8.4554 43.2109C7.94203 43.041 7.45886 43.0355 6.95098 43.2109C6.44584 43.3862 5.91326 43.3917 5.40538 43.2273C4.90573 43.0657 4.4308 43.0931 3.93664 43.2355C3.27228 43.4273 2.63537 43.3835 2.09455 42.8903C1.58393 42.4218 1.61687 41.8383 1.74315 41.2273C1.87218 40.5972 2.20162 40.052 2.47066 39.4821C2.88245 38.6163 3.30523 37.7533 3.70055 36.8766C4.06842 36.0602 4.48845 35.2684 4.84534 34.4465C5.73481 32.4026 6.7588 30.4246 7.67848 28.3944C8.22754 27.1862 8.79307 25.9807 9.36409 24.778C10.4265 22.5396 11.4999 20.3095 12.4965 18.0383C12.7902 17.367 13.1746 16.7369 13.471 16.0684C14.3001 14.2026 15.2253 12.3807 16.0461 10.5122C16.4579 9.57251 16.9493 8.6684 17.3666 7.72867C17.7345 6.90128 18.0831 6.06566 18.5032 5.26292C18.871 4.55881 19.4585 4.2273 20.2492 4.19717C20.7351 4.17799 21.2073 4.25196 21.6795 4.34237C21.9046 4.38621 22.127 4.36703 22.3246 4.31223C23.0878 4.09854 23.8345 4.13415 24.5675 4.39443C24.9436 4.52593 25.2758 4.38347 25.6217 4.29854C26.3026 4.13141 26.9642 4.13963 27.6011 4.46566C28.0046 4.67388 28.2956 5.01086 28.5125 5.38621C29.391 6.92045 30.2366 8.47388 31.1096 10.0109C31.9496 11.4903 32.8144 12.9588 33.6133 14.4629C33.6792 14.5862 33.7258 14.7615 33.9207 14.7698C33.9207 14.8136 33.9207 14.8574 33.9235 14.9013C33.9235 15.252 33.9235 15.6026 33.9207 15.9533C33.6846 15.9095 33.6407 15.6931 33.5501 15.5314C32.8089 14.2191 32.0732 12.9068 31.3402 11.5917C30.2668 9.66566 29.1247 7.77799 28.1144 5.81634C27.925 5.44922 27.667 5.14785 27.3018 4.93963C26.6759 4.58073 26.0527 4.70402 25.4405 4.95881C25.0727 5.11223 24.702 5.11771 24.3616 4.94237C23.7796 4.63826 23.1647 4.61634 22.5882 4.8273C22.0583 5.01908 21.5971 4.90676 21.092 4.79991C19.9856 4.56429 19.3158 4.77799 18.7969 5.89306C18.4345 6.67388 18.1463 7.49032 17.7839 8.27114C17.0125 9.93689 16.2136 11.5862 15.4339 13.2465C14.506 15.2136 13.5699 17.1725 12.6694 19.1533C12.2357 20.1095 11.7333 21.0328 11.3132 21.9917C10.3991 24.0821 9.39154 26.1287 8.4252 28.1944C8.09302 28.9068 7.78005 29.6273 7.44513 30.3396C6.97568 31.3369 6.48153 32.3259 6.01483 33.3259C5.01554 35.4739 4.03273 37.63 2.99775 39.7616C2.77813 40.2109 2.51458 40.652 2.42673 41.1506C2.37732 41.4383 2.2428 41.7533 2.51458 42.0163C2.5036 42.0574 2.50085 42.104 2.47889 42.1396C2.33065 42.3752 2.42948 42.4273 2.66557 42.4163C2.93461 42.4026 3.20914 42.3944 3.47543 42.4191C3.76918 42.4465 3.97782 42.3725 4.08214 42.0821C4.24686 42.0958 4.3704 42.0191 4.49119 41.9177C4.8371 41.62 5.16653 41.6346 5.4795 41.9616C5.46303 42.0136 5.45479 42.0684 5.42734 42.115C5.27086 42.3752 5.38616 42.4273 5.63873 42.4163C5.92424 42.4026 6.20975 42.3944 6.49251 42.4218C6.73684 42.4465 6.88509 42.3588 6.98117 42.1479C7.33257 42.1835 7.46435 41.852 7.71142 41.7095C7.93654 41.5807 8.09576 41.5917 8.23303 41.8109C8.2797 41.8848 8.32911 41.9561 8.37578 42.0273C8.36206 42.0684 8.35931 42.115 8.33735 42.1506C8.19734 42.3725 8.28793 42.4218 8.51305 42.4136C8.82052 42.4026 9.12799 42.3972 9.43272 42.4163C9.65784 42.43 9.81706 42.3725 9.89118 42.1506C10.0285 42.167 10.1136 42.0848 10.2014 41.9972C10.4293 41.7698 10.5912 41.5013 10.7422 41.2218C11.0799 40.5972 11.2995 39.915 11.6235 39.2848C12.7381 37.1177 13.7099 34.8794 14.7504 32.6766C15.4861 31.1205 16.2109 29.5561 16.9384 27.9972C18.0502 25.6109 19.1675 23.2273 20.3041 20.852C20.6445 20.1424 21.0014 19.441 21.3308 18.7259C21.8744 17.5451 22.3603 16.3396 22.9835 15.1944C23.4749 14.2931 23.9553 14.2848 24.4989 15.1506C24.5044 15.1588 24.5071 15.1698 24.5126 15.1807C25.3444 16.7287 26.1735 18.2794 27.0108 19.8273C27.3595 20.4711 27.6999 21.1177 28.1254 21.715C28.2901 21.9479 28.4466 22.2191 28.7815 22.2602C28.8419 22.3615 28.9078 22.4629 28.9216 22.5862C28.7541 22.8136 28.5482 23.0054 28.3286 23.1807L28.3231 23.1835Z" fill="#F1F1F1"/>
<path d="M166.513 26.6055C166.513 21.5863 166.516 16.5644 166.505 11.5452C166.505 11.2384 166.593 11.1644 166.884 11.1753C167.433 11.1973 167.982 11.1973 168.528 11.1753C168.814 11.1644 168.877 11.2685 168.871 11.5342C168.858 12.4849 168.866 13.4384 168.866 14.389C168.866 23.4685 168.866 32.5452 168.874 41.6246C168.874 41.9589 168.795 42.0493 168.462 42.0301C167.916 42 167.364 42.0055 166.818 42.0301C166.546 42.0411 166.502 41.9452 166.502 41.7014C166.508 36.6712 166.508 31.6384 166.508 26.6082L166.513 26.6055Z" fill="#F1F1F1"/>
<path d="M33.8987 42.3669C33.8465 42.3669 33.7916 42.3669 33.7394 42.3669C33.6736 42.3642 33.6077 42.356 33.5418 42.356C28.8693 42.356 24.1995 42.356 19.5271 42.356C19.4502 42.356 19.3733 42.3642 19.2992 42.3697C19.1262 42.1998 19.28 41.9779 19.2114 41.7916C19.2031 41.6902 19.1921 41.5861 19.1812 41.4847C19.2031 41.2354 19.387 41.2683 19.5573 41.2683C24.8035 41.2683 30.047 41.2683 35.2933 41.2683C35.8204 41.2683 36.3475 41.2683 36.8718 41.2382C39.2657 41.1039 41.1682 40.0217 42.593 38.1368C44.0288 36.2409 44.5257 34.0847 44.2018 31.7368C43.6719 27.9012 40.4434 24.6765 36.2871 24.7423C34.5658 24.7697 32.8417 24.7368 31.1177 24.7341C30.1596 24.7341 29.3085 24.4519 28.581 23.819C28.2571 23.5368 28.2543 23.5368 28.5701 23.2437C28.6305 23.4026 28.765 23.419 28.9105 23.4354C29.1795 23.4656 29.4184 23.356 29.6682 23.2902C29.7697 23.3313 29.8713 23.3752 29.9729 23.4163C30.2227 23.5341 30.4863 23.5971 30.7635 23.5998C30.813 23.608 30.8624 23.6135 30.9118 23.6217C32.8088 23.63 34.7085 23.6135 36.6055 23.6574C38.5712 23.7039 40.3281 24.3505 41.86 25.6026C43.3397 26.8135 44.3527 28.3395 44.9018 30.1532C45.3301 31.5697 45.4316 33.0163 45.201 34.493C44.9402 36.1752 44.2924 37.682 43.2464 39.008C42.2965 40.2108 41.1078 41.1149 39.6775 41.7067C38.5794 42.1615 37.4483 42.3587 36.2679 42.3532C35.4772 42.3532 34.6893 42.3587 33.8987 42.3642V42.3669Z" fill="#030303"/>
<path d="M47.4881 17.3888C44.3805 17.3915 41.2755 17.3943 38.1679 17.397C37.2345 17.397 36.3011 17.4052 35.3704 17.408C35.2167 17.3997 35.0657 17.3915 34.912 17.386C34.9065 17.1093 34.8351 16.849 34.7061 16.6052C34.7802 16.523 34.857 16.4408 34.9312 16.3614C35.0822 16.1806 35.2743 16.1422 35.5077 16.1422C39.4005 16.1477 43.2906 16.1532 47.1834 16.1367C47.5321 16.1367 47.6089 16.2381 47.576 16.5504C47.5485 16.8107 47.5623 17.0737 47.5568 17.334C47.5321 17.3504 47.5101 17.3696 47.4854 17.386L47.4881 17.3888Z" fill="#030303"/>
<path d="M30.9121 23.6248C30.8627 23.6166 30.8133 23.6111 30.7639 23.6029C30.7529 23.5371 30.7447 23.4549 30.6651 23.4577C30.418 23.4631 30.2066 23.3234 29.9678 23.3097C29.7893 23.0823 29.4544 23.0577 29.3062 22.7919C29.8772 22.5645 30.2176 22.1426 30.3686 21.5535C30.3988 21.4385 30.4564 21.3289 30.4839 21.2138C30.5415 20.97 30.6843 20.8549 30.9314 20.8083C31.409 20.7179 31.8565 20.5618 32.1777 20.159C32.3781 19.9097 32.5072 19.622 32.6499 19.3398C32.9162 18.8166 33.4406 18.6385 33.9155 18.3892L33.921 18.5864C33.921 18.9152 33.921 19.2412 33.921 19.57C33.921 20.7618 33.9128 21.9508 33.9265 23.1426C33.9292 23.422 33.8688 23.5234 33.5668 23.5152C32.8119 23.4933 32.0542 23.507 31.2992 23.5097C31.162 23.5097 31.0082 23.4714 30.9149 23.6275L30.9121 23.6248Z" fill="#F1F1F1"/>
<path d="M36.4927 14.7096C36.8661 14.3041 37.2093 13.937 37.5469 13.5616C37.632 13.4657 37.7309 13.4603 37.8407 13.4603C41.0142 13.4603 44.1851 13.4603 47.3586 13.4575C47.5316 13.4575 47.5865 13.5041 47.5782 13.6767C47.5645 13.9616 47.5673 14.2466 47.5782 14.5288C47.5837 14.674 47.5316 14.7288 47.3916 14.7123C47.3257 14.7041 47.2598 14.7123 47.1939 14.7123C43.7568 14.7123 40.3224 14.7123 36.8853 14.7123C36.7673 14.7123 36.652 14.7123 36.4955 14.7123L36.4927 14.7096Z" fill="#030303"/>
<path d="M39.2382 11.9452C39.5347 11.4877 39.9574 11.2466 40.2292 10.8658C40.2622 10.8219 40.3967 10.8439 40.4845 10.8439C42.7302 10.8439 44.9786 10.8439 47.2242 10.8384C47.4301 10.8384 47.5235 10.8795 47.4988 11.1014C47.4686 11.3699 47.6086 11.7206 47.4466 11.8904C47.2819 12.063 46.9277 11.9425 46.6587 11.9425C44.3252 11.948 41.9889 11.9425 39.6554 11.9425H39.2409L39.2382 11.9452Z" fill="#030303"/>
<path d="M178.603 35.7754C178.608 35.7945 178.622 35.8136 178.619 35.83C178.611 35.8655 178.592 35.8655 178.584 35.83C178.581 35.8136 178.597 35.7945 178.606 35.7754H178.603Z" fill="#B959C4"/>
<path d="M47.4882 17.3888C47.5127 17.3724 47.5346 17.3533 47.5592 17.3369C47.5674 17.3943 47.5346 17.3997 47.4882 17.3888Z" fill="#2D2C2B"/>
<path d="M154.272 13.4629C154.264 13.422 154.266 13.3837 154.324 13.3892C154.307 13.4138 154.288 13.4384 154.272 13.4629Z" fill="#F1F1F1"/>
<path d="M19.2994 42.3697C19.3763 42.3642 19.4532 42.356 19.5273 42.356C24.1998 42.356 28.8695 42.356 33.542 42.356C33.6079 42.356 33.6738 42.3614 33.7397 42.3669C33.7287 42.482 33.671 42.545 33.5475 42.5423C33.4706 42.5423 33.3938 42.5423 33.3169 42.5423C28.7707 42.5423 24.2217 42.5423 19.6755 42.5368C19.5465 42.5368 19.3516 42.6409 19.2994 42.3998V42.3669V42.3697Z" fill="#F1F1F1"/>
<path d="M19.2983 42.3697V42.4026C19.2572 42.408 19.2134 42.4108 19.1723 42.4163C19.1284 42.4163 19.0846 42.4163 19.0408 42.4163C19.0408 42.2683 19.0353 42.1176 19.0408 41.9697C19.0435 41.8628 19.0408 41.7396 19.2134 41.7916C19.2819 41.9779 19.1312 42.1971 19.301 42.3697H19.2983Z" fill="#F1F1F1"/>
<path d="M19.0383 42.4165C19.0822 42.4165 19.1261 42.4165 19.17 42.4165C19.1591 42.4631 19.1563 42.529 19.0877 42.5125C19.0658 42.507 19.0548 42.4494 19.0383 42.4165Z" fill="#F1F1F1"/>
<path d="M5.47163 41.9615C5.1605 41.6346 4.83107 41.62 4.48333 41.9177C4.36528 42.019 4.239 42.0985 4.07428 42.0821C4.22527 41.7451 4.37077 41.4081 4.52451 41.0738C4.9665 40.1177 5.40849 39.1642 5.85323 38.2108C6.11678 37.6656 6.38307 37.1204 6.64113 36.5725C7.45374 34.8492 8.27183 33.1286 9.07071 31.3999C9.35074 30.7971 9.67193 30.2136 9.8943 29.5862C9.91078 29.5588 9.93274 29.5341 9.94646 29.504C10.7234 27.8547 11.503 26.2081 12.2772 24.5588C13.0212 22.967 13.7569 21.3725 14.4982 19.7807C15.006 18.8519 15.4096 17.8738 15.8626 16.9204C17.2572 13.9834 18.6326 11.0382 20.0162 8.0985C20.2084 7.79439 20.2825 7.42453 20.5213 7.11768C20.6504 7.32863 20.7602 7.51494 20.8727 7.6985C20.9853 7.91494 21.0951 8.13137 21.2077 8.34781C21.1747 8.71494 20.8974 8.98617 20.8151 9.33411C19.9036 11.2711 18.9867 13.2081 18.078 15.1451C17.7486 15.8464 17.4356 16.556 17.1144 17.2601C17.054 17.3752 16.9909 17.4903 16.9332 17.6081C15.9202 19.7615 14.9045 21.9122 13.8942 24.0684C13.3561 25.2136 12.8318 26.3643 12.3019 27.5122C12.2635 27.5779 12.2196 27.6382 12.1866 27.7067C11.4536 29.2656 10.7179 30.8245 9.99039 32.3862C9.48525 33.4711 8.98836 34.5615 8.48871 35.6519C7.82984 36.9067 7.27804 38.2136 6.66035 39.4903C6.26228 40.3149 5.8697 41.1396 5.47438 41.967L5.47163 41.9615Z" fill="#F3C0D5"/>
<path d="M8.37026 42.0303C8.32359 41.959 8.27417 41.8878 8.2275 41.8138C8.08749 41.5947 7.92826 41.5837 7.7059 41.7125C7.45882 41.8522 7.3243 42.1837 6.97565 42.1508C7.1184 41.8111 7.24743 41.4659 7.40391 41.1344C7.78002 40.3371 8.18358 39.5536 8.54595 38.7536C8.73538 38.3399 8.97697 37.9481 9.10325 37.5042C9.41347 36.8659 9.73192 36.233 10.0284 35.5892C10.3771 34.8248 10.7806 34.0851 11.0771 33.296C11.2446 32.9563 11.4203 32.6166 11.5822 32.2741C12.3839 30.57 13.1828 28.8686 13.9816 27.1645C14.9288 25.1399 15.8731 23.1125 16.8203 21.0878C17.1826 20.3782 17.5066 19.6522 17.836 18.9262C18.3055 17.8933 18.8134 16.8769 19.2993 15.8522C20.0625 14.2467 20.8202 12.6385 21.5834 11.0303C22.1324 11.0549 22.1516 11.0851 22.2999 11.6248C22.3713 11.8878 22.2532 12.17 22.3987 12.4221C21.932 13.4166 21.4653 14.4084 21.0014 15.4056C20.5868 16.2905 20.1778 17.1782 19.766 18.0659C19.733 18.1234 19.6946 18.1755 19.6671 18.2358C18.7996 20.0632 17.9321 21.8878 17.0701 23.7179C16.4222 25.0933 15.7825 26.4714 15.1402 27.8467C14.8491 28.3234 14.646 28.844 14.4072 29.3453C13.7428 30.7481 13.0894 32.1536 12.4333 33.5563C12.178 34.0769 11.9199 34.5919 11.6728 35.1152C10.9893 36.5563 10.3139 38.0001 9.6276 39.4412C9.21581 40.3097 8.79303 41.17 8.373 42.0358L8.37026 42.0303Z" fill="#F1C3D7"/>
<path d="M33.9209 15.9592C33.9209 16.3976 33.9209 16.8332 33.9209 17.2716C33.759 17.0798 33.6739 16.8469 33.575 16.625C33.7535 16.4852 33.597 16.362 33.5393 16.2551C32.7405 14.8003 31.9333 13.351 31.1262 11.9017C30.5607 10.8907 29.9842 9.88799 29.4187 8.87977C28.8971 7.94552 28.3452 7.03319 27.8895 6.06059C27.4366 5.08799 26.4455 4.70991 25.4599 5.36744C25.1195 5.59484 24.7434 5.6058 24.4112 5.36744C23.8073 4.9373 23.1676 4.87429 22.5225 5.19484C22.0475 5.43045 21.6138 5.3784 21.1773 5.16744C20.2796 4.73456 19.4066 5.15922 19.0771 6.04415C18.3139 8.10717 17.2652 10.0387 16.3785 12.0469C15.7114 13.5537 15.0004 15.0442 14.2893 16.5291C13.1912 18.825 12.0986 21.1236 11.0417 23.4414C10.704 24.1784 10.2894 24.877 9.98472 25.625C9.26271 27.3839 8.34578 29.0524 7.59906 30.8003C7.29159 31.5236 6.87705 32.2031 6.56683 32.9209C5.77344 34.7455 4.8373 36.5017 4.05489 38.3291C3.70349 39.151 3.2917 39.9483 2.90735 40.7592C2.84147 40.8962 2.76185 41.0387 2.91559 41.1757C2.81401 41.4743 2.674 41.7537 2.50654 42.0195C2.23476 41.7565 2.36928 41.4414 2.41869 41.1537C2.50654 40.6524 2.77009 40.214 2.98971 39.7647C4.02743 37.6332 5.0075 35.477 6.00679 33.3291C6.47349 32.3291 6.9649 31.34 7.43709 30.3428C7.77201 29.6332 8.08498 28.9099 8.41716 28.1976C9.3835 26.1318 10.391 24.0852 11.3052 21.9948C11.7252 21.0359 12.2276 20.1099 12.6614 19.1565C13.5618 17.1784 14.498 15.2168 15.4259 13.2496C16.2083 11.5894 17.0072 9.94004 17.7759 8.27429C18.1382 7.49347 18.4265 6.67703 18.7889 5.89621C19.3077 4.7784 19.9776 4.5647 21.0839 4.80306C21.5891 4.91265 22.0503 5.02497 22.5801 4.83045C23.1594 4.61949 23.7716 4.64141 24.3536 4.94552C24.694 5.12086 25.0646 5.11538 25.4325 4.96196C26.0474 4.70717 26.6706 4.58388 27.2938 4.94278C27.6562 5.151 27.917 5.45511 28.1064 5.81949C29.1167 7.78114 30.2587 9.66881 31.3321 11.5948C32.0651 12.9099 32.8009 14.225 33.5421 15.5346C33.6354 15.6962 33.6793 15.9126 33.9127 15.9565L33.9209 15.9592Z" fill="#F1C3D7"/>
<path d="M28.7761 22.2628C28.4412 22.2217 28.2874 21.9505 28.12 21.7176C27.6945 21.1231 27.3513 20.4738 27.0054 19.8299C26.1681 18.282 25.339 16.7313 24.5072 15.1834C24.5017 15.1724 24.4989 15.1642 24.4935 15.1532C23.9499 14.2847 23.4695 14.293 22.978 15.1971C22.3549 16.3395 21.8689 17.5478 21.3254 18.7286C20.9959 19.4436 20.6391 20.145 20.2986 20.8546C19.1621 23.2299 18.0475 25.6135 16.9329 27.9998C16.2054 29.5587 15.4807 31.1231 14.7449 32.6793C13.7044 34.882 12.7326 37.1176 11.618 39.2875C11.2941 39.9176 11.0745 40.5971 10.7368 41.2245C10.5858 41.5039 10.4238 41.7751 10.196 41.9998C10.1081 42.0875 10.023 42.1697 9.88574 42.1532C10.2015 41.471 10.5199 40.7888 10.8356 40.1067C11.2886 39.1286 11.7388 38.1478 12.189 37.1669C12.7793 35.9258 13.3778 34.6875 13.9598 33.4409C14.2974 32.7204 14.6708 32.0135 14.9563 31.2683C15.5905 29.9341 16.2329 28.6025 16.8615 27.2628C17.8993 25.0519 18.9287 22.8354 19.961 20.6245C20.0076 20.5395 20.0625 20.4573 20.1037 20.3697C20.8889 18.6984 21.6685 17.0245 22.4619 15.3587C22.86 14.5204 23.2141 13.6628 23.6589 12.8491C23.9554 13.3916 24.2519 13.9368 24.5538 14.4793C25.1002 15.4683 25.6492 16.4573 26.1955 17.4436C26.7556 18.5669 27.3705 19.6628 27.9937 20.7505C28.2545 21.2546 28.5153 21.7587 28.7761 22.2628Z" fill="#F1C3D7"/>
<path d="M12.1924 37.1672C11.7422 38.148 11.2892 39.1261 10.839 40.1069C10.5233 40.7891 10.2076 41.4713 9.88913 42.1535C9.815 42.3754 9.65578 42.433 9.43066 42.4193C9.12593 42.4001 8.81572 42.4028 8.51099 42.4165C8.28587 42.4248 8.19528 42.3754 8.33529 42.1535C8.35725 42.1179 8.36 42.0713 8.37372 42.0302C8.79101 41.1672 9.21378 40.3042 9.62832 39.4357C10.3119 37.9946 10.99 36.5508 11.6736 35.1097C11.9206 34.5864 12.1814 34.0713 12.434 33.5508C12.5136 33.5617 12.574 33.5946 12.6015 33.6741C12.5521 33.8056 12.5109 33.9426 12.4505 34.0686C11.3908 36.2987 10.3311 38.5261 9.26869 40.7535C9.08201 41.148 8.88984 41.5426 8.7059 41.9371C8.66473 42.0248 8.56864 42.1316 8.78277 42.1617C9.42792 42.2576 9.58714 42.1809 9.86716 41.5974C9.94403 41.4385 10.0099 41.2795 10.0868 41.1206C10.7264 39.8056 11.2865 38.4549 11.9646 37.1617C12.0414 37.1617 12.1183 37.1672 12.1952 37.1672H12.1924Z" fill="#B959C4"/>
<path d="M9.1029 37.5013C8.97387 37.9424 8.73229 38.3342 8.54561 38.7506C8.18048 39.5533 7.77967 40.3369 7.40357 41.1314C7.24708 41.4629 7.11531 41.8081 6.9753 42.1479C6.87921 42.3588 6.73097 42.4437 6.48664 42.4218C6.20387 42.3944 5.91562 42.4027 5.63285 42.4163C5.38028 42.4273 5.26498 42.3753 5.42146 42.115C5.44892 42.0684 5.45715 42.0136 5.47362 41.9616C5.86895 41.1369 6.25878 40.3095 6.65959 39.4848C7.27728 38.2081 7.82909 36.9013 8.48796 35.6465C8.55384 35.6684 8.61973 35.6903 8.68562 35.715C7.77967 37.6547 6.87647 39.5944 5.96778 41.5314C5.66854 42.167 5.66305 42.1643 6.37957 42.1561C6.53056 42.1561 6.66783 42.178 6.75293 41.9835C7.05766 41.2958 7.38709 40.6163 7.70829 39.9369C8.09538 39.1205 8.48796 38.304 8.88053 37.4876C8.95466 37.4903 9.02878 37.4931 9.1029 37.4985V37.5013Z" fill="#B959C4"/>
<path d="M2.50665 42.0193C2.67411 41.7536 2.81412 41.4741 2.9157 41.1755C3.52515 39.8933 4.13186 38.6084 4.74406 37.3289C5.08723 36.6111 5.39195 35.8741 5.78178 35.1782C5.82571 35.2577 5.90258 35.2632 5.98219 35.2577C4.99114 37.3755 4.00009 39.4933 3.00355 41.6111C2.74274 42.1645 2.73725 42.1481 3.34396 42.1673C3.63222 42.1755 3.78321 42.0988 3.90949 41.8193C4.46953 40.5864 5.06526 39.37 5.65001 38.1481C5.71864 38.17 5.78728 38.1919 5.85591 38.2138C5.41392 39.1673 4.96918 40.1234 4.52719 41.0769C4.37345 41.4111 4.22795 41.7481 4.07696 42.0851C3.97264 42.3755 3.76399 42.4495 3.47025 42.4221C3.20121 42.3974 2.92942 42.4056 2.66039 42.4193C2.42429 42.4303 2.32546 42.3782 2.47371 42.1426C2.49567 42.107 2.49841 42.0604 2.50939 42.0193H2.50665Z" fill="#B959C4"/>
<path d="M28.7761 22.2632C28.5153 21.7591 28.2545 21.255 27.9937 20.7509C28.0595 20.729 28.1254 20.707 28.1913 20.6824C28.3835 21.0221 28.5839 21.3591 28.7678 21.7043C29.0561 22.2386 29.0396 22.2276 29.4761 21.8166C29.7012 21.6029 29.7095 21.4523 29.5557 21.181C29.0314 20.2632 28.5455 19.3262 28.0431 18.3947C28.1144 18.3673 28.1639 18.318 28.1941 18.2495C28.7816 19.3098 29.369 20.3701 29.9648 21.4249C30.0389 21.5564 29.9812 21.6194 29.9044 21.7043C29.6381 21.9947 29.3773 22.2879 29.1137 22.5783C29.0478 22.5783 28.982 22.5838 28.9161 22.5838C28.9051 22.4605 28.8365 22.3618 28.7761 22.2577V22.2632Z" fill="#B959C4"/>
<path d="M28.5703 23.2467C28.6033 23.044 28.7954 22.9645 28.9107 22.8248C28.9684 22.7535 29.0205 22.7974 29.0754 22.8412C29.2704 22.9946 29.4708 23.1426 29.6684 23.2933C29.4186 23.359 29.1825 23.4714 28.9107 23.4385C28.7652 23.422 28.6307 23.4029 28.5703 23.2467Z" fill="#2D2C2B"/>
<path d="M29.9728 23.419C29.9728 23.3806 29.97 23.345 29.97 23.3066C30.2089 23.3203 30.4203 23.4628 30.6673 23.4546C30.747 23.4546 30.7552 23.5368 30.7662 23.5998C30.4889 23.5998 30.2253 23.5368 29.9755 23.4162L29.9728 23.419Z" fill="#F1F1F1"/>
<path d="M34.0411 17.3399C34.2634 17.0961 34.4858 16.8522 34.7054 16.6084C34.8345 16.8522 34.9031 17.1125 34.9113 17.3892C34.8235 17.3974 34.7329 17.4057 34.645 17.4139C34.4474 17.4057 34.2497 17.3974 34.0493 17.3892C34.0548 17.37 34.0521 17.3536 34.0383 17.3372L34.0411 17.3399Z" fill="#2D2C2B"/>
<path d="M29.1109 22.581C29.3745 22.2879 29.6353 21.9947 29.9016 21.707C29.9784 21.6221 30.0361 21.5618 29.962 21.4276C29.3662 20.3728 28.7815 19.3098 28.1913 18.2522C27.8783 17.6687 27.5736 17.0851 27.2524 16.507C26.9806 16.0139 26.7445 15.5016 26.4233 15.0358C26.3821 14.9481 26.3409 14.8577 26.2943 14.7728C25.9099 14.055 25.5256 13.3372 25.1412 12.6194C25.2428 12.5591 25.2016 12.4796 25.1824 12.392C25.1275 12.1153 25.0369 11.8385 25.1055 11.5564C25.1742 11.2605 25.3444 11.2057 25.5997 11.3536C25.7177 11.4221 25.7891 11.5783 25.9593 11.5591C26.0856 11.7728 26.2174 11.9865 26.3409 12.2029C27.1096 13.5427 27.8783 14.8851 28.647 16.2248C29.1823 17.2522 29.7671 18.2495 30.3628 19.244C30.5522 19.6714 30.8048 20.0605 31.0464 20.4687C31.266 20.255 31.4609 20.0495 31.6723 19.8605C31.9935 19.5728 32.1939 19.2714 31.8672 18.8632C32.0484 18.5235 31.8288 18.2111 31.8041 17.8824C31.7986 17.8221 31.7299 17.7564 31.7903 17.7016C31.8617 17.6358 31.9386 17.6933 31.999 17.7317C32.1664 17.8358 32.3202 17.9618 32.5371 17.929C32.6578 18.0194 32.6688 18.1701 32.7347 18.2906C32.8528 18.4988 32.9241 18.5701 33.1108 18.3344C33.3222 18.0659 33.5912 17.844 33.8356 17.6002C34.0168 17.8468 33.8713 18.1262 33.9152 18.3892C33.443 18.6385 32.9159 18.8194 32.6496 19.3399C32.5069 19.6194 32.3751 19.907 32.1774 20.1591C31.8562 20.5618 31.4087 20.718 30.9311 20.8084C30.684 20.855 30.5385 20.9701 30.4836 21.2139C30.4561 21.329 30.3985 21.4385 30.3683 21.5536C30.2173 22.1427 29.8769 22.5646 29.3058 22.792C29.1796 22.781 29.1082 22.7153 29.1082 22.5837L29.1109 22.581Z" fill="#F1C3D7"/>
<path d="M34.0525 17.389C33.9564 17.4329 33.8768 17.4931 33.8411 17.5972C33.5968 17.8411 33.3278 18.063 33.1164 18.3315C32.9297 18.5671 32.8583 18.4959 32.7403 18.2877C32.6716 18.1671 32.6634 18.0137 32.5426 17.926C32.4987 17.8164 32.452 17.7068 32.4081 17.5972C32.4548 17.5479 32.5014 17.5014 32.5508 17.452C32.5673 17.4657 32.5865 17.4794 32.5975 17.4959C32.7485 17.6794 32.7787 18.0575 32.9736 18.0575C33.1823 18.0575 33.3113 17.7205 33.498 17.5561C33.6846 17.389 33.6325 17.2548 33.5309 17.0794C33.2179 16.5315 32.916 15.9781 32.6112 15.4246C32.6771 15.4027 32.743 15.3808 32.8089 15.3589C33.0642 15.7808 33.3195 16.2 33.5748 16.6219C33.6764 16.8466 33.7588 17.0767 33.9207 17.2685C33.9619 17.2904 34.0004 17.3123 34.0415 17.337C34.0553 17.3507 34.058 17.3698 34.0525 17.389Z" fill="#B959C4"/>
<path d="M28.3756 39.6656C25.4326 39.6656 22.4924 39.6601 19.5495 39.6738C19.2667 39.6738 19.2091 39.5971 19.2173 39.3313C19.2365 38.5834 19.2228 38.5807 19.9585 38.5807C25.4793 38.5807 31.0028 38.5807 36.5236 38.5807C37.7453 38.5807 38.8681 38.282 39.8372 37.5231C41.273 36.3998 41.984 34.9094 42.0334 33.1012C42.0993 30.7122 40.6608 28.5505 38.4591 27.7313C37.8661 27.5122 37.2511 27.4355 36.6197 27.4355C34.7749 27.4355 32.93 27.4327 31.0879 27.419C29.3886 27.4081 27.9254 26.8135 26.6982 25.6327C26.5225 25.4629 26.5006 25.3587 26.6927 25.1971C26.8767 25.0437 27.0112 24.7587 27.2088 24.7177C27.3928 24.6766 27.5465 24.9807 27.7195 25.1231C28.6968 25.9286 29.8196 26.3231 31.0824 26.3259C32.8614 26.3286 34.6403 26.3642 36.4166 26.3259C39.6231 26.2601 41.9401 28.356 42.7637 30.9368C43.7712 34.0985 42.3217 37.6026 39.3458 39.0738C38.4865 39.4985 37.5668 39.6683 36.6087 39.6656C33.8634 39.6574 31.1209 39.6656 28.3756 39.6656Z" fill="#030303"/>
<path d="M28.2627 36.9782C25.3526 36.9782 22.4454 36.9755 19.5354 36.9837C19.2773 36.9837 19.2087 36.9179 19.2142 36.6631C19.2306 35.896 19.2197 35.896 20.0021 35.896C25.5119 35.896 31.0217 35.896 36.5315 35.896C37.2919 35.896 37.9755 35.7097 38.5575 35.1892C39.436 34.4028 39.749 33.0686 39.3125 31.9097C38.9062 30.8357 37.9124 30.1426 36.7182 30.1289C34.9063 30.1097 33.0971 30.107 31.2852 30.0933C28.7925 30.0741 26.7171 29.1207 24.9985 27.3398C24.8612 27.1974 24.8503 27.1152 24.9985 26.9809C25.1852 26.8138 25.3307 26.5179 25.5338 26.4741C25.7644 26.4248 25.8907 26.7645 26.0692 26.9289C27.5736 28.3015 29.3416 29.0083 31.3813 29.0165C33.1383 29.0248 34.8925 29.022 36.6495 29.0275C38.6179 29.033 40.2486 30.4576 40.4957 32.3837C40.7647 34.4768 39.6062 36.3261 37.6955 36.8576C37.3331 36.959 36.9625 36.9782 36.5891 36.9782C33.8109 36.9782 31.0354 36.9782 28.2572 36.9782H28.2627Z" fill="#030303"/>
<path d="M20.8721 7.69586C20.7596 7.5123 20.6498 7.326 20.5207 7.11504C20.2819 7.42463 20.2078 7.79175 20.0184 8.09586C19.8729 8.07394 19.7438 8.05477 19.6615 8.23011C19.343 8.92326 19.0136 9.61093 18.6896 10.3041C17.5888 12.6438 16.4879 14.9808 15.3898 17.3205C15.0192 18.1096 14.6623 18.9041 14.2972 19.6959L13.9787 20.3096C13.803 19.9616 13.9375 19.5918 13.8991 19.2356C13.8826 19.0685 13.9238 18.8849 13.7371 18.7781C13.9128 18.337 14.083 17.8931 14.3136 17.4767C14.4976 17.0931 14.687 16.7123 14.8682 16.3287C16.4055 13.0602 17.9484 9.79449 19.472 6.52052C19.6203 6.20271 19.8619 5.90408 19.8234 5.51504C20.2901 5.52874 20.7596 5.42737 21.2208 5.56435C21.1192 5.72052 21.1439 5.86572 21.229 6.02189C21.4487 6.42189 21.6491 6.83285 21.8742 7.23011C22.2613 7.90682 22.5934 8.61641 23.0245 9.26847C23.1068 9.44107 23.1864 9.61367 23.2688 9.78627C23.148 9.926 23.2001 10.0931 23.1837 10.252C23.1507 10.5808 23.266 10.9205 23.1041 11.2411C22.6978 10.652 22.415 9.99175 22.0526 9.37805C21.7397 8.84381 21.4569 8.29038 21.1494 7.7534C21.0945 7.65751 21.0122 7.43833 20.8667 7.70134L20.8721 7.69586Z" fill="#F7D086"/>
<path d="M20.8122 9.32859C20.8973 8.98064 21.1718 8.70941 21.2047 8.34229C21.5095 8.87927 21.8416 9.39982 22.064 9.9779C21.9569 10.1806 21.8526 10.3861 21.7456 10.5889C21.644 10.356 21.5589 10.43 21.4793 10.6026C21.1938 11.2053 20.9082 11.8053 20.6255 12.408C20.1121 13.5067 19.607 14.608 19.0881 15.7012C18.4677 17.0135 17.839 18.3231 17.2131 19.6327C17.1033 19.5998 17.0539 19.5231 17.0593 19.4135C17.0786 19.1012 17.0209 18.7889 17.0978 18.4765C17.1307 18.3505 17.2186 18.1615 16.966 18.1231C17.0676 17.882 17.1664 17.6409 17.268 17.3998C17.2927 17.3642 17.3229 17.3313 17.3394 17.293C18.3798 15.0848 19.4176 12.8765 20.4553 10.6656C20.6255 10.3012 20.7847 9.93133 20.9549 9.5642C21.0263 9.40804 21.0235 9.30667 20.8122 9.32585V9.32859Z" fill="#F7D086"/>
<path d="M14.2974 19.6962C14.6598 18.9044 15.0194 18.1099 15.3901 17.3208C16.4882 14.9811 17.589 12.6441 18.6899 10.3044C19.0138 9.614 19.3433 8.92633 19.6617 8.23044C19.7413 8.05509 19.8731 8.07153 20.0186 8.09619C18.635 11.0387 17.2596 13.9839 15.865 16.9181C15.412 17.8715 15.0085 18.8496 14.5006 19.7784C14.4347 19.751 14.3661 19.7236 14.3002 19.6962H14.2974Z" fill="#F47A53"/>
<path d="M22.0644 9.98065C21.842 9.40257 21.5098 8.87928 21.2051 8.34503C21.0925 8.1286 20.9827 7.91216 20.8701 7.69572C21.0156 7.43271 21.098 7.65188 21.1529 7.74777C21.4604 8.28476 21.7432 8.83819 22.0561 9.37243C22.4157 9.98887 22.6985 10.6464 23.1076 11.2354C23.2476 11.5259 23.3903 11.819 23.5303 12.1094L23.4205 12.3505C23.2915 12.1396 23.1652 11.9286 23.0197 11.6902C22.9758 11.7779 22.9483 11.8354 22.9209 11.893C22.3718 13.0711 21.82 14.2464 21.2737 15.4245C20.8784 16.2738 20.4858 17.1231 20.0905 17.9752C20.0493 18.0272 20.0109 18.0793 19.9697 18.1313L19.7638 18.0546C20.1756 17.167 20.5846 16.282 20.9992 15.3943C21.4631 14.3998 21.9326 13.4053 22.3965 12.4108C22.5338 12.1423 22.6683 11.8711 22.8083 11.6026C22.8632 11.4985 22.8852 11.3971 22.8221 11.2957C22.5558 10.8628 22.3801 10.3807 22.0671 9.97517L22.0644 9.98065Z" fill="#F47A53"/>
<path d="M17.2704 17.4025C17.1689 17.6436 17.07 17.8847 16.9685 18.1258C16.4633 19.1943 15.9582 20.2628 15.453 21.3313C15.1675 21.9423 14.882 22.556 14.5938 23.1669C13.8992 24.6381 13.2019 26.1066 12.5046 27.5779C12.436 27.556 12.3673 27.534 12.2987 27.5094C12.8285 26.3614 13.3556 25.2107 13.891 24.0655C14.9012 21.9121 15.917 19.7587 16.93 17.6053C16.9849 17.4875 17.0508 17.3724 17.1112 17.2573C17.1634 17.3066 17.2155 17.356 17.2677 17.4053L17.2704 17.4025Z" fill="#F51A95"/>
<path d="M14.2974 19.6958C14.3632 19.7232 14.4319 19.7506 14.4978 19.778C13.7565 21.3725 13.0208 22.967 12.2768 24.5561C11.5054 26.2054 10.723 27.852 9.94607 29.5013C9.93234 29.5314 9.91038 29.5561 9.89391 29.5835C9.8445 29.5259 9.79234 29.4684 9.74292 29.4109C10.2316 28.3506 10.7202 27.2931 11.2117 26.2355C11.7333 25.1095 12.2549 23.9807 12.7765 22.8547C13.2102 22.0218 13.6028 21.1698 13.9817 20.3122L14.3001 19.6985L14.2974 19.6958Z" fill="#F51A95"/>
<path d="M9.74277 29.4108C9.79218 29.4683 9.84434 29.5258 9.89376 29.5834C9.66864 30.2108 9.34745 30.7943 9.07017 31.3971C8.27129 33.1258 7.45319 34.8464 6.64059 36.5697C6.38253 37.1176 6.11623 37.6628 5.85269 38.208C5.78405 38.1861 5.71542 38.1642 5.64679 38.1423C5.6962 38.0217 5.74013 37.8984 5.79504 37.7806C6.41822 36.4381 7.0414 35.0957 7.66458 33.7532C7.98578 33.0765 8.30972 32.4025 8.63367 31.7258C9.00428 30.9532 9.37215 30.1806 9.74277 29.4053V29.4108Z" fill="#D934AC"/>
<path d="M17.2702 17.4025C17.218 17.3532 17.1659 17.3038 17.1137 17.2545C17.4349 16.5504 17.7479 15.8408 18.0773 15.1395C18.986 13.1997 19.9002 11.2655 20.8144 9.32849C21.0258 9.30932 21.0312 9.41069 20.9571 9.56685C20.7897 9.93397 20.6304 10.3038 20.4575 10.6682C19.4198 12.8792 18.382 15.0874 17.3416 17.2956C17.3224 17.334 17.2949 17.3669 17.2702 17.4025Z" fill="#F47A53"/>
<path d="M12.3019 27.5098C12.3706 27.5317 12.4392 27.5536 12.5078 27.5783C12.0301 28.6057 11.5497 29.6331 11.072 30.6605C10.6273 31.6194 10.1853 32.5783 9.74331 33.5399C9.39191 34.2659 9.04051 34.992 8.68637 35.718C8.62048 35.6961 8.5546 35.6741 8.48871 35.6495C8.98835 34.5618 9.48525 33.4714 9.99038 32.3837C10.7179 30.8221 11.4536 29.2632 12.1866 27.7043C12.2196 27.6358 12.2635 27.5728 12.3019 27.5098Z" fill="#D934AC"/>
<path d="M16.8203 21.0824C15.8759 23.107 14.9288 25.1344 13.9817 27.1591C13.1828 28.8632 12.3839 30.5673 11.5823 32.2687C11.4203 32.6139 11.2474 32.9508 11.0772 33.2906C11.0058 33.2878 10.9344 33.2851 10.863 33.2824C10.8823 33.2303 10.896 33.1782 10.9179 33.1289C11.9694 30.8741 13.0236 28.6221 14.075 26.37C14.6186 25.2029 15.1567 24.033 15.6975 22.8659C15.9967 22.2495 16.296 21.633 16.5952 21.0166C16.6693 21.0385 16.7435 21.0577 16.8176 21.0796L16.8203 21.0824Z" fill="#F51A95"/>
<path d="M16.8205 21.0822C16.7463 21.0603 16.6722 21.0411 16.5981 21.0192C16.804 20.5589 17.0099 20.0959 17.213 19.6356C17.839 18.326 18.4676 17.0164 19.0881 15.7041C19.6069 14.6082 20.1121 13.5068 20.6254 12.411C20.9082 11.8082 21.1937 11.2082 21.4792 10.6055C21.5616 10.4329 21.6467 10.3589 21.7455 10.5918C21.6961 10.7397 21.5643 10.8548 21.5808 11.0274C20.8203 12.6356 20.0599 14.2438 19.2967 15.8493C18.8108 16.874 18.3029 17.8904 17.8335 18.9233C17.504 19.6493 17.1801 20.3753 16.8177 21.0849L16.8205 21.0822Z" fill="#F47A53"/>
<path d="M19.7637 18.0577C19.8323 18.0824 19.901 18.1098 19.9696 18.1344C19.5276 19.0714 19.0856 20.0084 18.6464 20.9481C18.4569 21.3536 18.284 21.7646 18.1028 22.1728C18.0314 22.2276 18.0067 22.3098 17.971 22.3892C17.098 24.2276 16.2195 26.0659 15.341 27.9016C15.2724 27.8796 15.2065 27.8577 15.1379 27.8331C15.7803 26.4577 16.4199 25.0796 17.0678 23.7043C17.9298 21.8742 18.7974 20.0495 19.6649 18.2221C19.6923 18.1646 19.7308 18.1098 19.7637 18.0522V18.0577Z" fill="#F51A95"/>
<path d="M15.1375 27.8384C15.2061 27.8603 15.272 27.8822 15.3406 27.9069C15.2912 28.0274 15.25 28.148 15.1951 28.2658C14.8108 29.0904 14.4237 29.9124 14.0366 30.7343C13.9899 30.8192 13.9433 30.9041 13.8993 30.9918C13.4656 31.885 13.0318 32.7808 12.5981 33.674C12.5706 33.5945 12.5075 33.5617 12.4306 33.5507C13.0895 32.1452 13.7429 30.7397 14.4045 29.3397C14.6433 28.8384 14.8465 28.3178 15.1375 27.8411V27.8384Z" fill="#D934AC"/>
<path d="M21.5805 11.0246C21.564 10.852 21.6958 10.7369 21.7452 10.589C21.8523 10.3862 21.9566 10.1835 22.0637 9.97803C22.3794 10.3835 22.5551 10.8657 22.8186 11.2986C22.8818 11.3999 22.8598 11.5041 22.8049 11.6054C22.6649 11.8739 22.5304 12.1424 22.3931 12.4136C22.2476 12.1643 22.3657 11.8821 22.2943 11.6164C22.146 11.0767 22.1268 11.0465 21.5778 11.0219L21.5805 11.0246Z" fill="#F3C0D5"/>
<path d="M10.8627 33.2852C10.9341 33.2879 11.0055 33.2906 11.0769 33.2934C10.7776 34.0797 10.3768 34.8221 10.0281 35.5865C9.7344 36.2304 9.4132 36.8632 9.10298 37.5016C9.02886 37.4989 8.95474 37.4961 8.88062 37.4906C8.91905 37.4002 8.95199 37.3098 8.99317 37.2194C9.33359 36.4769 9.67401 35.7372 10.0144 34.9947C10.2972 34.4249 10.58 33.855 10.8655 33.2852H10.8627Z" fill="#D934AC"/>
<path d="M21.2209 5.56144C20.7597 5.42445 20.2902 5.52583 19.8235 5.51213C19.6396 5.48199 19.6066 5.62719 19.5572 5.74226C19.1866 6.64637 18.6979 7.49295 18.3054 8.38884C17.7124 9.74774 17.0535 11.0792 16.4248 12.4245C15.6479 14.0847 14.8765 15.745 14.0996 17.408C13.3282 19.0354 12.554 20.6628 11.7908 22.2929C11.1429 23.6765 10.506 25.0628 9.86359 26.4491C9.80594 26.5532 9.7428 26.6546 9.69064 26.7642C8.85058 28.556 8.00777 30.345 7.17046 32.1395C6.69827 33.1505 6.2398 34.1642 5.7731 35.1779C5.38327 35.8738 5.08129 36.6108 4.73538 37.3286C4.12318 38.608 3.51647 39.8929 2.90702 41.1751C2.75328 41.0409 2.83289 40.8957 2.89878 40.7587C3.28038 39.9477 3.69217 39.1505 4.04631 38.3286C4.82872 36.5012 5.76487 34.745 6.55826 32.9203C6.86847 32.2025 7.28301 31.5231 7.59049 30.7998C8.33721 29.0518 9.25413 27.3834 9.97615 25.6245C10.2836 24.8765 10.6982 24.1779 11.0331 23.4409C12.09 21.1258 13.1826 18.8272 14.2808 16.5286C14.9918 15.0409 15.7056 13.5532 16.3699 12.0464C17.2567 10.0409 18.3054 8.10665 19.0686 6.04363C19.3952 5.1587 20.271 4.73404 21.1687 5.16692C21.6052 5.37788 22.039 5.42993 22.5139 5.19432C23.159 4.87377 23.7987 4.93678 24.4027 5.36692C24.7376 5.60528 25.111 5.59432 25.4514 5.36692C26.4369 4.70939 27.428 5.08747 27.881 6.06007C28.3339 7.03267 28.8885 7.94774 29.4101 8.87925C29.9756 9.89021 30.5521 10.8929 31.1177 11.9012C31.9275 13.3505 32.7319 14.7998 33.5308 16.2546C33.5884 16.3614 33.7449 16.4847 33.5665 16.6245C33.3111 16.2025 33.0558 15.7834 32.8005 15.3614C32.4052 14.6053 32.0016 13.8546 31.5432 13.1313C31.351 12.7779 31.1671 12.4217 30.9694 12.071C30.2254 10.756 29.476 9.44363 28.7292 8.1313C28.2735 7.30665 27.8151 6.47925 27.3593 5.65459C27.3209 5.5861 27.2852 5.51213 27.1946 5.51487C26.6868 5.5313 26.1761 5.43815 25.6737 5.56418C25.6106 5.67651 25.5529 5.79158 25.4843 5.90117C25.2867 6.21898 25.2317 6.61076 24.9737 6.89843C24.9188 6.80802 24.8639 6.71213 24.8062 6.62446C24.5674 6.27103 24.4603 5.82993 24.1062 5.55048C23.6367 5.42446 23.159 5.52035 22.6841 5.50391C22.5825 5.50117 22.5386 5.5861 22.5029 5.66829C22.3327 6.05459 22.1625 6.44363 21.9923 6.82993C21.8688 6.77514 21.8468 6.64637 21.7864 6.54774C21.5942 6.21898 21.4048 5.89021 21.2154 5.56144H21.2209Z" fill="#F3C0D5"/>
<path d="M19.9611 20.6244C18.9289 22.8381 17.8994 25.0518 16.8616 27.2628C16.233 28.5998 15.5933 29.934 14.9564 31.2683C14.907 31.2135 14.8576 31.1614 14.8082 31.1066C14.8219 31.0655 14.8301 31.0217 14.8493 30.9833C15.5714 29.4326 16.2989 27.8847 17.0209 26.334C17.4574 25.3943 17.8856 24.4546 18.3194 23.5148C18.4237 23.3121 18.5308 23.1148 18.6296 22.9094C19.0277 22.0792 19.4203 21.2491 19.8156 20.4189C19.865 20.4874 19.9666 20.5203 19.9583 20.6272L19.9611 20.6244Z" fill="#F51A95"/>
<path d="M19.9616 20.6248C19.9671 20.518 19.8655 20.4851 19.8188 20.4166C19.9781 20.0468 20.1373 19.6769 20.2993 19.3043C20.324 19.2687 20.3542 19.2358 20.3707 19.1974C21.2546 17.3152 22.1359 15.4303 23.0254 13.5509C23.1763 13.2303 23.2971 12.8879 23.5332 12.6084C23.6046 12.6714 23.6348 12.7563 23.6595 12.844C23.212 13.6577 22.8579 14.5152 22.4626 15.3536C21.6719 17.0221 20.8895 18.6961 20.1044 20.3646C20.0632 20.4522 20.011 20.5344 19.9616 20.6194V20.6248Z" fill="#F47A53"/>
<path d="M14.8109 31.1069C14.8603 31.1617 14.9097 31.2138 14.9592 31.2686C14.6737 32.0138 14.3003 32.7179 13.9626 33.4412C13.3806 34.6878 12.7821 35.9261 12.1919 37.1672C12.115 37.1672 12.0382 37.1617 11.9613 37.1617C12.2194 36.5973 12.4774 36.0302 12.7382 35.4658C13.2626 34.3261 13.7897 33.1891 14.3168 32.0494C14.4815 31.7343 14.6462 31.4193 14.8082 31.1069H14.8109Z" fill="#D934AC"/>
<path d="M23.6589 12.8466C23.6342 12.7589 23.604 12.6739 23.5326 12.6109C23.4942 12.526 23.4585 12.4411 23.42 12.3534C23.4557 12.2739 23.4942 12.1918 23.5299 12.1123C23.8044 12.5863 24.0789 13.063 24.3507 13.537C24.768 14.3561 25.199 15.1671 25.6657 15.9616C25.9018 16.4192 26.1351 16.8739 26.3712 17.3315C26.2916 17.337 26.2285 17.3644 26.1955 17.4411C25.6465 16.452 25.1002 15.4657 24.5539 14.4767C24.2546 13.9342 23.9581 13.3918 23.6589 12.8466Z" fill="#F51A95"/>
<path d="M26.1955 17.4411C26.2284 17.3644 26.2943 17.337 26.3712 17.3315C27.0301 18.4192 27.5709 19.5726 28.1886 20.6822C28.1227 20.7041 28.0568 20.7261 27.9909 20.7507C27.3677 19.6603 26.7528 18.5672 26.1927 17.4439L26.1955 17.4411Z" fill="#D934AC"/>
<path d="M14.3196 32.0521C13.7925 33.1918 13.2654 34.3288 12.741 35.4685C12.4802 36.0329 12.2222 36.5973 11.9641 37.1644C11.286 38.4603 10.7232 39.811 10.0863 41.126C10.0095 41.2822 9.94082 41.4439 9.8667 41.6028C9.58668 42.1891 9.42745 42.263 8.78231 42.1671C8.56818 42.137 8.66701 42.0302 8.70544 41.9425C8.88938 41.5452 9.0788 41.1534 9.26823 40.7589C10.3279 38.5315 11.3903 36.3014 12.45 34.074C12.5104 33.9452 12.5516 33.811 12.601 33.6795C13.0348 32.7863 13.4685 31.8904 13.9023 30.9973C13.9462 30.9096 13.9929 30.8247 14.0395 30.7397C14.2207 30.7754 14.1466 30.9233 14.1631 31.0274C14.2152 31.3699 14.1631 31.7315 14.3196 32.0576V32.0521Z" fill="#F5C7F1"/>
<path d="M10.0146 34.9973C9.67418 35.7397 9.33377 36.4795 8.99335 37.2219C8.95217 37.3096 8.91923 37.4028 8.88079 37.4932C8.49096 38.3096 8.09838 39.126 7.70855 39.9425C7.38461 40.6219 7.05792 41.3014 6.75319 41.9891C6.66534 42.1836 6.52808 42.1589 6.37983 42.1617C5.66056 42.1671 5.6688 42.1726 5.96804 41.537C6.87673 39.6 7.77993 37.6603 8.68588 35.7206C9.03727 34.9945 9.38867 34.2685 9.74282 33.5425C9.85812 33.6439 9.87459 33.7699 9.88832 33.9178C9.92126 34.2795 9.90204 34.6493 10.0146 35V34.9973Z" fill="#F5C7F1"/>
<path d="M7.66777 33.7561C7.04458 35.0986 6.41866 36.441 5.79822 37.7835C5.74331 37.9013 5.69939 38.0246 5.64997 38.1452C5.06797 39.3671 4.47224 40.5835 3.90946 41.8164C3.78043 42.0958 3.63218 42.1726 3.34393 42.1643C2.73722 42.1452 2.74271 42.1643 3.00351 41.6082C3.99731 39.4904 4.98836 37.3726 5.98215 35.2547C6.1908 34.8164 6.40218 34.3753 6.61083 33.9369C6.89085 33.3506 7.17087 32.7616 7.45089 32.1753C7.60188 32.2 7.62659 32.3205 7.63757 32.4383C7.64855 32.5671 7.63757 32.6958 7.64306 32.8246C7.65678 33.1342 7.60737 33.4465 7.66777 33.7561Z" fill="#F5C7F1"/>
<path d="M7.44783 32.1755C7.16781 32.7618 6.88779 33.3509 6.60777 33.9372C6.39912 34.3755 6.18774 34.8166 5.97909 35.255C5.89948 35.2605 5.82536 35.255 5.77869 35.1755C6.24264 34.1618 6.70385 33.1481 7.17604 32.1372C8.01336 30.3427 8.85342 28.5536 9.69622 26.7618C9.74564 26.655 9.81152 26.5509 9.86917 26.4468C9.91859 26.5043 9.97075 26.5618 10.0202 26.6166C9.79231 27.1235 9.56719 27.6303 9.33384 28.1344C8.70792 29.4797 8.07924 30.8249 7.45057 32.1701L7.44783 32.1755Z" fill="#D934AC"/>
<path d="M28.1913 20.6821C27.5709 19.5725 27.0301 18.4191 26.3739 17.3314C26.1378 16.8739 25.9045 16.4191 25.6684 15.9616C25.8715 15.9369 25.8112 15.7807 25.8221 15.6602C25.8551 15.3068 25.7425 14.9396 25.91 14.5972C25.9951 14.7424 26.0802 14.8903 26.1653 15.0355C26.3273 15.452 26.5991 15.8054 26.8132 16.1917C27.2222 16.9287 27.5736 17.6931 28.0458 18.3944C28.5482 19.3259 29.0341 20.2629 29.5585 21.1807C29.7122 21.4492 29.704 21.6026 29.4789 21.8163C29.0424 22.2273 29.0588 22.2383 28.7706 21.704C28.5839 21.3588 28.3862 21.0218 28.1941 20.6821H28.1913Z" fill="#F5C7F1"/>
<path d="M28.0433 18.3975C27.5711 17.6961 27.217 16.9317 26.8107 16.1947C26.5965 15.8084 26.3248 15.4523 26.1628 15.0386C26.2506 15.0386 26.3385 15.0386 26.4263 15.0386C26.7448 15.5043 26.9836 16.0167 27.2554 16.5098C27.5766 17.0879 27.8813 17.6742 28.1943 18.255C28.1668 18.3262 28.1147 18.3728 28.0433 18.4002V18.3975Z" fill="#D934AC"/>
<path d="M32.4055 17.5999C32.4494 17.7095 32.4961 17.819 32.54 17.9286C32.3231 17.9642 32.1694 17.8355 32.0019 17.7314C31.9415 17.693 31.8674 17.6355 31.7933 17.7012C31.7301 17.7588 31.8015 17.8218 31.807 17.8821C31.8345 18.2081 32.0541 18.5232 31.8701 18.8629C31.7823 18.7259 31.6944 18.5916 31.6093 18.4519C31.2772 17.9095 31.0054 17.3286 30.6348 16.8081C30.5442 16.6355 30.4591 16.4574 30.3575 16.2903C29.8743 15.4766 29.4488 14.6273 28.9244 13.8355C28.3342 12.7889 27.7522 11.7368 27.1537 10.6958C26.698 9.90123 26.2258 9.11767 25.803 8.30397C26.0062 7.83274 26.1791 7.34781 26.4701 6.92041C26.709 7.35877 26.9423 7.79986 27.1922 8.23274C27.5738 8.89027 27.8977 9.5752 28.3205 10.2081C28.7817 11.0629 29.2401 11.9204 29.7096 12.7725C30.0939 13.4711 30.4947 14.1588 30.8873 14.8519C31.354 15.7889 31.8729 16.6985 32.4055 17.5999Z" fill="#F3C0D5"/>
<path d="M26.4263 15.0358C26.3384 15.0358 26.2506 15.0358 26.1627 15.0358C26.0776 14.8906 25.9925 14.7427 25.9074 14.5975C25.5038 13.781 25.0509 12.9893 24.5869 12.2057C24.1779 11.381 23.7276 10.581 23.2719 9.78378C23.1896 9.61118 23.1099 9.43858 23.0303 9.26597C23.0852 9.22214 23.1401 9.18104 23.1951 9.13721C23.3433 9.37556 23.4915 9.61392 23.6398 9.85502C23.8649 10.3235 24.0681 10.8084 24.4222 11.203C24.5787 11.718 24.8862 12.1564 25.1497 12.6167C25.534 13.3345 25.9184 14.0523 26.3027 14.7701C26.3494 14.855 26.3878 14.9454 26.4318 15.0331L26.4263 15.0358Z" fill="#F51A95"/>
<path d="M28.6529 16.2221C27.8842 14.8823 27.1155 13.5399 26.3468 12.2002C26.2233 11.9837 26.0915 11.77 25.9652 11.5563C25.8499 11.3289 25.7374 11.0988 25.6221 10.8714C25.6468 10.7892 25.6715 10.7043 25.6962 10.6221C25.8362 10.7645 25.8527 10.9892 26.0174 11.1152C26.1849 11.4084 26.3468 11.707 26.5225 11.9974C26.6214 12.1591 26.6488 12.3782 26.8629 12.4577C26.8245 12.5262 26.8575 12.5892 26.8877 12.6412C27.2967 13.3563 27.7085 14.0686 28.1175 14.7837C28.3619 15.2412 28.6089 15.6988 28.8533 16.1591C28.7874 16.181 28.7188 16.2029 28.6529 16.2248V16.2221Z" fill="#F51A95"/>
<path d="M25.6194 10.8687C25.7347 11.0961 25.8473 11.3262 25.9626 11.5536C25.7924 11.5728 25.7238 11.4166 25.603 11.3481C25.3476 11.2002 25.1802 11.255 25.1088 11.5508C25.0429 11.8358 25.1308 12.1125 25.1857 12.3865C25.2021 12.4741 25.2433 12.5536 25.1445 12.6139C24.8809 12.1536 24.5735 11.7152 24.417 11.2002C24.5982 10.7782 24.7794 10.3563 25.0264 9.96729C25.2955 10.2193 25.3724 10.5974 25.6194 10.8659V10.8687Z" fill="#F3C0D5"/>
<path d="M30.6375 16.8057C31.0081 17.3262 31.2799 17.907 31.6121 18.4495C31.6972 18.5865 31.785 18.7235 31.8729 18.8605C32.1968 19.2687 31.9992 19.57 31.678 19.8577C31.4666 20.0468 31.2717 20.2495 31.052 20.4659C30.8105 20.0577 30.5579 19.6659 30.3685 19.2413C30.4344 19.2194 30.4975 19.1974 30.5634 19.1755C30.6238 19.2659 30.6842 19.3536 30.7418 19.4468C31.1152 20.0687 31.1042 20.0605 31.6203 19.5563C31.8043 19.3755 31.7988 19.2522 31.6725 19.0331C31.2689 18.3344 30.8297 17.655 30.4838 16.9235C30.5112 16.8495 30.5689 16.8194 30.643 16.8111L30.6375 16.8057Z" fill="#B959C4"/>
<path d="M30.5606 19.1725C30.4947 19.1944 30.4316 19.2163 30.3657 19.2383C29.77 18.2465 29.1852 17.2465 28.6499 16.2191C28.7158 16.1972 28.7844 16.1752 28.8503 16.1533C29.4653 17.1341 29.9951 18.1615 30.5606 19.1725Z" fill="#D934AC"/>
<path d="M32.6112 15.4275C32.9159 15.9782 33.2179 16.5343 33.5309 17.0823C33.6325 17.2576 33.6846 17.3919 33.4979 17.559C33.3113 17.7234 33.1822 18.0604 32.9736 18.0604C32.7787 18.0604 32.7457 17.6823 32.5975 17.4987C32.5838 17.4823 32.5645 17.4686 32.5508 17.4549C32.43 17.2275 32.3147 16.9946 32.1884 16.7699C31.8068 16.0795 31.4609 15.3672 31.0327 14.6987C30.8679 14.3754 30.706 14.0521 30.5413 13.7289C30.7224 13.7124 30.6923 13.5754 30.695 13.4604C30.7032 13.0247 30.7087 12.5891 30.717 12.1562C30.9311 12.5042 31.1425 12.8494 31.3566 13.1973C31.7382 13.9617 32.1637 14.6987 32.614 15.4275H32.6112Z" fill="#F5C7F1"/>
<path d="M31.0328 14.6987C31.4611 15.3645 31.8043 16.0768 32.1886 16.77C32.3149 16.9946 32.4302 17.2275 32.551 17.4549C32.5043 17.5042 32.4576 17.5508 32.4082 17.6001C31.8756 16.6987 31.3568 15.7891 30.8901 14.8522C30.9395 14.8001 30.9862 14.7508 31.0356 14.6987H31.0328Z" fill="#D934AC"/>
<path d="M32.6118 15.4277C32.1644 14.7017 31.7388 13.962 31.3545 13.1976C31.4204 13.1757 31.4835 13.1538 31.5494 13.1318C32.0079 13.8524 32.4114 14.6058 32.8068 15.362C32.7409 15.3839 32.675 15.4058 32.6091 15.4277H32.6118Z" fill="#D934AC"/>
<path d="M14.1028 17.4084C14.877 15.7482 15.6512 14.0851 16.4281 12.4249C17.0568 11.0797 17.7157 9.7509 18.3086 8.38925C18.6985 7.49336 19.1899 6.64679 19.5605 5.74268C19.6099 5.62487 19.6428 5.47966 19.8268 5.51254C19.8652 5.90158 19.6236 6.20021 19.4754 6.51802C17.9517 9.79199 16.4089 13.0577 14.8715 16.3262C14.6903 16.7098 14.5037 17.0906 14.317 17.4742C14.2621 17.4057 14.1879 17.3975 14.1056 17.4057L14.1028 17.4084Z" fill="#F47A53"/>
<path d="M13.9823 20.3098C13.6061 21.1701 13.2136 22.0222 12.7771 22.8523C12.6343 22.729 12.6563 22.5619 12.6453 22.4002C12.6151 22.0249 12.7277 21.6441 12.5794 21.277C12.9335 20.4276 13.3316 19.6002 13.7407 18.7783C13.9301 18.8852 13.8862 19.0687 13.9026 19.2359C13.9383 19.5948 13.8066 19.9646 13.9823 20.3098Z" fill="#F3C0D5"/>
<path d="M13.7402 18.7751C13.3312 19.597 12.9331 20.4272 12.579 21.2737C12.3594 21.723 12.1397 22.1696 11.9256 22.6217C11.2887 23.9532 10.6573 25.2874 10.0204 26.6189C9.97096 26.5614 9.9188 26.5039 9.86938 26.4491C10.5118 25.0628 11.1487 23.6765 11.7966 22.2929C12.5625 20.6628 13.3367 19.0354 14.1054 17.408C14.185 17.397 14.2619 17.408 14.3168 17.4765C14.0862 17.8929 13.9187 18.3367 13.7402 18.7778V18.7751Z" fill="#F51A95"/>
<path d="M23.2713 9.7835C23.7271 10.5808 24.1773 11.3835 24.5863 12.2054C24.4738 12.2794 24.504 12.3945 24.504 12.4958C24.5012 12.7534 24.504 13.0082 24.504 13.2657C24.504 13.3835 24.5232 13.5123 24.353 13.5342C24.0785 13.0602 23.8039 12.5835 23.5322 12.1095C23.3921 11.8191 23.2494 11.526 23.1094 11.2356C23.2686 10.9177 23.156 10.5753 23.1862 10.2465C23.2027 10.0876 23.1506 9.92049 23.2713 9.78076V9.7835Z" fill="#F3C0D5"/>
<path d="M23.1923 9.13687C23.1374 9.1807 23.0825 9.2218 23.0276 9.26563C22.5966 8.61358 22.2644 7.90399 21.8773 7.22728C21.6495 6.83276 21.4518 6.41906 21.2322 6.01906C21.1471 5.86289 21.1224 5.71495 21.224 5.56152C21.4134 5.89029 21.6028 6.2218 21.795 6.54783C21.8526 6.64919 21.8746 6.77796 22.0009 6.83002C22.2068 7.367 22.484 7.86289 22.8052 8.33687C22.937 8.60262 23.0661 8.86837 23.1978 9.13413L23.1923 9.13687Z" fill="#F47A53"/>
<path d="M17.2165 19.6356C17.0106 20.0958 16.8047 20.5589 16.6015 21.0191C16.3023 21.6356 16.003 22.252 15.7038 22.8684C15.5885 22.7972 15.616 22.6794 15.616 22.5753C15.616 22.2821 15.616 21.9917 15.616 21.6986C15.616 21.5534 15.5967 21.4164 15.4595 21.3315C15.9646 20.263 16.4697 19.1945 16.9749 18.126C17.2274 18.1643 17.1396 18.3534 17.1066 18.4794C17.027 18.7917 17.0847 19.1041 17.0682 19.4164C17.0627 19.526 17.1121 19.6027 17.222 19.6356H17.2165Z" fill="#F3C0D5"/>
<path d="M23.4203 12.3563C23.4587 12.4412 23.4944 12.5261 23.5329 12.6138C23.2968 12.8905 23.176 13.233 23.025 13.5563C22.1355 15.4357 21.2543 17.3206 20.3703 19.2028C20.3511 19.2412 20.3236 19.2741 20.2989 19.3097C20.1342 19.0056 20.2605 18.6768 20.2248 18.359C20.2111 18.2193 20.2413 18.0713 20.0903 17.9837C20.4856 17.1343 20.8782 16.2823 21.2735 15.433C21.8226 14.2549 22.3716 13.0768 22.9207 11.9015C22.9481 11.8439 22.9756 11.7864 23.0195 11.6987C23.1623 11.9343 23.2913 12.1453 23.4203 12.359V12.3563Z" fill="#F7D086"/>
<path d="M20.0873 17.981C20.2411 18.0686 20.2081 18.2166 20.2218 18.3563C20.2548 18.6714 20.1312 19.0001 20.296 19.307C20.1367 19.6768 19.9775 20.0467 19.8155 20.4193C19.4202 21.2495 19.0276 22.0823 18.6296 22.9125C18.5307 23.1179 18.4237 23.3152 18.3194 23.5179C18.1217 23.4823 18.1903 23.3262 18.1793 23.2056C18.1437 22.8631 18.2562 22.5125 18.1025 22.1782C18.2837 21.77 18.4566 21.359 18.646 20.9536C19.0825 20.0138 19.5273 19.0768 19.9693 18.1399C20.0105 18.0878 20.0489 18.0358 20.0901 17.9837L20.0873 17.981Z" fill="#F3C0D5"/>
<path d="M15.4537 21.3318C15.5909 21.4195 15.6102 21.5538 15.6102 21.699C15.6102 21.9921 15.6102 22.2825 15.6102 22.5757C15.6102 22.6798 15.5855 22.7976 15.698 22.8688C15.1572 24.036 14.6191 25.2058 14.0755 26.3729C13.0241 28.6277 11.9699 30.8798 10.9185 33.1318C10.8965 33.1812 10.8828 33.2332 10.8635 33.2853C10.5808 33.8551 10.298 34.425 10.0125 34.9949C9.89995 34.6414 9.91642 34.2743 9.88622 33.9127C9.8725 33.7647 9.85602 33.636 9.74072 33.5373C10.1827 32.5784 10.6247 31.6168 11.0694 30.6579C11.5471 29.6305 12.0276 28.6031 12.5052 27.5757C13.2025 26.1044 13.8971 24.636 14.5944 23.1647C14.8827 22.5538 15.1682 21.9401 15.4537 21.3291V21.3318Z" fill="#FAB5E1"/>
<path d="M10.0206 26.6191C10.6547 25.2876 11.2889 23.9534 11.9258 22.6219C12.1399 22.1726 12.3623 21.7232 12.5792 21.2739C12.7274 21.641 12.6149 22.0246 12.6451 22.3972C12.6588 22.5589 12.6341 22.7287 12.7769 22.8493C12.2553 23.9753 11.7336 25.1041 11.212 26.2301C10.7234 27.2876 10.2347 28.3479 9.74331 29.4054C9.37269 30.178 9.00482 30.9506 8.63421 31.726C8.31026 32.4027 7.98907 33.0767 7.66512 33.7534C7.60472 33.4438 7.65414 33.1315 7.64041 32.8219C7.63492 32.6931 7.6459 32.5616 7.63492 32.4356C7.62394 32.3178 7.59923 32.1972 7.44824 32.1726C8.07691 30.8274 8.70559 29.4821 9.33151 28.1369C9.56486 27.6328 9.78998 27.126 10.0178 26.6191H10.0206Z" fill="#FAB5E1"/>
<path d="M18.1026 22.1753C18.2591 22.5068 18.1466 22.8602 18.1795 23.2027C18.1905 23.3205 18.1219 23.4794 18.3195 23.515C17.8858 24.4547 17.4575 25.3972 17.021 26.3342C16.299 27.8849 15.5742 29.4356 14.8495 30.9835C14.8303 31.0219 14.822 31.0657 14.8083 31.1068C14.6436 31.4219 14.4789 31.7369 14.3169 32.0493C14.1604 31.7205 14.2126 31.3616 14.1604 31.0191C14.1439 30.9123 14.2181 30.7671 14.0369 30.7315C14.424 29.9095 14.8083 29.0876 15.1954 28.263C15.2503 28.1452 15.2942 28.0246 15.3409 27.9041C16.2194 26.0657 17.0951 24.2301 17.9709 22.3917C18.0093 22.3123 18.0313 22.2301 18.1026 22.1753Z" fill="#FAB5E1"/>
<path d="M22.8029 8.33974C22.4845 7.86303 22.2044 7.36714 21.9985 6.83289C22.1687 6.44659 22.339 6.06029 22.5092 5.67125C22.5448 5.58906 22.5888 5.50413 22.6904 5.50687C23.1653 5.52331 23.643 5.42741 24.1124 5.55344C24.0685 5.70413 24.0685 5.83289 24.1673 5.9781C24.332 6.22194 24.4446 6.49865 24.6011 6.74796C24.9305 7.27399 25.1748 7.85207 25.5537 8.34796C25.7843 8.7781 26.0149 9.20824 26.2428 9.63837C26.0863 9.737 26.1604 9.89317 26.1467 10.0274C26.111 10.3891 26.24 10.7699 26.0149 11.1096C25.8502 10.9808 25.8337 10.7589 25.6937 10.6165C25.6855 10.5754 25.6882 10.526 25.6662 10.4904C24.9662 9.26303 24.2634 8.03837 23.5414 6.77536C23.4837 6.91509 23.4398 7.01372 23.3986 7.11235C23.19 7.51783 23.05 7.95344 22.8002 8.33974H22.8029Z" fill="#F7D086"/>
<path d="M28.3203 10.2083C27.8975 9.57543 27.5736 8.88776 27.192 8.23297C26.9422 7.80009 26.7088 7.35899 26.47 6.92064C26.2119 6.46584 26.0115 5.97817 25.6766 5.56721C26.179 5.43845 26.6923 5.5316 27.1975 5.5179C27.2881 5.5179 27.3238 5.58913 27.3622 5.65762C27.8179 6.48228 28.2764 7.30968 28.7321 8.13434C28.6552 8.16721 28.6031 8.22201 28.5784 8.3042C28.5152 8.22475 28.4548 8.14804 28.3917 8.07132C28.1418 7.48502 27.7383 6.98091 27.494 6.40009C27.2743 5.88228 26.9559 5.6905 26.4096 5.76721C26.1927 5.79735 26.135 5.81927 26.2531 6.02475C26.4864 6.43297 26.7006 6.84941 26.9312 7.26036C27.3704 8.03845 27.8152 8.81379 28.2544 9.59187C28.3066 9.7179 28.3587 9.84393 28.4081 9.96995C28.3779 10.0521 28.345 10.1343 28.3148 10.2138L28.3203 10.2083Z" fill="#F47A53"/>
<path d="M25.6795 5.56738C26.0145 5.97834 26.2149 6.46601 26.4729 6.92081C26.1819 7.34821 26.009 7.83314 25.8058 8.30437C25.7701 8.27149 25.7317 8.23862 25.696 8.20574C25.5038 7.74547 25.2074 7.34273 24.9795 6.90163C25.2375 6.61396 25.2925 6.22218 25.4901 5.90437C25.5587 5.79478 25.6164 5.67971 25.6795 5.56738Z" fill="#F7D086"/>
<path d="M28.5812 8.30414C28.6032 8.22195 28.6554 8.16715 28.735 8.13428C29.4817 9.44661 30.2312 10.7589 30.9751 12.074C31.1728 12.4247 31.3595 12.7809 31.5489 13.1343C31.483 13.1562 31.4199 13.1781 31.354 13.2C31.1399 12.8521 30.9285 12.5069 30.7143 12.1589C30.3876 11.5041 30.0362 10.8603 29.6025 10.2658C29.6107 10.1151 29.5119 10.0028 29.446 9.87948C29.1605 9.35346 28.8695 8.83017 28.5812 8.30414Z" fill="#F51A95"/>
<path d="M24.9774 6.90136C25.2052 7.34245 25.5017 7.74519 25.6939 8.20547C25.6472 8.25478 25.6005 8.3041 25.5539 8.35067C25.175 7.85478 24.9334 7.2767 24.6012 6.75067C24.4448 6.50136 24.3322 6.22465 24.1675 5.98081C24.0687 5.8356 24.0687 5.7041 24.1126 5.55615C24.464 5.8356 24.5738 6.27396 24.8126 6.63013C24.8703 6.71506 24.9252 6.81095 24.9801 6.9041L24.9774 6.90136Z" fill="#F47A53"/>
<path d="M24.3505 13.5368C24.5207 13.5149 24.5015 13.3834 24.5015 13.2683C24.5015 13.0107 24.5015 12.756 24.5015 12.4984C24.5015 12.3943 24.4713 12.2792 24.5839 12.208C25.0478 12.9916 25.5008 13.7834 25.9044 14.5998C25.7369 14.9423 25.8495 15.3066 25.8165 15.6628C25.8055 15.7833 25.8659 15.9423 25.6628 15.9642C25.1961 15.1724 24.7651 14.3587 24.3478 13.5395L24.3505 13.5368Z" fill="#FAB5E1"/>
<path d="M25.5529 8.35077C25.5995 8.30146 25.6462 8.25214 25.6929 8.20557C25.7286 8.23844 25.767 8.27132 25.8027 8.3042C26.2255 9.11789 26.6976 9.90146 27.1534 10.696C27.7518 11.7371 28.3366 12.7891 28.9241 13.8357C28.9131 13.9206 28.8802 13.9864 28.7813 13.9891C28.5617 13.7891 28.4656 13.5097 28.3229 13.2631C27.9056 12.485 27.4718 11.7152 26.9886 10.9754C26.7827 10.5069 26.5082 10.0768 26.2419 9.64392C26.0113 9.21379 25.7807 8.78365 25.5529 8.35351V8.35077Z" fill="#F51A95"/>
<path d="M28.3207 10.2082C28.3509 10.126 28.3838 10.0438 28.414 9.96436C28.7791 10.6055 29.1443 11.2438 29.5094 11.8849C29.8526 12.5013 30.1957 13.115 30.5416 13.7315C30.7063 14.0548 30.8683 14.3781 31.033 14.7013C30.9836 14.7534 30.9369 14.8027 30.8875 14.8548C30.495 14.1616 30.0941 13.4712 29.7098 12.7753C29.2404 11.9233 28.7846 11.0657 28.3207 10.2109V10.2082Z" fill="#F51A95"/>
<path d="M28.784 13.9889C28.8828 13.9889 28.9158 13.9204 28.9268 13.8354C29.4511 14.6272 29.8766 15.4738 30.3598 16.2902C30.4586 16.4574 30.5437 16.6354 30.6371 16.8081C30.5657 16.8163 30.5053 16.8464 30.4806 16.9204C29.9453 16.1368 29.528 15.282 29.0421 14.4711C28.9487 14.3149 28.7922 14.1916 28.7867 13.9889H28.784Z" fill="#D934AC"/>
<path d="M22.8025 8.3397C23.0524 7.95614 23.1924 7.51778 23.401 7.1123C23.7716 7.53696 23.9693 8.06025 24.2438 8.53696C24.0407 8.97532 23.8403 9.41367 23.6371 9.85203C23.4889 9.61367 23.3406 9.37532 23.1924 9.13422C23.0606 8.86847 22.9316 8.60272 22.7998 8.33696L22.8025 8.3397Z" fill="#F3C0D5"/>
<path d="M23.637 9.85462C23.8402 9.41626 24.0406 8.97791 24.2437 8.53955C24.3508 8.71215 24.4743 8.87654 24.5622 9.0601C24.7132 9.36695 24.9685 9.619 25.0261 9.96969C24.7791 10.3587 24.6006 10.7806 24.4167 11.2026C24.0625 10.808 23.8594 10.3231 23.6343 9.85462H23.637Z" fill="#F7D086"/>
<path d="M28.7845 13.989C28.79 14.1918 28.9465 14.315 29.0398 14.4712C29.5258 15.2849 29.943 16.137 30.4784 16.9205C30.8243 17.652 31.2635 18.3315 31.6671 19.0301C31.7934 19.2493 31.8016 19.3726 31.6149 19.5534C31.1016 20.0575 31.1098 20.0657 30.7364 19.4438C30.6815 19.3507 30.6184 19.263 30.558 19.1726C29.9925 18.1644 29.4654 17.1342 28.8477 16.1534C28.6033 15.6959 28.3563 15.2383 28.1119 14.7781C28.3535 14.5123 28.2547 14.2055 28.2108 13.9096C28.1751 13.6767 28.1504 13.4548 28.3178 13.2603C28.4633 13.5068 28.5567 13.7863 28.7763 13.9863L28.7845 13.989Z" fill="#F5C7F1"/>
<path d="M28.3231 13.2631C28.1529 13.4576 28.1804 13.6795 28.216 13.9124C28.26 14.2083 28.3588 14.5151 28.1172 14.7809C27.7054 14.0685 27.2964 13.3535 26.8873 12.6384C26.8571 12.5864 26.8242 12.5233 26.8626 12.4548C26.8654 12.0658 26.8709 11.6768 26.8736 11.285C26.8736 11.1644 26.8599 11.0411 26.9916 10.9727C27.4748 11.7124 27.9058 12.4822 28.3259 13.2603L28.3231 13.2631Z" fill="#FAB5E1"/>
<path d="M26.9919 10.9726C26.8601 11.0439 26.8738 11.1671 26.8738 11.2849C26.8711 11.674 26.8656 12.063 26.8628 12.4548C26.6514 12.3754 26.624 12.1562 26.5224 11.9945C26.344 11.7069 26.1847 11.4082 26.0173 11.1123C26.2424 10.7726 26.1134 10.3918 26.149 10.0302C26.1628 9.89591 26.0887 9.73974 26.2451 9.64111C26.5114 10.074 26.786 10.5041 26.9919 10.9726Z" fill="#F3C0D5"/>
<path d="M25.0262 9.9701C24.9686 9.61668 24.7105 9.36462 24.5623 9.06051C24.4744 8.87969 24.3509 8.71257 24.2438 8.53996C23.9693 8.06051 23.7689 7.53722 23.401 7.11531C23.4422 7.01668 23.4834 6.91805 23.5438 6.77832C24.2685 8.04133 24.9686 9.26599 25.6686 10.4934C25.6878 10.529 25.6878 10.5783 25.6961 10.6194C25.6714 10.7016 25.6467 10.7865 25.6219 10.8687C25.3749 10.6002 25.298 10.2249 25.029 9.9701H25.0262Z" fill="#F47A53"/>
<path d="M30.5417 13.7314C30.1985 13.1149 29.8554 12.5012 29.5095 11.8848C29.6275 11.3506 29.5314 10.8026 29.6055 10.2656C30.0366 10.8601 30.388 11.504 30.7174 12.1588C30.7092 12.5944 30.7037 13.0273 30.6954 13.4629C30.6954 13.578 30.7229 13.7149 30.5417 13.7314Z" fill="#FAB5E1"/>
<path d="M28.2602 9.58604C27.8182 8.80796 27.3735 8.03262 26.937 7.25454C26.7064 6.84632 26.4923 6.42714 26.2589 6.01892C26.1409 5.81344 26.1985 5.79152 26.4154 5.76138C26.9617 5.68741 27.2802 5.87919 27.4998 6.39426C27.7441 6.97508 28.1504 7.47919 28.3975 8.06549C28.2822 8.1833 28.3398 8.33125 28.3289 8.46549C28.2932 8.8381 28.4002 9.21618 28.2602 9.5833V9.58604Z" fill="#F7D086"/>
<path d="M28.2596 9.58617C28.3997 9.22178 28.2926 8.84096 28.3283 8.46836C28.342 8.33411 28.2816 8.18617 28.3969 8.06836C28.46 8.14507 28.5204 8.22452 28.5836 8.30124C28.8718 8.82726 29.1628 9.35055 29.4484 9.87658C29.5142 9.99987 29.6131 10.1095 29.6048 10.2629C29.5307 10.7999 29.6295 11.3478 29.5088 11.8821C29.1436 11.241 28.7785 10.6026 28.4134 9.96151C28.3612 9.83548 28.3091 9.70945 28.2596 9.58343V9.58617Z" fill="#F3C0D5"/>
</g>
<defs>
<clipPath id="clip0_130_1938">
<rect width="231" height="48" fill="white"/>
</clipPath>
</defs>
</svg>
